<?xml version="1.0" encoding="UTF-8"?>
<svg viewBox="0 0 512 512" version="1.1" xmlns="http://www.w3.org/2000/svg" xmlns:xlink="http://www.w3.org/1999/xlink">
  <path d="M436.511356,22.03 C453.205356,22.304 467.521356,27.36 477.731356,37.688 C510.393356,70.735 488.606356,145.313 428.916356,204.313 C403.321476,229.6122 372.98179,240.970664 345.68245,248.902464 L343.132281,249.636352 L343.132281,249.636352 L340.601353,250.352087 L340.601353,250.352087 L338.09109,251.051594 L338.09109,251.051594 L334.367562,252.074639 L334.367562,252.074639 L330.69855,253.072001 L330.69855,253.072001 L324.717744,254.694845 L324.717744,254.694845 L322.376554,255.335798 L322.376554,255.335798 L320.066721,255.974963 L320.066721,255.974963 L317.78967,256.614264 C312.892603,258.000954 308.236416,259.40216 303.886356,260.906 C342.076356,296.12 384.760356,328.5 434.324356,360.186 L372.730356,421.062 C339.463356,367.667 304.678356,321.65 266.324356,280.469 C210.492916,317.891 168.690216,381.685506 130.341229,448.849082 L127.607747,453.651899 L127.607747,453.651899 L124.885155,458.464313 C124.43225,459.267079 123.979763,460.070166 123.527676,460.873537 L120.819815,465.696853 L120.819815,465.696853 L118.120704,470.525108 L118.120704,470.525108 L115.429487,475.356439 L115.429487,475.356439 L112.745306,480.188983 L112.745306,480.188983 L108.730356,487.436 L108.730356,487.436 L23.2303564,400.936 L33.0934589,395.622255 L33.0934589,395.622255 L38.0210704,392.961274 L38.0210704,392.961274 L42.9436315,390.296237 L42.9436315,390.296237 L47.8593244,387.626157 L47.8593244,387.626157 L52.7663311,384.950048 C53.5833408,384.503472 54.3999127,384.056605 55.2160092,383.609424 L60.1065784,380.92242 C60.9206212,380.473905 61.7341127,380.025036 62.547015,379.575793 L67.4170565,376.875673 C133.869387,339.908104 195.850956,300.14514 232.480356,246.249 C191.266356,207.035 145.760356,172.109 93.8243564,138.905 L155.416356,78.03 C185.886356,126.933 217.342356,169.715 252.261356,208.594 C253.314716,205.58458 254.326394,202.432608 255.324532,199.159283 L255.988261,196.95932 C256.098651,196.589741 256.208951,196.218722 256.3192,195.846292 L256.980386,193.595012 L256.980386,193.595012 L257.642194,191.311264 L257.642194,191.311264 L258.975084,186.651952 L258.975084,186.651952 L260.6777,180.670047 L260.6777,180.670047 L261.729856,177.005137 L261.729856,177.005137 L262.447898,174.533203 L262.447898,174.533203 L263.181387,172.039968 C263.305025,171.622731 263.429384,171.204665 263.554502,170.785799 L264.314634,168.26323 L264.314634,168.26323 L265.094844,165.722849 L265.094844,165.722849 L265.896986,163.166054 C274.169862,137.093248 286.130376,108.69177 310.541356,84.562 C351.580356,44 399.786356,21.43 436.512356,22.032 L436.511356,22.03 Z M419.541356,69.094 C398.601356,69.509 368.651356,85.104 342.105356,111.344 C305.171356,147.849 288.800356,191.126 305.510356,208.031 C322.220356,224.938 365.704356,209.068 402.635356,172.563 C439.566356,136.06 455.971356,92.75 439.261356,75.844 C434.561356,71.089 427.736356,68.931 419.541356,69.094 Z"></path>
</svg>