<?xml version="1.0" encoding="UTF-8"?>
<svg viewBox="0 0 359 350" version="1.1" xmlns="http://www.w3.org/2000/svg" xmlns:xlink="http://www.w3.org/1999/xlink">
  <title>arcana</title>
  <path d="M271.500389,124.118 L258.672201,139.667 L326.175389,148.162 L225.599311,163.74063 L243.868937,150.773315 L196.741389,166.033266 L271.500389,124.118 Z M16.3522013,116.304401 L118.460201,134.306401 L154.98448,158.517219 L87.4342013,159.875401 L114.134201,151.751 L16.3522013,116.304401 Z M238.544965,69.57 L235.098201,106.689 L295.038965,85.432 L184.619965,158.517219 L208.221299,118.20327 L210.094349,130.830824 L238.544965,69.57 Z M121.977428,51.7775743 L150.166201,115.315574 L137.023517,107.561971 L167.838041,154.401179 L119.815201,116.051574 L121.977428,51.7775743 Z M177.030287,16 L185.226201,93.549 L208.268201,71.832 L178.556833,143.692916 L159.373201,86.643 L177.030287,16 Z M178.556833,191.006827 L197.253201,250.853827 L177.206548,333.686476 L168.254201,242.466 L144.835201,262.605827 L178.556833,191.006827 Z M186.041661,182.390905 L233.499661,216.790905 L227.908959,273.044555 L204.695201,220.104 L203.479661,225.122905 L199.582062,216.976975 L215.442511,219.812233 L186.041661,182.390905 Z M168.852012,179.528193 L140.787899,208.439841 L154.289151,202.468507 L116.251201,261.720193 L117.935201,225.941 L57.1742013,245.816193 L168.852012,179.528193 Z M268.453552,175.083 L248.185201,183.758 L340.760465,215.011377 L241.684552,202.239 L203.267552,177.566766 L268.453552,175.083 Z M160.038971,169.168841 L81.1850053,208.439841 L94.1382013,193.065 L20.7470053,181.537841 L117.34745,172.786896 L107.667385,182.472516 L160.038971,169.168841 Z"></path>
</svg>