<?xml version="1.0" encoding="UTF-8"?>
<svg viewBox="0 0 512 512" version="1.1" xmlns="http://www.w3.org/2000/svg" xmlns:xlink="http://www.w3.org/1999/xlink">
  <path d="M158.094,75.156 C137.452,88.81 112.071,97.659 88.656,101.186 C95.448,150.121 114.796,185.319 134.626,199.031 C145.149,206.311 154.983,208.043 165.031,204.595 C173.961,201.531 183.661,193.625 192.781,179.001 C165.848,148.774 161.175,107.951 158.095,75.156 L158.094,75.156 Z M355,75.25 C351.92,108.04 347.213,148.83 320.28,179.03 C329.397,193.64 339.137,201.53 348.063,204.594 C358.11,208.042 367.913,206.309 378.438,199.031 C398.238,185.338 417.558,150.209 424.375,101.376 C399.88,98.206 376.573,90.026 355,75.25 L355,75.25 Z M256.5,88.22 C225.3,88.22 197.748,95.21 181.03,105.875 C182.018,111.338 183.18,116.787 184.594,122.125 C200.732,115.183 226.928,110.655 256.531,110.655 C286.135,110.655 312.331,115.183 328.471,122.125 C329.883,116.787 331.046,111.338 332.031,105.875 C315.31,95.203 287.716,88.22 256.5,88.22 Z M75.406,132.373 L27.686,177.844 C57.436,215.028 90.726,234.67 114.156,236.562 C115.301,236.654 116.409,236.697 117.5,236.718 C119.292,229.135 121.463,221.668 124,214.373 C102.276,199.35 84.986,170.637 75.406,132.373 L75.406,132.373 Z M437.656,132.374 C428.066,170.634 410.786,199.352 389.062,214.374 C389.032,214.396 389,214.414 388.969,214.437 C391.509,221.713 393.697,229.157 395.499,236.717 C396.609,236.697 397.739,236.657 398.905,236.562 C422.339,234.67 455.655,215.037 485.405,177.842 L437.655,132.374 L437.656,132.374 Z M192.656,144.844 C197.196,154.544 203.106,163.448 210.906,170.999 L216.031,175.969 L212.595,182.187 C210.795,185.479 208.923,188.575 207.001,191.499 C239.593,203.464 274.863,202.635 305.939,191.311 C304.059,188.443 302.232,185.409 300.469,182.186 L297.063,175.968 L302.157,170.998 C309.687,163.708 315.465,155.152 319.937,145.842 C276.31,156.376 234.537,154.345 192.656,144.842 L192.656,144.844 Z M318.156,206.654 C279.753,222.334 235.126,223.474 194.75,206.811 C187.45,214.181 179.532,219.385 171.094,222.281 C161.172,225.685 150.854,225.593 141.031,222.655 C134.124,243.247 130.251,265.252 130.251,287.061 C130.251,294.375 130.813,301.886 131.907,309.531 L254.313,279.624 L256.533,279.061 L258.751,279.624 L381.501,309.594 C382.387,301.947 382.845,294.421 382.845,287.061 C382.845,265.271 378.955,243.269 372.001,222.686 C362.189,225.614 351.879,225.681 341.971,222.28 C333.471,219.365 325.499,214.108 318.157,206.656 L318.156,206.654 Z M476.626,215.218 C451.222,239.386 424.558,253.236 400.406,255.186 C399.979,255.22 399.551,255.222 399.126,255.248 C400.34,263.323 401.116,271.476 401.406,279.654 C424.212,283.434 456.129,279.752 491.406,265.31 L476.626,215.217 L476.626,215.218 Z M36.438,215.248 L21.688,265.311 C56.956,279.744 88.858,283.431 111.656,279.654 C111.946,271.474 112.732,263.324 113.936,255.248 C113.511,255.222 113.084,255.22 112.656,255.185 C88.51,253.235 61.836,239.408 36.436,215.248 L36.438,215.248 Z M256.531,298.311 L135.471,327.904 C137.443,336.032 139.981,344.254 142.971,352.529 C176.507,344.795 214.201,341.023 251.471,340.749 C254.255,340.729 257.035,340.731 259.814,340.749 C300.071,341.013 339.424,345.325 372.094,352.999 C374.716,344.656 376.894,336.349 378.564,328.124 L256.53,298.312 L256.531,298.311 Z M251.626,359.717 C216.536,359.957 181.126,363.273 150.001,370.122 C153.587,378.286 157.619,386.448 162.031,394.56 C190.396,392.105 221.086,390.883 251.501,390.778 C254.264,390.77 257.026,390.771 259.781,390.778 C293.323,390.885 326.227,392.338 355.001,394.936 C359.041,386.921 362.636,378.833 365.814,370.748 C333.164,363.356 292.629,359.436 251.626,359.718 L251.626,359.717 Z M251.563,409.527 C224.721,409.617 197.699,410.563 172.438,412.467 C177.955,421.347 183.911,430.119 190.251,438.684 C195.083,439.786 204.069,441.016 215.595,441.716 C228.795,442.516 244.657,442.853 260.407,442.776 C276.157,442.702 291.817,442.211 304.627,441.371 C315.55,440.655 323.861,439.523 328.095,438.651 C334.3,430.225 339.975,421.584 345.157,412.841 C316.665,410.574 284.252,409.419 251.563,409.527 L251.563,409.527 Z"></path>
</svg>