<?xml version="1.0" encoding="UTF-8"?>
<svg viewBox="0 0 512 512" version="1.1" xmlns="http://www.w3.org/2000/svg" xmlns:xlink="http://www.w3.org/1999/xlink">
  <title>attributes</title>
  <path d="M256,23 C185.955,23 123.085,53.997 80.354,103 L63,103 L63,125.514 C37.756,162.755 23,207.67 23,256 C23,304.329 37.756,349.245 63,386.486 L63,489 L449,489 L449,386.486 C474.244,349.245 489,304.329 489,256 C489,207.671 474.244,162.755 449,125.514 L449,103 L431.646,103 C388.916,53.997 326.045,23 256,23 Z M256,41 C314.943,41 368.296,64.66 407.113,103 L104.887,103 C143.704,64.66 197.057,41 256,41 Z M103.365,121 L248.566,121 C245.792,122.54 243.134,124.983 240.707,128.396 C236.169,134.778 233,144.303 233,155 C233,165.697 236.17,175.222 240.707,181.604 C245.245,187.984 250.583,191 256,191 C261.417,191 266.755,187.985 271.293,181.604 C275.831,175.222 279,165.697 279,155 C279,144.303 275.83,134.778 271.293,128.396 C268.866,124.983 266.208,122.541 263.433,121 L408.635,121 L308.199,183 L344.574,183 L430.322,130.062 C430.547,130.374 430.777,130.682 431,130.994 L431,201 L277.562,201 C271.45,205.924 264.075,209 256,209 C247.925,209 240.55,205.924 234.437,201 L81,201 L81,130.994 C81.223,130.682 81.453,130.374 81.678,130.063 L167.426,183 L203.8,183 L103.364,121 L103.365,121 Z M63,161.098 L63,350.902 C48.92,322.287 41,290.08 41,256 C41,221.92 48.92,189.713 63,161.098 Z M449,161.098 C463.08,189.713 471,221.92 471,256 C471,290.08 463.08,322.287 449,350.902 L449,161.098 Z M81,223 L217,223 L217,467.47 C197.073357,463.82743 177.766476,457.367672 159.66,448.285 L199,389.275 L199,349.195 L139.385,436.703 C116.595089,421.972674 96.7873357,403.076854 81,381.006 L81,223 L81,223 Z M295,223 L431,223 L431,381.006 C415.212664,403.076854 395.404911,421.972674 372.615,436.703 L313,349.195 L313,389.275 L352.34,448.285 C334.233577,457.368018 314.926694,463.828113 295,467.471 L295,223 L295,223 Z M247,320 L265,320 L265,470.799 C262.001693,470.927628 259.00106,470.994642 256,471 C252.984,471 249.986,470.921 247,470.799 L247,320 Z M81,409.729 C104.202,436.115 133.264,457.223 166.148,471 L81,471 L81,409.729 Z M431,409.729 L431,471 L345.852,471 C378.736,457.223 407.798,436.115 431,409.729 Z"></path>
</svg>