<?xml version="1.0" encoding="UTF-8"?>
<svg viewBox="0 0 512 512" version="1.1" xmlns="http://www.w3.org/2000/svg" xmlns:xlink="http://www.w3.org/1999/xlink">
  <path d="M27.467,15.344 C90.416,40.766 136.294,76.657 143.313,147.374 L143.313,147.562 C195.623,177.694 235.918,220.1 247.593,267.5 C249.385,274.772 250.433,282.137 250.719,289.53 C282.456,286.247 314.719,268.595 338.562,242.906 C364.982,214.439 380.618,176.996 375.405,139.876 C360.2,141.793 344.55,140.798 328.905,137.562 C278.623,127.164 227.205,94.588 180.343,59.687 C175.553,55.477 170.413,51.603 164.937,48.031 C130.15,25.341 82.073,15.344 27.467,15.344 L27.467,15.344 Z M234.687,41.25 L218.967,64.25 C238.197,77.357 257.759,89.345 277.093,98.97 L290.53,79.72 C278.124,60.946 255.544,47.357 234.688,41.25 L234.687,41.25 Z M474.062,62.625 C457.176,94.089 437.027,115.25 414.342,127.5 C407.64,131.12 400.769,133.934 393.749,136.03 C400.419,180.057 382.003,223.535 352.249,255.594 C324.974,284.981 287.825,305.541 249.719,308.438 C245.237,339.918 226.311,371.296 189.969,398.75 C230.712,407.914 268.711,407.8 303.405,400.656 L311.125,351.626 L314.062,333.031 L327.092,346.626 L359,379.875 C386.795,363.122 423.71,335.567 442.22,311.969 L413.31,262 L401.842,242.22 L423.872,248.313 L471.81,261.563 C485.042,237.698 493.137,201.036 493.281956,162.688 C493.41,127.833 487.06,91.808 474.06,62.625 L474.062,62.625 Z M146.092,170.969 L20.564,354.75 L21.376,465.375 L196.906,213.875 C183.126,198.263 165.852,183.685 146.096,170.969 L146.092,170.969 Z"></path>
</svg>