<?xml version="1.0" encoding="UTF-8"?>
<svg viewBox="0 0 512 512" version="1.1" xmlns="http://www.w3.org/2000/svg" xmlns:xlink="http://www.w3.org/1999/xlink">
  <title>background</title>
  <path d="M311.9,47.95 C294.3,47.95 277.3,48.65 261.2,50.38 L244.6,93.5 L239.7,53.46 C237.2,53.92 234.7,54.4 232.2,54.93 C223.1,56.87 217.1,62.15 211.9,69.8 C206.7,77.45 203,87.3 199.8,96.4 C191,121.5 184,148 178.4,175 C184.4,180.1 190.4,185.3 196.3,190.4 L227,172.8 L260.8,198.9 L312.7,179.2 L373.7,203.7 L366.9,220.4 L312.5,198.6 L257.8,219.3 L225.6,194.4 L210.7,202.9 C230.3,220.2 249.3,237.3 267.2,254.1 L281.2,247.7 L315.1,263.8 L346.3,250.7 L370.5,274 L358.1,287 L342.3,271.9 L314.7,283.6 L281.7,267.8 C288.6,274.5 295.3,281 301.8,287.5 L303.5,289.3 L323,365.6 L315.2,359.9 L262.2,360.3 L224.1,342.5 L181.7,357.1 L175.9,340.1 L225.1,323.1 L266.2,342.3 L290.9,342.1 L220.2,290.4 C200.5,295 180.8,293.2 162.1,286.7 C157.9,331.1 156.2,372.4 155.1,405.4 C154.7,416.1 157.8,428.4 162.6,437.9 C167.5,447.4 174.3,453.3 177.6,454 C182.8,455.2 196.6,457.2 215.3,459.1 L227.7,420.1 L246.8,461.8 C263.5,463 281.8,463.8 300.3,464 C328.5,464.3 357.4,463.1 382.3,459.3 C398.1,457 411.9,453.3 423,448.9 C411.2,443.8 401.4,438.3 393.9,432.3 C382.8,423.4 375.7,413 376.6,401.4 L376.6,401.6 C382,305.2 387.4,212.8 406.9,115.6 L407,115.2 L407.1,114.8 C412.4,96.9 425,74.94 443.2,58.97 C429.3,56.91 414.6,54.97 399.5,53.31 L377.2,78.61 L375,50.91 C356,49.27 336.6,48.2 317.6,47.99 L311.9,47.99 L311.9,47.95 Z M460.4,68.39 C455.7,72.08 451.2,76.42 447.1,81.12 C459.2,89.3 468.5,104.5 468.9,118.1 C469.2,125.9 467,133 461.2,139.5 C455.4,145.9 445.6,151.9 429.6,155.3 L433.4,172.9 C452,168.9 465.7,161.4 474.6,151.5 C483.6,141.6 487.3,129.3 486.9,117.5 C486.3,98.2 475.8,79.91 460.4,68.39 Z M25.44,71.91 C25.2,73.52 25.06,75.34 25.06,77.53 C25.16,85.22 27.09,95.7 30.89,107.7 C34.3,118.4 39.16,130.2 45.24,142.5 C55.87,137.2 65.83,131.5 73.65,124.4 C69.23,136.9 63.5,149.1 55.05,160.9 C59.19,168.1 63.68,175.3 68.5,182.4 C79.14,177.1 89.22,169.4 98.02,156.3 C94.72,172.3 89.55,186.9 79.75,198.1 C86.28,206.6 93.25,214.9 100.5,222.6 C109.2,213.3 116.1,201.6 121.2,187.7 C125,206.2 123.8,223 115.5,237.1 C123.5,244.3 131.8,250.8 140.3,256.2 C146.4,242.2 149.2,225.6 148.8,206.5 C158,230.2 160.1,249.4 158.4,266 C178.6,275.2 199.2,278 219.7,272.1 L223.9,270.8 L293.2,321.4 L287.3,298.6 C214.3,225.8 111.9,141.9 25.44,71.91 L25.44,71.91 Z M312.8,123.9 L346,137.7 L377.3,127.8 L382.7,145 L345.2,156.9 L311.6,142.9 L282.8,151 L278,133.6 L312.8,123.9 Z M420.1,360.1 C419.4,360.1 418.8,360.2 418.1,360.2 C414.6,360.3 410.9,360.7 407,361.5 L410.4,379.1 C422.6,376.8 430.4,378.7 434.9,381.6 C439.3,384.5 441.2,388.4 441.3,394.1 C441.4,403.4 434.3,417.1 418,426.6 C423.4,429.5 429.9,432.5 437.3,435.3 C451.7,423.7 459.4,408.5 459.3,393.9 C459.2,383.2 454.1,372.7 444.7,366.5 C438,362.2 429.7,360 420.1,360.1 L420.1,360.1 Z"></path>
</svg>