<?xml version="1.0" encoding="UTF-8"?>
<svg width="512px" height="512px" viewBox="0 0 512 512" version="1.1" xmlns="http://www.w3.org/2000/svg" xmlns:xlink="http://www.w3.org/1999/xlink">
    <title>fast-backward-button</title>
    <g id="Page-1" stroke="none" stroke-width="1" fill="none" fill-rule="evenodd">
        <path d="M467.4,105.999809 C474.855144,106.025722 481.940567,109.250451 486.85661,114.855123 C491.772654,120.459795 494.04628,127.905111 493.1,135.3 C477.1,259.3 477.1,252.7 493.1,376.7 C494.280054,385.909366 490.459622,395.049107 483.076675,400.679119 C475.693728,406.309132 465.868842,407.574899 457.3,404 L318.6,346.3 C319.8,355.8 321,365.2 322.5,376.7 C325,396.5 305.2,411.7 286.7,404 L34.72,280 C25.02,276 18.72,266.5 18.72,256 C18.72,245.5 25.02,236 34.72,232 L286.7,108 C289.9,106.7 293.3,105.999809 296.8,105.999809 C312.4,106.1 324.5,119.8 322.5,135.3 C321,146.8 319.8,156.2 318.6,165.7 L457.3,108 C460.499685,106.666726 463.933673,105.986729 467.4,105.999809 L467.4,105.999809 Z" id="Path" fill="#FFFFFF" fill-rule="nonzero"></path>
    </g>
</svg>