<?xml version="1.0" encoding="UTF-8"?>
<svg viewBox="0 0 359 350" version="1.1" xmlns="http://www.w3.org/2000/svg" xmlns:xlink="http://www.w3.org/1999/xlink">
  <title>blade</title>
  <path d="M183.573588,155.742996 C156.263727,176.274094 136.140657,198.340917 123.204378,221.943465 C103.799958,257.347287 97.0332072,278.864612 99.3305611,317.490263 C85.4701867,305.285628 69.4774001,290.780691 51.3522013,273.975453 C63.5302283,260.779202 79.5230149,248.808142 99.3305611,238.062271 C90.8534463,237.863859 80.9733379,240.056256 69.6902359,244.639462 C77.9227876,227.94767 94.4915794,214.499207 119.396611,204.294073 C109.868451,202.761407 101.150491,204.102276 93.2427309,208.316681 C105.523491,191.901949 119.458613,179.420174 135.048099,170.871357 C150.637584,162.32254 166.812747,157.279753 183.573588,155.742996 Z M292.199079,33 C307.952955,59.6962538 310.063374,92.9970289 298.530338,132.902325 C286.997301,172.807622 257.677479,204.532895 210.570872,228.078146 C228.045899,189.142102 227.404979,163.489197 208.648111,151.119431 C189.891244,138.749664 161.344493,143.943863 123.00786,166.702028 C141.565506,136.783497 149.811117,113.802372 147.744692,97.7586549 C145.678267,81.7149376 139.143711,68.3939233 128.141026,57.7956121 C170.572832,79.1426827 204.234179,89.8162179 229.125068,89.8162179 C211.159103,97.1182334 192.305406,100.338552 172.563977,99.477173 C192.27231,106.601388 215.794933,106.028548 243.131845,97.7586549 C270.468758,89.4887614 286.824502,67.9025431 292.199079,33 Z"></path>
</svg>