<?xml version="1.0" encoding="UTF-8"?>
<svg viewBox="0 0 359 350" version="1.1" xmlns="http://www.w3.org/2000/svg" xmlns:xlink="http://www.w3.org/1999/xlink">
  <title>bone</title>
  <path d="M278.109682,51 C284.605085,64.4309986 288.300377,79.8681472 288.300377,96.288686 C288.300377,116.849706 282.50658,135.868881 272.677693,151.342352 C260.818147,152.120827 246.745198,156.524827 233.032428,164.441899 C216.617355,173.919146 204.303882,186.360421 198.465262,198.039083 C208.237657,200.480944 220.047811,198.828298 230.774098,192.635474 C235.07757,190.150863 238.835365,187.149747 241.971609,183.821107 C239.383183,193.545313 235.151401,200.357772 229.275397,204.258144 C222.144408,208.991548 212.835895,211.148811 201.349856,210.729932 L200.182552,210.636673 L200.182552,210.636673 L199.046184,210.556335 L199.046184,210.556335 L197.94075,210.488918 L197.94075,210.488918 L196.866252,210.434421 L196.866252,210.434421 L195.822689,210.392846 L195.822689,210.392846 L194.810062,210.364192 L194.810062,210.364192 L193.828369,210.348458 C193.345257,210.343822 192.873745,210.34403 192.413834,210.349085 L191.50948,210.365654 L191.50948,210.365654 L190.636061,210.395143 L190.636061,210.395143 L189.793577,210.437554 C189.655741,210.445699 189.519194,210.454383 189.383936,210.463605 L188.587855,210.525397 C185.465401,210.798408 183.085393,211.381521 181.447831,212.274736 L181.234715,212.396994 L181.234715,212.396994 L181.004757,212.540464 L181.004757,212.540464 L180.757957,212.705145 L180.757957,212.705145 L180.494315,212.891039 L180.494315,212.891039 L180.067274,213.209652 L180.067274,213.209652 L179.602339,213.575991 L179.602339,213.575991 L179.27133,213.846732 L179.27133,213.846732 L178.743238,214.292617 L178.743238,214.292617 L178.177251,214.786228 L178.177251,214.786228 L177.573371,215.327565 L177.573371,215.327565 L176.709251,216.12359 L176.709251,216.12359 L175.777763,217.004463 L175.777763,217.004463 L174.778908,217.970184 L174.778908,217.970184 L173.435604,219.296651 L173.435604,219.296651 L172.285172,220.453279 L172.285172,220.453279 L171.067373,221.694754 L171.067373,221.694754 L169.782207,223.021077 L169.782207,223.021077 L167.728144,225.16965 L167.728144,225.16965 L166.644271,226.315527 L166.644271,226.315527 L165.140161,227.917605 L165.140161,227.917605 L163.165288,230.039519 L163.165288,230.039519 L161.085153,232.294007 L161.085153,232.294007 L158.450046,235.174391 L158.450046,235.174391 L155.663363,238.245682 L155.663363,238.245682 L151.199132,243.21057 L151.199132,243.21057 L150.160765,244.372211 L150.160765,244.372211 L147.834374,246.820856 L147.834374,246.820856 L145.602938,249.187643 L145.602938,249.187643 L143.466456,251.472571 L143.466456,251.472571 L141.424929,253.67564 L141.424929,253.67564 L139.478357,255.79685 L139.478357,255.79685 L137.62674,257.836201 L137.62674,257.836201 L136.300341,259.311994 L136.300341,259.311994 L135.027354,260.741742 L135.027354,260.741742 L134.208369,261.669326 L134.208369,261.669326 L133.413123,262.576446 L133.413123,262.576446 L131.893847,264.329291 L131.893847,264.329291 L130.816705,265.590205 L130.816705,265.590205 L130.128283,266.405233 L130.128283,266.405233 L129.14016,267.589404 L129.14016,267.589404 L128.511085,268.353271 L128.511085,268.353271 L127.905748,269.096673 L127.905748,269.096673 L127.324151,269.81961 L127.324151,269.81961 L126.496264,270.865644 L126.496264,270.865644 L125.974013,271.537419 L125.974013,271.537419 L125.235146,272.506711 L125.235146,272.506711 L124.772242,273.127324 L124.772242,273.127324 L124.333076,273.727473 L124.333076,273.727473 L123.917649,274.307157 L123.917649,274.307157 L123.525961,274.866376 L123.525961,274.866376 L123.158011,275.405131 L123.158011,275.405131 L122.813801,275.923421 L122.813801,275.923421 L122.493328,276.421246 L122.493328,276.421246 L122.196595,276.898606 C122.149117,276.976461 122.102629,277.053463 122.05713,277.129612 L121.796004,277.576276 C121.754462,277.649014 121.713908,277.7209 121.674344,277.791933 L121.448826,278.207899 C120.807882,279.425101 120.487409,280.366029 120.487409,281.030683 C120.487409,282.12028 120.588225,283.309356 120.71266,284.539125 L120.939208,286.72109 L120.939208,286.72109 L120.999927,287.349971 L121.074631,288.226173 L121.074631,288.226173 L121.132385,289.096835 L121.132385,289.096835 L121.158595,289.672009 L121.158595,289.672009 L121.172957,290.241435 C121.216197,293.355059 120.643495,296.148225 118.162515,297.6368 C114.90871,299.589065 111.75659,299.40824 109.126115,298.556883 L108.653688,298.395027 C108.342694,298.282632 108.039738,298.161687 107.745568,298.034798 L107.310996,297.840331 L107.310996,297.840331 L106.890164,297.6389 L106.890164,297.6389 L106.483633,297.43246 L106.483633,297.43246 L106.091964,297.222962 L106.091964,297.222962 L105.715718,297.012362 L105.715718,297.012362 L105.360085,296.805051 L105.360085,296.805051 L104.763163,296.441247 L104.763163,296.441247 L101.761416,294.545637 L101.761416,294.545637 L100.432098,293.717993 L100.432098,293.717993 L99.379536,293.077019 L99.379536,293.077019 L98.2925046,292.43211 L98.2925046,292.43211 L97.5545186,292.005949 C97.4308781,291.935422 97.3069651,291.865195 97.1828526,291.795343 L96.4363688,291.381317 C96.187133,291.245203 95.9376845,291.111183 95.6886082,290.979853 L94.9430817,290.594529 C92.4656172,289.340992 90.0838981,288.416084 88.3830469,288.416084 C84.7748125,288.416084 82.6229173,291.103455 81.1115273,295.720213 L80.9093221,296.361659 C80.7770632,296.797167 80.6497913,297.248336 80.5268934,297.714596 L80.3457504,298.425233 L80.3457504,298.425233 L80.1707087,299.15808 C80.1133272,299.406017 80.0568861,299.657583 80.0013085,299.912709 C74.0669551,294.418968 71.186375,287.702992 71.3595682,279.764781 C72.2047274,272.464349 77.2224341,268.758827 86.4126882,268.648215 L87.6811863,268.643025 L87.6811863,268.643025 L88.5032699,268.634266 L88.5032699,268.634266 L89.3077698,268.618117 C89.4404824,268.614739 89.5725332,268.611 89.7039578,268.606874 L90.4852741,268.577258 L90.4852741,268.577258 L91.2532627,268.537077 L91.2532627,268.537077 L92.0096261,268.485063 C99.6459947,267.891786 105.743915,265.266884 118.353801,254.606935 L119.615402,253.532291 C119.829263,253.348795 120.044946,253.163086 120.262485,252.975138 L121.59028,251.820377 C121.815387,251.623368 122.042421,251.424069 122.271418,251.222451 L123.669237,249.984714 L123.669237,249.984714 L125.115868,248.690075 L125.115868,248.690075 L126.613013,247.337262 L126.613013,247.337262 L128.162373,245.925008 L128.162373,245.925008 L129.765652,244.452041 L129.765652,244.452041 L131.424552,242.917093 L131.424552,242.917093 L133.140775,241.318894 L133.140775,241.318894 L134.916024,239.656174 L134.916024,239.656174 L137.693294,237.038341 L137.693294,237.038341 L144.552575,230.528007 L144.552575,230.528007 L153.489537,221.999752 L153.489537,221.999752 L160.419087,215.342854 L160.419087,215.342854 L163.954468,211.927919 L163.954468,211.927919 L168.399978,207.611959 L168.399978,207.611959 L172.538823,203.567184 L172.538823,203.567184 L175.908752,200.250461 L175.908752,200.250461 L178.610388,197.57281 L178.610388,197.57281 L181.139526,195.047699 L181.139526,195.047699 L184.243379,191.918172 L184.243379,191.918172 L185.680306,190.455102 L185.680306,190.455102 C181.444978,192.242042 177.72635,192.404351 174.524419,190.94203 L173.887437,191.585895 L173.887437,191.585895 L172.552081,192.907869 L172.552081,192.907869 L170.704456,194.716247 L170.704456,194.716247 L168.391699,196.963795 L168.391699,196.963795 L164.918476,200.318857 L164.918476,200.318857 L161.731526,203.381841 L161.731526,203.381841 L157.31471,207.606749 L157.31471,207.606749 L152.502572,212.185752 L152.502572,212.185752 L148.430098,216.041909 L148.430098,216.041909 L143.138389,221.025806 L143.138389,221.025806 L139.891456,224.068027 L139.891456,224.068027 L136.614897,227.124805 L136.614897,227.124805 L133.3286,230.176214 C132.963652,230.514223 132.598891,230.851764 132.234441,231.188713 L128.966094,234.201966 L128.966094,234.201966 L125.734411,237.163355 L125.734411,237.163355 L123.610145,239.09896 L123.610145,239.09896 L121.516905,240.996754 L121.516905,240.996754 L119.460583,242.850833 L119.460583,242.850833 L117.447071,244.655292 L117.447071,244.655292 L115.482262,246.404227 L115.482262,246.404227 L113.572049,248.091735 L113.572049,248.091735 L111.722323,249.71191 C103.543492,256.842347 97.3809514,261.748236 95.6509301,262.008506 C94.9942934,262.107292 94.2677931,262.183211 93.4714292,262.236261 L92.771722,262.276133 C92.4133137,262.293269 92.0420734,262.306205 91.6580009,262.31494 L90.8727464,262.326811 L90.8727464,262.326811 L90.0532731,262.327481 L90.0532731,262.327481 L89.1995808,262.31695 L89.1995808,262.31695 L88.3116696,262.295219 L88.3116696,262.295219 L87.3895395,262.262288 L87.3895395,262.262288 L86.4331905,262.218155 L86.4331905,262.218155 L85.4426225,262.162823 L85.4426225,262.162823 L84.4178357,262.096289 C84.2441863,262.084267 84.0691111,262.071778 83.8926101,262.058823 L82.8164949,261.975488 L82.8164949,261.975488 L81.7061607,261.880954 L81.7061607,261.880954 L80.5616076,261.775219 L80.5616076,261.775219 L79.3828356,261.658283 L79.3828356,261.658283 L78.1698447,261.530147 L78.1698447,261.530147 L76.9226348,261.39081 C76.7119149,261.366654 76.4997692,261.342031 76.2861978,261.316941 C77.0113186,255.24694 80.9557685,252.811721 88.118073,254.010472 L92.0993483,250.770382 L92.0993483,250.770382 L95.2463473,248.228264 L95.2463473,248.228264 L98.8178698,245.367272 L98.8178698,245.367272 L102.165891,242.71306 L102.165891,242.71306 L104.785178,240.659175 L104.785178,240.659175 L106.768857,239.119458 L106.768857,239.119458 L108.653202,237.671643 L108.653202,237.671643 L110.868945,235.991113 L110.868945,235.991113 L112.529789,234.750079 L112.529789,234.750079 L113.710233,233.879615 L113.710233,233.879615 L114.623426,233.209604 L114.623426,233.209604 L115.485805,232.56451 L115.485805,232.56451 L116.748346,231.6019 L116.748346,231.6019 L117.773849,230.808014 L117.773849,230.808014 L118.861639,229.956706 L118.861639,229.956706 L120.401012,228.738887 L120.401012,228.738887 L122.032145,227.43478 L122.032145,227.43478 L124.183584,225.697055 L124.183584,225.697055 L125.981539,224.231802 L125.981539,224.231802 L129.257453,221.535996 L129.257453,221.535996 L131.184766,219.935841 L131.184766,219.935841 L134.122431,217.478182 L134.122431,217.478182 L136.589997,215.396884 L136.589997,215.396884 L139.761536,212.698886 L139.761536,212.698886 L142.69982,210.17495 L142.69982,210.17495 L145.552814,207.699235 L145.552814,207.699235 L147.837817,205.695737 L147.837817,205.695737 L149.589488,204.145095 L149.589488,204.145095 L151.261145,202.650941 L151.261145,202.650941 L152.455624,201.573019 L152.455624,201.573019 L154.319502,199.869489 L154.319502,199.869489 L155.016538,199.224038 L155.016538,199.224038 L156.005724,198.298043 L156.005724,198.298043 L156.923059,197.42617 L156.923059,197.42617 L157.763806,196.612365 L157.763806,196.612365 L158.279415,196.104034 L158.279415,196.104034 L158.523226,195.86057 C162.449108,191.922119 165.366694,187.568701 167.732487,183.352764 L168.312703,182.301963 C168.692203,181.603765 169.057431,180.910665 169.410502,180.22522 L169.931255,179.203114 L169.931255,179.203114 L170.681658,177.695681 L170.681658,177.695681 L172.540254,173.872508 L172.540254,173.872508 L173.199054,172.531024 L173.199054,172.531024 L173.63098,171.669837 C173.702592,171.528648 173.774039,171.388657 173.845354,171.249904 L174.271918,170.432557 C174.342835,170.298915 174.413686,170.16659 174.484503,170.035623 C176.939508,165.49543 181.583465,164.183253 188.416374,166.099091 L188.87379,165.853819 C188.951561,165.81085 189.030101,165.766836 189.109409,165.721777 L189.594469,165.438884 L189.594469,165.438884 L190.097959,165.130909 L190.097959,165.130909 L190.61988,164.797854 L190.61988,164.797854 L191.16023,164.439717 L191.16023,164.439717 L191.71901,164.0565 L191.71901,164.0565 L192.296221,163.648201 L192.296221,163.648201 L192.891861,163.214821 C192.992671,163.140501 193.094248,163.065136 193.196593,162.988726 L193.819878,162.517725 C193.925295,162.437135 194.03148,162.3555 194.138432,162.272819 L194.789363,161.764197 L194.789363,161.764197 L195.458723,161.230493 L195.458723,161.230493 L196.146514,160.671709 L196.146514,160.671709 L196.852734,160.087843 L196.852734,160.087843 L197.577385,159.478897 L197.577385,159.478897 L198.320465,158.844869 L198.320465,158.844869 L199.081976,158.185761 L199.081976,158.185761 L200.258798,157.150071 L200.258798,157.150071 L201.066384,156.42826 L201.066384,156.42826 L201.892399,155.681368 L201.892399,155.681368 L203.165979,154.514003 L203.165979,154.514003 L204.481026,153.290206 L204.481026,153.290206 L205.837541,152.009976 L205.837541,152.009976 L207.235524,150.673315 L207.235524,150.673315 L208.19055,149.750856 L208.19055,149.750856 L209.657644,148.32014 L209.657644,148.32014 L210.658745,147.334979 L210.658745,147.334979 L212.194953,145.81021 L212.194953,145.81021 L213.893056,144.107709 L213.893056,144.107709 L215.780859,142.195724 L215.780859,142.195724 L217.070462,140.878786 L217.070462,140.878786 L219.05147,138.83996 L219.05147,138.83996 L221.0884,136.72503 L221.0884,136.72503 L222.477422,135.272796 L222.477422,135.272796 L224.607558,133.031025 L224.607558,133.031025 L226.793616,130.71315 L226.793616,130.71315 L229.035598,128.31917 L229.035598,128.31917 L231.333502,125.849087 L231.333502,125.849087 L232.896507,124.160084 L232.896507,124.160084 L235.287616,121.56316 C235.556401,121.270385 235.826223,120.9762 236.097079,120.680606 C254.227379,100.894493 268.23158,77.667624 278.109682,51 Z M197.972037,217.01666 L201.473174,220.380062 L201.473174,220.380062 L207.00209,225.670132 L207.00209,225.670132 L214.891316,233.180841 L214.891316,233.180841 L218.959285,237.038341 L218.959285,237.038341 L220.826264,238.800222 L220.826264,238.800222 L223.511804,241.318894 L223.511804,241.318894 L225.228027,242.917093 L225.228027,242.917093 L226.886926,244.452041 L226.886926,244.452041 L228.490205,245.925008 L228.490205,245.925008 L230.039566,247.337262 L230.039566,247.337262 L231.53671,248.690075 L231.53671,248.690075 L232.983341,249.984714 L232.983341,249.984714 L234.381161,251.222451 C234.610158,251.424069 234.837192,251.623368 235.062299,251.820377 L236.390094,252.975138 L236.390094,252.975138 L237.673334,254.076171 L237.673334,254.076171 L238.913722,255.124743 C241.149524,256.999814 243.177862,258.6168 245.04594,260.010905 L246.049283,260.749434 C253.788745,266.364743 258.759193,268.027948 264.642953,268.485063 L265.399316,268.537077 L265.399316,268.537077 L266.167305,268.577258 L266.167305,268.577258 L266.948621,268.606874 L266.948621,268.606874 L267.744967,268.627195 L267.744967,268.627195 L268.971392,268.643025 L268.971392,268.643025 L269.812762,268.645662 C279.274766,268.645662 284.434849,272.352035 285.29301,279.764781 C285.466204,287.702992 282.585624,294.418968 276.65127,299.912709 L276.48187,299.15808 L276.48187,299.15808 L276.306828,298.425233 L276.306828,298.425233 L276.125685,297.714596 C274.589461,291.886346 272.369798,288.416084 268.269532,288.416084 C266.398595,288.416084 263.703809,289.535223 260.96397,290.979853 L260.21621,291.381317 L260.21621,291.381317 L259.469726,291.795343 L259.469726,291.795343 L258.72803,292.218354 L258.72803,292.218354 L257.994632,292.646771 L257.994632,292.646771 L257.273043,293.077019 L257.273043,293.077019 L256.566773,293.505518 L256.566773,293.505518 L254.891163,294.545637 L254.891163,294.545637 L252.112433,296.302409 L252.112433,296.302409 L251.479007,296.693016 L251.479007,296.693016 L251.119025,296.907259 L251.119025,296.907259 L250.560615,297.222962 L250.560615,297.222962 L250.168946,297.43246 L250.168946,297.43246 L249.762415,297.6389 L249.762415,297.6389 L249.341583,297.840331 L249.341583,297.840331 L248.907011,298.034798 C248.833468,298.06652 248.759376,298.097871 248.684747,298.12881 L248.230617,298.309168 C248.153885,298.338295 248.076639,298.366928 247.99889,298.395027 L247.526464,298.556883 C244.895989,299.40824 241.743869,299.589065 238.490064,297.6368 C235.858721,296.058008 235.373972,293.011702 235.493983,289.672009 L235.520193,289.096835 C235.525453,289.000567 235.531134,288.904114 235.537202,288.807504 L235.577948,288.226173 L235.577948,288.226173 L235.626227,287.64238 L235.626227,287.64238 L235.745202,286.406948 L235.939919,284.539125 C236.064353,283.309356 236.165169,282.12028 236.165169,281.030683 C236.165169,280.402954 235.879316,279.528796 235.307609,278.408208 L235.093961,278.002474 L235.093961,278.002474 L234.856574,277.576276 L234.856574,277.576276 L234.595449,277.129612 L234.595449,277.129612 L234.310584,276.662484 L234.310584,276.662484 L234.001982,276.174891 C233.94857,276.091921 233.894168,276.008097 233.838778,275.923421 L233.494567,275.405131 L233.494567,275.405131 L233.126618,274.866376 L233.126618,274.866376 L232.734929,274.307157 L232.734929,274.307157 L232.319502,273.727473 L232.319502,273.727473 L231.651852,272.819576 L231.651852,272.819576 L230.930789,271.865633 L230.930789,271.865633 L230.420407,271.20409 L230.420407,271.20409 L229.610325,270.173404 C229.517348,270.056325 229.423383,269.938394 229.328428,269.81961 L228.74683,269.096673 L228.74683,269.096673 L228.141494,268.353271 L228.141494,268.353271 L227.512419,267.589404 L227.512419,267.589404 L226.859605,266.805073 L226.859605,266.805073 L225.835874,265.590205 L225.835874,265.590205 L224.758731,264.329291 L224.758731,264.329291 L223.239455,262.576446 L223.239455,262.576446 L222.037684,261.208092 L222.037684,261.208092 L220.782501,259.793693 L220.782501,259.793693 L219.473906,258.333248 L219.473906,258.333248 L217.646028,256.314362 L217.646028,256.314362 L216.212805,254.746477 L216.212805,254.746477 L214.218755,252.584338 L214.218755,252.584338 L212.129751,250.340339 L212.129751,250.340339 L210.500684,248.603621 L210.500684,248.603621 L208.245509,246.216369 L208.245509,246.216369 L206.491813,244.372211 L206.491813,244.372211 L203.154745,240.647792 L203.154745,240.647792 L200.511772,237.717813 L200.511772,237.717813 L198.487667,235.487527 L198.487667,235.487527 L196.543804,233.358304 L196.543804,233.358304 L193.778464,230.353963 L193.778464,230.353963 L191.19367,227.577016 L191.19367,227.577016 L189.177592,225.436597 L189.177592,225.436597 L187.286892,223.454089 L187.286892,223.454089 L186.212655,222.340382 L186.212655,222.340382 L185.183554,221.283523 L185.183554,221.283523 L184.199589,220.283513 L184.199589,220.283513 L182.957848,219.038597 C182.857713,218.939064 182.758414,218.840585 182.659951,218.743159 L182.69261,218.714549 C183.741143,217.8727 185.648976,217.397745 187.916978,217.147384 L188.644579,217.075623 C189.25992,217.021767 189.896565,216.982427 190.545417,216.95501 L191.329318,216.927666 L191.329318,216.927666 L192.121444,216.910773 L192.121444,216.910773 L192.918305,216.903335 L192.918305,216.903335 L193.716405,216.904355 L193.716405,216.904355 L194.908241,216.919566 L194.908241,216.919566 L196.083219,216.948208 L196.083219,216.948208 L197.603259,217.001479 C197.727031,217.006443 197.849981,217.01151 197.972037,217.01666 Z M218.448418,216.307985 L220.906435,216.11101 L220.906435,216.11101 L224.004206,218.714145 L224.004206,218.714145 L227.395126,221.535996 L227.395126,221.535996 L230.67104,224.231802 L230.67104,224.231802 L232.468995,225.697055 L232.468995,225.697055 L235.036226,227.768403 L235.036226,227.768403 L236.645436,229.051784 L236.645436,229.051784 L237.79094,229.956706 L237.79094,229.956706 L239.569602,231.343886 L239.569602,231.343886 L240.551039,232.097376 L240.551039,232.097376 L241.750082,233.002175 L241.750082,233.002175 L242.56128,233.600948 L242.56128,233.600948 L243.7231,234.454181 L243.7231,234.454181 L244.940795,235.359108 L244.940795,235.359108 L247.094454,236.982199 L247.094454,236.982199 L248.929132,238.384063 L248.929132,238.384063 L249.883721,239.119458 L249.883721,239.119458 L251.867401,240.659175 L251.867401,240.659175 L254.486688,242.71306 L254.486688,242.71306 L256.693868,244.459559 L256.693868,244.459559 L260.19089,247.251624 L260.19089,247.251624 L263.911414,250.25047 L263.911414,250.25047 L267.18258,252.907466 L267.18258,252.907466 L268.534506,254.010472 L268.534506,254.010472 C275.69681,252.811721 279.64126,255.24694 280.366381,261.316941 L279.102062,261.461878 L279.102062,261.461878 L277.269743,261.658283 L277.269743,261.658283 L276.090971,261.775219 L276.090971,261.775219 L274.946418,261.880954 L274.946418,261.880954 L273.836084,261.975488 L273.836084,261.975488 L272.759968,262.058823 L272.759968,262.058823 L271.718072,262.130956 L271.718072,262.130956 L270.710395,262.191889 L270.710395,262.191889 L269.736936,262.241622 L269.736936,262.241622 L268.797697,262.280153 L268.797697,262.280153 L267.892676,262.307485 C267.744691,262.311107 267.598131,262.314262 267.452998,262.31695 L266.599306,262.327481 L266.599306,262.327481 L265.779832,262.326811 L265.779832,262.326811 L264.994578,262.31494 C264.610505,262.306205 264.239265,262.293269 263.880857,262.276133 L263.181149,262.236261 C262.384785,262.183211 261.658285,262.107292 261.001648,262.008506 C260.702465,261.963495 260.270717,261.779548 259.718903,261.469187 L259.333376,261.243688 L259.333376,261.243688 L258.913097,260.981558 C258.8402,260.934862 258.765889,260.886675 258.690182,260.837013 L258.219317,260.521481 C258.138092,260.465988 258.055504,260.409055 257.971572,260.350699 L257.451972,259.98362 L257.451972,259.98362 L256.900911,259.583207 L256.900911,259.583207 L256.319212,259.150285 C256.219754,259.075468 256.119055,258.999331 256.01713,258.921891 L255.391016,258.44175 L255.391016,258.44175 L254.73632,257.931162 L254.73632,257.931162 L254.053867,257.39095 L254.053867,257.39095 L252.979939,256.526891 L252.979939,256.526891 L251.848183,255.600816 L251.848183,255.600816 L250.661377,254.615508 L250.661377,254.615508 L249.422296,253.57375 L249.422296,253.57375 L247.693674,252.101737 L247.693674,252.101737 L245.883639,250.540911 L245.883639,250.540911 L243.998776,248.897867 L243.998776,248.897867 L242.045667,247.179202 L242.045667,247.179202 L239.518337,244.934575 L239.518337,244.934575 L236.376462,242.116797 L236.376462,242.116797 L232.588624,238.686241 L232.588624,238.686241 L229.820891,236.160012 L229.820891,236.160012 L224.753845,231.499002 L224.753845,231.499002 L220.209214,227.284446 L220.209214,227.284446 L217.740033,224.98271 L214.294444,221.758007 L214.294444,221.758007 L210.898898,218.566515 C210.338453,218.038679 209.781073,217.513209 209.227251,216.990598 L212.152789,216.787748 L212.152789,216.787748 L218.448418,216.307985 L218.448418,216.307985 Z M114.68097,183.821107 C117.817213,187.149747 121.575008,190.150863 125.878481,192.635474 C132.618772,196.526982 139.787054,198.625693 146.608743,199.042192 C143.402534,202.109997 139.870604,205.22828 136.013248,208.396374 C132.846264,207.357563 129.968006,205.97788 127.377182,204.258144 C121.501177,200.357772 117.269395,193.545313 114.68097,183.821107 Z M78.5428962,51 C88.4209986,77.667624 102.4252,100.894493 120.555499,120.680606 L122.965249,123.302899 L122.965249,123.302899 L125.319076,125.849087 L125.319076,125.849087 L127.616981,128.31917 L127.616981,128.31917 L129.858962,130.71315 L129.858962,130.71315 L132.045021,133.031025 L132.045021,133.031025 L134.175156,135.272796 L134.175156,135.272796 L135.564178,136.72503 L135.564178,136.72503 L137.601109,138.83996 L137.601109,138.83996 L139.582117,140.878786 L139.582117,140.878786 L140.87172,142.195724 L140.87172,142.195724 L142.759523,144.107709 L142.759523,144.107709 L143.376363,144.728126 L144.974302,146.324736 L144.974302,146.324736 L146.496687,147.830695 L146.496687,147.830695 L148.462029,149.750856 L148.462029,149.750856 L149.887657,151.125139 L149.887657,151.125139 L150.815037,152.009976 L150.815037,152.009976 L151.723988,152.869733 L151.723988,152.869733 L153.052858,154.112341 L153.052858,154.112341 L154.34026,155.298516 L154.34026,155.298516 L155.586195,156.42826 L155.586195,156.42826 L156.39378,157.150071 L156.39378,157.150071 L157.182936,157.846801 L157.182936,157.846801 L158.332113,158.844869 L158.332113,158.844869 L159.075194,159.478897 L159.075194,159.478897 L159.799844,160.087843 L159.799844,160.087843 L160.506065,160.671709 L160.506065,160.671709 L161.193855,161.230493 L161.193855,161.230493 L161.863216,161.764197 L161.863216,161.764197 L162.514146,162.272819 L162.514146,162.272819 L163.146647,162.756361 C163.250528,162.834861 163.353641,162.912316 163.455986,162.988726 L164.060841,163.434646 C164.160115,163.506876 164.25862,163.578061 164.356358,163.648201 L164.933568,164.0565 L164.933568,164.0565 L165.492349,164.439717 L165.492349,164.439717 L166.032699,164.797854 L166.032699,164.797854 L166.554619,165.130909 L166.554619,165.130909 L167.05811,165.438884 L167.05811,165.438884 L167.54317,165.721777 C167.622477,165.766836 167.701017,165.81085 167.778789,165.853819 L168.236204,166.099091 L168.236204,166.099091 C168.549448,166.011262 168.858091,165.930218 169.162134,165.855957 C167.058731,173.881328 162.049031,182.350784 154.13346,191.265019 C147.477413,181.699751 136.888724,172.102513 123.62015,164.441899 C109.90738,156.524827 95.8344317,152.120827 83.9748857,151.342352 C74.1459988,135.868881 68.3522013,116.849706 68.3522013,96.288686 C68.3522013,79.8681472 72.0474939,64.4309986 78.5428962,51 Z"></path>
</svg>