<?xml version="1.0" encoding="UTF-8"?>
<svg viewBox="0 0 512 512" version="1.1" xmlns="http://www.w3.org/2000/svg" xmlns:xlink="http://www.w3.org/1999/xlink">
  <title>campfire</title>
  <path d="M281.53,23.438 C329.97,94.942 263.083,168.994 217.875,82.406 C245.17,226.908 152.655,248.753 143.125,157.156 C69.571,222.213 83.767,304.326 122.687,367.906 L168.531,341.562 C156.527,323.244 150.536,299.06 153.221,275.344 C178.909,314.774 260.076,285.432 250.345,215.406 C261.04,247.48 288.147,244.376 316.125,194.906 C278.07,297.622 337.95,364.248 378.032,333.5 C379.502,345.47 375.082,359.157 367.44,371.563 L414.408,384.093 C469.53,336.59 494.118,248.123 410.596,208.563 C449.676,269.041 397.496,313.627 349.876,250.031 C311.33,177.898 432.242,136.637 281.533,23.438 L281.53,23.438 Z M173.876,48.124 C109.748,80.457 159.234,108.634 159.846,140.468 C203.968,101.533 156.124,86.96 173.876,48.123 L173.876,48.124 Z M248.346,317.218 L75,416.874 C77.71,435.264 83.98,451.291 93.813,465.374 L185.813,421.311 L107.125,481.186 C110.515,484.566 114.158,487.806 118.063,490.936 L192.78,448 C192.757,447.262 192.72,446.525 192.72,445.78 C192.72,408.56 223.215,378.22 260.53,378.22 C271.06,378.22 281.057,380.633 289.97,384.937 C287.647,371.523 282.69,357.833 275.25,345.657 L180.312,385.781 L262.782,329.314 C258.442,324.764 253.616,320.674 248.344,317.22 L248.346,317.218 Z M307.22,374.842 C308.83,381.99 309.82,389.157 310.187,396.154 L310.407,400.092 C321.537,412.134 328.344,428.182 328.344,445.779 C328.344,453.574 326.988,461.055 324.531,468.029 L415.876,492.405 C420.518,486.078 424.464,479.637 427.72,473.03 L364.562,448.344 L434.687,455.188 C435.553,452.24 436.297,449.265 436.907,446.25 L339.844,412.03 L439,427.5 C439.156,421.728 438.897,415.83 438.187,409.78 L307.22,374.845 L307.22,374.842 Z M260.53,396.904 C233.27,396.904 211.406,418.704 211.406,445.779 C211.406,472.857 233.27,494.655 260.531,494.655 C287.794,494.655 309.657,472.857 309.657,445.78 C309.657,418.705 287.794,396.906 260.532,396.906 L260.53,396.904 Z M255.594,408.684 C299.372,408.686 314.029,480.279 255.594,480.279 C282.216,457.166 285.404,433.391 255.594,408.687 L255.594,408.684 Z M255.781,418.529 C234.165,436.445 236.477,453.706 255.781,470.469 C213.406,470.469 224.036,418.529 255.781,418.529 Z"></path>
</svg>