<?xml version="1.0" encoding="UTF-8"?>
<svg viewBox="0 0 512 512" version="1.1" xmlns="http://www.w3.org/2000/svg" xmlns:xlink="http://www.w3.org/1999/xlink">
  <title>chevron-left</title>
  <path d="M405.141369,405.99883 C412.590852,405.954705 419.664169,402.718794 424.567576,397.110474 C429.470982,391.502155 431.7335,384.060116 430.781369,376.671605 L427.656569,352.462618 L426.461369,343.129973 L425.712569,337.224397 L424.830569,330.17609 L424.830569,330.17609 L424.008569,323.475655 L423.598756,320.069826 L423.598756,320.069826 L423.205671,316.750542 L423.205671,316.750542 L422.829313,313.514198 L422.829313,313.514198 L422.469681,310.357187 L422.469681,310.357187 L422.126777,307.275903 L422.126777,307.275903 L421.8006,304.26674 C421.747631,303.771023 421.695359,303.27816 421.643784,302.788078 L421.342697,299.880335 L421.342697,299.880335 L421.058337,297.035699 L421.058337,297.035699 L420.790705,294.250562 L420.790705,294.250562 L420.539799,291.521319 C420.418528,290.170071 420.303529,288.83843 420.194804,287.524368 L419.985716,284.919084 C419.851899,283.197052 419.729234,281.503869 419.617721,279.834726 L419.458814,277.348442 C419.383542,276.113714 419.314543,274.891156 419.251817,273.67874 L419.134728,271.26683 C418.663583,260.868611 418.663583,251.1306 419.134728,240.73238 L419.251817,238.32047 C419.314543,237.108055 419.383542,235.885497 419.458814,234.650769 L419.617721,232.164484 C419.729234,230.495341 419.851899,228.802158 419.985716,227.080127 L420.194804,224.474842 C420.303529,223.160781 420.418528,221.82914 420.539799,220.477891 L420.790705,217.748648 L420.790705,217.748648 L421.058337,214.963512 L421.058337,214.963512 L421.342697,212.118875 L421.342697,212.118875 L421.643784,209.211133 L421.643784,209.211133 L421.961597,206.236678 C422.01596,205.735176 422.07102,205.230744 422.126777,204.723307 L422.469681,201.642023 L422.469681,201.642023 L422.829313,198.485012 L422.829313,198.485012 L423.205671,195.248668 L423.205671,195.248668 L423.598756,191.929385 L423.598756,191.929385 L424.008569,188.523556 L424.008569,188.523556 L424.661369,183.190253 L425.352569,177.637448 L426.082169,171.852599 L427.248569,162.712802 L430.781369,135.327605 C431.967801,126.119726 428.154993,116.977803 420.777577,111.341635 C413.400161,105.705467 403.577437,104.430174 395.005369,107.995605 L97.0053688,231.995605 C87.3138585,236.032335 81.0005683,245.501007 81.0005683,255.999605 C81.0005683,266.498203 87.3138585,275.966876 97.0053688,280.003605 L395.005369,404.003605 C398.216678,405.339462 401.663348,406.017507 405.141369,405.99883 Z"></path>
</svg>