<?xml version="1.0" encoding="UTF-8"?>
<svg viewBox="0 0 512 512" version="1.1" xmlns="http://www.w3.org/2000/svg" xmlns:xlink="http://www.w3.org/1999/xlink">
  <title>chevron-up</title>
  <path d="M105.998681,405.143683 C106.043181,412.593166 109.279093,419.666483 114.887412,424.569889 C120.495731,429.473296 127.937771,431.735813 135.326281,430.783683 L159.535268,427.658883 L168.867913,426.463683 L174.773489,425.714883 L181.821797,424.832883 L188.522232,424.010883 L191.928061,423.60107 L195.247344,423.207985 L198.483689,422.831626 L201.6407,422.471995 L204.721984,422.129091 L208.472591,421.723983 L208.472591,421.723983 L212.117552,421.345011 L214.962188,421.060651 L217.747325,420.793018 L220.476567,420.542113 C221.827816,420.420842 223.159457,420.305843 224.473519,420.197118 L227.078803,419.98803 C228.800835,419.854213 230.494018,419.731548 232.16316,419.620035 L234.649445,419.461128 C235.884173,419.385856 237.106731,419.316857 238.319147,419.254131 L240.731056,419.137041 C251.129276,418.665896 260.867287,418.665896 271.265506,419.137041 L273.677416,419.254131 C274.889832,419.316857 276.11239,419.385856 277.347118,419.461128 L279.833403,419.620035 C281.502545,419.731548 283.195728,419.854213 284.91776,419.98803 L287.523044,420.197118 C288.837106,420.305843 290.168747,420.420842 291.519996,420.542113 L294.249238,420.793018 L297.034375,421.060651 L299.879011,421.345011 L302.786754,421.646097 L306.515668,422.045978 L306.515668,422.045978 L310.355863,422.471995 L313.512874,422.831626 L316.749218,423.207985 L320.068502,423.60107 L323.474331,424.010883 L328.807633,424.663683 L334.360438,425.354883 L340.145288,426.084483 L349.285085,427.250883 L376.670281,430.783683 C385.87816,431.970115 395.020084,428.157307 400.656251,420.779891 C406.292419,413.402474 407.567713,403.579751 404.002281,395.007683 L280.002281,97.0076827 C275.965552,87.3161724 266.496879,81.0028822 255.998281,81.0028822 C245.499684,81.0028822 236.031011,87.3161724 231.994281,97.0076827 L107.994281,395.007683 C106.658424,398.218992 105.98038,401.665662 105.998681,405.143683 Z"></path>
</svg>