<?xml version="1.0" encoding="UTF-8"?>
<svg viewBox="0 0 512 512" version="1.1" xmlns="http://www.w3.org/2000/svg" xmlns:xlink="http://www.w3.org/1999/xlink">
  <title>chevron-down</title>
  <path d="M405.996321,106.856322 C405.952587,99.4068388 402.716676,92.3335221 397.108356,87.4301154 C391.500037,82.5267087 384.057998,80.2641914 376.669487,81.2163222 L352.4605,84.3411222 L352.4605,84.3411222 L343.127855,85.5363222 L343.127855,85.5363222 L337.222279,86.2851222 L337.222279,86.2851222 L331.55502,86.9955222 C330.629639,87.1107222 329.713666,87.2243222 328.806839,87.3363222 L323.473536,87.9891222 C265.968478,94.9587222 246.026496,94.9587222 188.521438,87.9891222 L183.188135,87.3363222 L183.188135,87.3363222 L177.63533,86.6451222 L177.63533,86.6451222 L171.85048,85.9155222 L171.85048,85.9155222 L162.710684,84.7491222 L162.710684,84.7491222 L135.325487,81.2163222 L135.325487,81.2163222 C126.117608,80.0298901 116.975685,83.8426981 111.339517,91.2201143 C105.703349,98.5975304 104.428056,108.420254 107.993487,116.992322 L231.993487,414.992322 C236.030216,424.683832 245.498889,430.997123 255.997487,430.997123 C266.496085,430.997123 275.964758,424.683832 280.001487,414.992322 L404.001487,116.992322 C405.337344,113.781013 406.015389,110.334343 405.996321,106.856322 Z"></path>
</svg>