<?xml version="1.0" encoding="UTF-8"?>
<svg viewBox="0 0 512 512" version="1.1" xmlns="http://www.w3.org/2000/svg" xmlns:xlink="http://www.w3.org/1999/xlink">
  <path d="M483.5,57 L473.5,87 L326.5,87 L316.5,57 L483.5,57 Z M195.5,57 L185.5,87 L38.5,87 L28.5,57 L195.5,57 Z M455.9,105 L486.1,407 L445,407 L444.8,197 L412,123.9 L379.2,197 L379,407 L361,407 L361,199 L334.7,199 L344.1,105 L455.9,105 Z M167.9,105 L177.3,199 L151,199 L151,407 L133,407 L132.8,197 L100,123.9 L67.2,197 L67,407 L25.9,407 L56.1,105 L167.9,105 Z M412,164.1 L421.4,183 L402.6,183 L412,164.1 Z M100,164.1 L109.4,183 L90.6,183 L100,164.1 Z M427,201 L427,407 L397,407 L397,201 L427,201 Z M115,201 L115,407 L85,407 L85,201 L115,201 Z M343,217 L343,247 L169,247 L169,217 L343,217 Z M343,265 L343,407 L313,407 L313,295 L199,295 L199,407 L169,407 L169,265 L343,265 Z M487,425 L487,487 L342.1,487 L317.3,425 L487,425 Z M297.9,425 L306.3,446 L205.7,446 L214.1,425 L297.9,425 Z M194.7,425 L169.9,487 L25,487 L25,425 L194.7,425 Z M313.5,464 L322.7,487 L189.3,487 L198.5,464 L313.5,464 Z"></path>
</svg>