<?xml version="1.0" encoding="UTF-8"?>
<svg viewBox="0 0 512 512" version="1.1" xmlns="http://www.w3.org/2000/svg" xmlns:xlink="http://www.w3.org/1999/xlink">
  <title>Path</title>
  <path d="M256.016,17.824 C153.28,17.824 68,123.394 68,255.984 C68,311.709 83.08,362.664 108.17,403.018 C150.203,421.01 203.792,430.612 257.51,430.662179 C309.338,430.708 361.1,421.876 402.55,405.074 C428.41,364.4 444,312.66 444,255.982 C444,123.392 358.75,17.824 256.018,17.824 L256.016,17.824 Z M257.762,36.524 C338.287,36.524 403.392,101.596 403.392,182.124 C403.392,262.65 338.287,327.754 257.762,327.754 C177.232,327.754 112.162,262.65 112.162,182.124 C112.162,101.594 177.232,36.524 257.762,36.524 Z M230.072,76.544 C227.486,82.318 224.982,87.836 222.552,93.387 C222.009,94.63 221.359,94.925 219.93,95.023 C214.494,95.4 209.055,95.95 203.68,96.823 C201.91,97.113 200.99,97.033 199.957,95.529 C196.622,90.663 193.134,85.903 189.605,80.964 L167.268,97.3 C171.046,102.604 174.566,107.662 178.23,112.615 C179.206,113.933 179.076,114.795 178.332,116.182 C176.585,119.44 175.064,122.829 173.632,126.24 C172.797,128.224 172.908,131.138 171.506,132.207 C169.946,133.397 167.151,132.981 164.891,133.242 C160.144,133.79 155.391,134.322 150.448,134.882 L153.175,162.408 C160.112,161.628 166.645,160.838 173.192,160.213 C174.356,160.103 176.112,160.269 176.695,161.013 C179.957,165.173 182.943,169.548 186.297,174.233 L176.82,195.493 L201.877,206.709 C204.934,199.897 207.913,193.384 210.767,186.815 C211.425,185.297 212.153,184.78 213.91,184.751 C217.942,184.685 222.02,184.468 225.973,183.731 C228.266,183.305 229.433,183.713 230.73,185.575 C234.728,191.315 238.93,196.912 243.116,202.651 L259.2,190.929 L264.737,200.517 L244.751,220.527 L220.323,206.493 L207.288,230.208 C215.575,235.032 223.572,239.688 230.855,243.93 C228.703,253.015 226.705,261.612 224.565,270.174 C224.409,270.79 223.215,271.544 222.493,271.557 C215.906,271.662 209.313,271.62 202.723,271.62 L196.138,271.62 L196.138,298.054 C196.808,298.372 197.483,298.682 198.158,298.989 L224.245,298.989 C224.995,302.163 225.722,305.195 226.427,308.192 C235.314,310.028 244.536,311 254,311 C269.906,311 285.138,308.272 299.236,303.277 C290.972,289.907 292.971,272.787 302.354,262.104 C315.638,246.974 338.914,245.929 353.148,260.072 C354.315,261.232 355.38,262.438 356.358,263.682 C374.897,241.53 386,213.237 386,182.412 C386,176.24 385.546,170.172 384.686,164.232 C384.45,164.112 384.259,164.012 384,163.882 C383.868,163.814 383.69,163.835 383.336,163.792 C378.749,171.752 374.126,179.778 369.776,187.332 L342.244,179.766 L342.244,152.556 L314.924,152.556 L314.924,179.796 C305.901,182.236 297.228,184.583 288.279,187.002 C283.937,179.452 279.381,171.53 274.809,163.576 L256.577,173.811 C255.267,171.986 254.152,170.299 252.892,168.724 C252.067,167.694 252.244,166.999 252.864,165.864 C255.042,161.884 257.221,157.872 258.924,153.679 C259.729,151.691 260.617,151.047 262.654,150.869 C269.107,150.312 275.539,149.509 282.27,148.767 C281.35,139.447 280.45,130.37 279.55,121.245 C272.755,121.897 266.45,122.465 260.154,123.135 C258.664,123.292 258.054,122.747 257.266,121.475 C254.479,116.98 251.58,112.531 248.376,108.331 C247.216,106.813 246.95,105.871 247.746,104.183 C250.283,98.796 252.646,93.329 255.139,87.745 C246.689,83.971 238.476,80.3 230.071,76.544 L230.072,76.544 Z M216.617,119.389 C228.952,119.491 238.812,129.462 238.709,141.726 C238.604,154.159 228.576,163.966 216.114,163.819 C203.688,163.674 194.067,153.699 194.206,141.099 C194.34,129.013 204.38,119.285 216.616,119.389 L216.617,119.389 Z M171.434,334.019 C189.749,334.019 204.5,348.819 204.5,367.429 C204.5,386.037 189.75,400.866 171.436,400.866 C153.121,400.866 138.4,386.036 138.4,367.429 C138.4,348.819 153.12,334.019 171.434,334.019 Z M336.768,334.751 C354.993397,334.751 369.768,349.525603 369.768,367.751 C369.768,385.976397 354.993397,400.751 336.768,400.751 C318.542603,400.751 303.768,385.976397 303.768,367.751 C303.768,349.525603 318.542603,334.751 336.768,334.751 Z M128.404,430.761 C139.888,444.204 152.694,455.835 166.512,465.347 L159.436,439.044 C148.788,436.701 138.423,433.931 128.404,430.761 Z M382.294,432.281 C373.424,434.951 364.3,437.297 354.964,439.327 L348.544,463.23 C360.684,454.507 372.004,444.11 382.294,432.287 L382.294,432.283 L382.294,432.281 Z M179.82,443 L179.82,443 L189.385,478.686 C200.695,484.138 212.505,488.236 224.695,490.842 L219.647,447.836 C206.175,446.834 192.85,445.191 179.819,442.998 L179.82,443 Z M334.613,443.252 C324.489,444.919 314.166,446.235 303.763,447.212 L298.961,487.914 C308.071,485.194 316.921,481.622 325.483,477.284 L334.616,443.256 L334.616,443.254 L334.614,443.252 L334.613,443.252 Z M284.838,448.579 C275.758,449.081 266.632,449.332 257.514,449.332 C251.17,449.327 244.828,449.206 238.502,448.955 L243.799,493.675 C247.839,494.052 251.911,494.178 256.015,494.178 C264.018,494.178 271.905,493.552 279.667,492.273 L284.837,448.581 L284.838,448.579 Z"></path>
</svg>