<?xml version="1.0" encoding="UTF-8"?>
<svg viewBox="0 0 512 512" version="1.1" xmlns="http://www.w3.org/2000/svg" xmlns:xlink="http://www.w3.org/1999/xlink">
  <title>settings</title>
  <path d="M234.875,18.78 C208.788,21.147 183.318,27.34 160,37.562 C175.37,70.325 174.222,104.268 153.28,119.969 C132.445,135.586 99.225,127.934 72.156,104.279 C55.91,123.731 42.82,145.639 33.281,169.905 C67.111,182.238 89.916,207.57 86.221,233.405 C82.523,259.24 53.524,277.145 17.595,279.499 C19.933,305.295 26.505,330.277 36.532,353.374 C54.342,345.192 72.325,342.284 87.627,344.436 C100.659,346.306 111.554,351.451 118.783,361.093 C134.6,382.19 126.386,415.806 102.003,443.063 C121.519,459.413 144.219,472.507 168.597,482.093 C180.927,448.265 206.252,425.459 232.097,429.155 C257.941,432.852 275.837,461.851 278.191,497.78 C304.278,495.415 329.748,489.225 353.066,479 C337.3,446.003 338.806,411.412 359.909,395.594 C369.549,388.364 382.477,386.572 395.503,388.469 C410.615,390.629 426.693,398.719 441.066,411.249 C457.154,391.904 470.466,369.739 479.941,345.655 C446.111,333.323 423.306,308.002 427.003,282.155 C430.7,256.309 459.668,238.383 495.597,236.03 C493.237,210.086 486.823,185.367 476.691,162.156 C444.079,177.273 410.031,175.301 394.409,154.469 C378.713,133.525 387.157,100.609 411.097,73.469 C391.577,57.117 368.849,44.022 344.472,34.437 C332.14,68.265 306.815,91.097 280.972,87.405 C255.126,83.712 237.228,54.709 234.877,18.78 L234.875,18.78 Z M256.531,113.906 C336.157,113.906 400.907,178.658 400.907,258.281 C400.907,337.907 336.157,402.657 256.532,402.657 C176.908,402.657 112.158,337.907 112.158,258.282 C112.158,178.658 176.908,113.906 256.533,113.906 L256.531,113.906 Z M256.531,132.594 C187.007,132.594 130.845,188.756 130.845,258.281 C130.845,327.807 187.007,383.971 256.532,383.971 C326.058,383.971 382.222,327.807 382.222,258.281 C382.222,188.759 326.058,132.594 256.532,132.594 L256.531,132.594 Z M256.564,147.717 C317.658,147.717 367.189,197.249 367.189,258.343 C367.189,319.438 317.659,368.968 256.564,368.968 C195.469,368.968 145.939,319.438 145.939,258.342 C145.939,197.247 195.469,147.717 256.564,147.717 L256.564,147.717 Z"></path>
</svg>