<?xml version="1.0" encoding="UTF-8"?>
<svg width="512px" height="512px" viewBox="0 0 512 512" version="1.1" xmlns="http://www.w3.org/2000/svg" xmlns:xlink="http://www.w3.org/1999/xlink">
    <title>wolf-howl</title>
    <g id="Page-1" stroke="none" stroke-width="1" fill="none" fill-rule="evenodd">
        <path d="M255.563,22.094 C128.753,22.094 25.969,124.878 25.969,251.688 C25.969,277.088 30.101,301.534 37.719,324.375 C77.873,300.172 113.739,283.205 145.279,272.345 C109.527,277.96 78.874,296.005 35.436,276.345 C66.988,248.58 123.118,210.503 173.968,204.687 C200.548,183.072 242.081,160.725 263.623,167.407 C294.115,140.534 331.605,106.314 371.748,81.657 C382.415,97.813 388.872,117.597 384.311,139.531 C303.941,159.736 322.619,288.459 397.779,206.971 C404.127,220.035 407.189,233.636 406.874,248.407 C374.199,282.237 339.904,311.433 304.936,336.313 C305.402,360.303 299.331,389.228 285.936,421.126 C280.301,434.546 278.606,457.532 308.811,475.096 C409.951,451.084 485.186,360.172 485.186,251.688 C485.186,124.878 382.371,22.094 255.561,22.094 L255.563,22.094 Z M258.875,186.469 C241.04,188.689 226.081,195.515 213.031,205.437 C225.114,205.401 238.643,208.319 250.531,211.593 C256.739,204.895 260.767,193.073 258.876,186.468 L258.875,186.469 Z" id="Shape" fill="#FFFFFF" fill-rule="nonzero"></path>
    </g>
</svg>