<?xml version="1.0" encoding="UTF-8"?>
<svg viewBox="0 0 163 163" version="1.1" xmlns="http://www.w3.org/2000/svg" xmlns:xlink="http://www.w3.org/1999/xlink">
  <title>daggerheart logo dark</title>
  <defs>
    <linearGradient x1="28.4843592%" y1="-1.42600678%" x2="67.4392014%" y2="83.5651195%" id="linearGradient-1">
      <stop stop-color="#382D7A" offset="0%"></stop>
      <stop stop-color="#36337F" offset="12%"></stop>
      <stop stop-color="#324590" offset="30%"></stop>
      <stop stop-color="#2C63AB" offset="50%"></stop>
      <stop stop-color="#2878BE" offset="61%"></stop>
      <stop stop-color="#81CDC3" offset="100%"></stop>
    </linearGradient>
  </defs>
  <g id="65e0a940e7e8f6889de868af_daggerheart-logo-horz-dark" transform="translate(16.000000, 7.000000)" fill-rule="nonzero">
    <path d="M130.813,14.9122 C130.809,14.7462 130.778,14.5801 130.726,14.4245 C130.671,14.2653 130.591,14.1131 130.487,13.9782 L127.775,10.415 L127.101,9.47400001 C126.91,9.21109001 126.672,8.99660001 126.409,8.81671001 C126.153,8.62644001 125.873,8.47077001 125.561,8.37736001 L124.451,8.04526001 L120.199,6.64072001 C120.036,6.58883001 119.867,6.56116001 119.701,6.56116001 C119.535,6.56116001 119.369,6.58537001 119.21,6.63727001 L113.668,8.40850001 C113.114,8.58493001 112.63,8.93433001 112.284,9.40136001 L109.063,13.7879 C108.717,14.2584 108.53,14.8223 108.527,15.4069 L108.496,21.2257 C108.496,21.3676 108.523,21.5059 108.558,21.6443 C108.015,21.7066 107.413,21.9003 107.036,22.4296 L106.873,22.651 L106.673,22.9278 L106.624,22.9831 C106.223,23.4571 105.659,24.3358 105.427,25.0761 C105.275,25.5708 105.573,27.2175 105.573,27.2175 C104.981,28.5078 103.964,30.5385 102.047,32.7906 C99.5116,35.7692 92.444,41.5637 92.444,41.5637 C90.8596,40.7093 86.4834,38.6094 80.2806,37.7134 C78.7515,37.492 77.2778,37.3778 75.901,37.3778 C71.0647,37.3675 68.8022,38.7166 68.7088,38.7754 C68.5531,38.8723 68.4251,39.0072 68.3352,39.1664 L65.5676,44.231 C65.3704,44.5942 65.405,45.037 65.6541,45.3657 C65.8547,45.6286 66.1626,45.7808 66.4844,45.7808 C66.5639,45.7808 66.6435,45.7704 66.7231,45.7531 C66.7611,45.7462 70.5734,44.8744 74.6279,44.8813 C75.254,44.8813 75.8594,44.9056 76.4302,44.9471 C78.8138,45.127 81.7924,45.549 84.2036,47.1923 C84.4389,47.3548 85.0512,47.6731 85.2345,47.8945 C89.2786,52.7204 82.0657,59.072 75.5308,57.1105 C74.9565,56.9375 74.3477,56.9721 74.0398,57.4875 C73.2787,58.7537 71.85,61.1926 70.0268,64.3165 C70.563,65.2851 70.9643,66.2261 71.2722,67.1428 C72.995,64.1816 74.1263,62.2373 74.2923,61.9433 C74.7732,61.0923 74.9185,60.8051 74.9185,60.8051 C74.9185,60.8051 79.3154,64.8423 79.0906,65.1986 L72.7183,74.8297 C72.8705,75.6323 73.0711,76.4072 73.3652,77.1579 L80.7234,66.4752 C80.9725,66.0946 81.2631,65.9147 81.7163,65.9632 L85.0788,65.5169 C85.2068,65.5307 85.5597,65.7279 85.8918,65.9355 C86.2897,66.2399 86.7705,66.6343 86.8328,66.7692 L87.2929,69.094 C87.4832,69.5506 87.4036,70.0764 87.0888,70.4604 L77.5234,81.9873 C81.8927,84.869 86.3069,84.4608 89.3097,83.5579 C93.0459,79.1575 96.0487,75.615 97.3183,74.1032 C97.6712,73.6846 97.5916,73.0861 97.1903,72.7125 C91.209,67.2086 97.5501,58.6257 103.448,60.8882 C103.715,60.992 104.216,61.4659 104.448,61.6354 C106.783,63.379 108.153,66.06 109.098,68.2568 C109.323,68.7826 109.541,69.3465 109.748,69.9381 C111.077,73.7677 111.492,77.6561 111.495,77.6976 C111.502,77.7771 111.523,77.8567 111.547,77.9328 C111.651,78.2372 111.893,78.4829 112.208,78.5832 C112.599,78.7112 113.031,78.6005 113.308,78.2961 L117.2,74.034 C117.324,73.8991 117.411,73.7331 117.449,73.5532 C117.473,73.4459 118.013,70.8652 116.428,66.2953 C115.979,64.9945 115.39,63.635 114.685,62.2616 C111.82,56.6884 108.409,53.2324 107.088,52.0113 C107.088,52.0113 110.087,42.996 112.111,39.6472 C113.841,36.7793 114.858,35.5443 115.788,34.4996 C115.788,34.4996 117.442,34.247 117.86,33.9391 C118.487,33.4825 119.134,32.6592 119.448,32.1264 L119.486,32.0607 L119.684,31.7805 L119.839,31.5556 C120.216,31.0263 120.206,30.3932 120.085,29.8605 C120.227,29.8501 120.365,29.8328 120.5,29.7844 L125.99,27.8644 C126.54,27.6706 127.014,27.3109 127.346,26.8335 L130.446,22.3604 C130.778,21.883 130.948,21.3122 130.937502,20.7276 L130.809,14.9122 L130.813,14.9122 Z M85.743,61.6665 C85.7361,61.7081 85.7292,61.7461 85.7189,61.7842 L85.4421,63.3236 L82.3113,63.8252 C81.8477,63.801 81.2735,63.7145 81.0901,63.289 L76.8558,59.4698 C76.8558,59.4698 81.4153,60.3693 84.0479,58.3559 C85.75,57.0551 86.3727,56.4774 86.3727,56.4774 C86.2931,58.6603 85.8088,61.2514 85.743,61.6631 L85.743,61.6665 Z M119.175,8.36352001 C119.407,8.28396001 119.656,8.27704001 119.888,8.34623001 L123.966,9.57087001 L124.582,9.77498001 C124.53,9.86146001 123.506,11.5497 123.361,11.5773 L116.297,11.6189 C116.165,11.6189 115.11,10.3181 114.778,9.90297001 L119.175,8.36352001 Z M110.371,15.0645 L113.221,10.9512 C113.221,10.9512 114.813,12.5252 114.872,12.6878 L112.737,19.3888 C112.702,19.5029 110.807,19.9526 110.264,20.0806 L110.167,15.7494 C110.16,15.5073 110.232,15.2651 110.371,15.0645 Z M97.0104,58.1621 C97.8061,58.6638 98.2109,59.494 98.076,59.8919 C95.1666,59.3453 91.9147,61.4521 90.4168,62.0021 C90.1158,62.1128 88.9603,62.6559 88.5279,62.4311 C88.1716,62.1266 88.4137,60.947 88.4241,60.5768 C88.4552,58.9786 89.3893,55.2182 87.9294,52.6478 C88.2615,52.3918 89.1783,52.5025 89.9117,53.0941 C90.1123,53.2567 89.8425,50.5237 87.6803,49.2333 C87.6803,49.2333 89.2336,48.7386 90.2127,49.6796 C91.5826,50.9942 92.9422,52.5994 93.3262,55.9515 C96.9205,55.6506 98.4496,55.7924 100.148,56.768 C101.335,57.4495 101.394,59.0166 101.394,59.0166 C99.4701,57.3907 96.7994,58.0272 97.0174,58.1621 L97.0104,58.1621 Z M108.987,55.5433 C110.066,56.8683 111.063,58.2175 111.924,59.5563 C112.052,59.7535 112.173,59.9472 112.294,60.1409 C112.433,60.3623 112.561,60.5837 112.689,60.8051 C112.803,60.9989 112.92,61.1926 113.024,61.3829 C113.273,61.8326 113.505,62.2789 113.713,62.7148 C115.47,66.4267 116.196,69.1009 116.432,70.8548 C116.536,71.6366 116.542,72.2351 116.497,72.6606 C116.494,72.7056 116.491,72.7506 116.484,72.7921 C116.439,73.1 116.297,73.3871 116.082,73.612 L114.328,75.276 C114.159,75.4524 114.398,68.5059 114.384,68.2637 C114.283,66.323 112.339,66.8107 108.731,61.3656 C107.06,58.8402 104.587,51.5788 94.5196,54.3671 C93.8831,43.9404 85.9956,43.8124 83.0654,43.0513 C76.7416,41.4115 76.5686,39.412 74.704,39.9482 C74.4687,40.0174 67.9788,42.5013 68.0895,42.2833 L69.0928,40.0831 C69.2346,39.8064 69.4595,39.578 69.7362,39.4362 C69.7708,39.4189 69.8158,39.3981 69.8573,39.3808 C70.2448,39.1975 70.8121,39.0107 71.587,38.855 C73.3237,38.5056 76.0878,38.3257 80.1699,38.7789 C80.6508,38.8343 81.1489,38.9069 81.654,38.9968 C81.8685,39.0349 82.0899,39.0833 82.3113,39.1283 C82.5604,39.1767 82.8129,39.2286 83.0654,39.2874 C83.2903,39.3393 83.5117,39.3912 83.74,39.4466 C85.283,39.8271 86.8847,40.3287 88.4898,40.9203 C89.9186,41.4461 91.3404,42.0446 92.7208,42.6811 C93.1082,42.861 93.4956,43.0375 93.8727,43.2208 C94.6961,43.6221 95.8965,44.0995 96.9966,44.5146 L94.3259,42.3317 L95.8827,40.8615 L99.311,43.3211 L100.235,43.9819 L100.927,44.4801 L106.645,48.5414 L105.763,50.4891 L102.829,48.6729 C103.576,49.5758 104.421,50.5583 105.067,51.2052 C105.365,51.5027 105.659,51.8106 105.953,52.1185 C107.005,53.2151 108.029,54.3671 108.994,55.5468 L108.987,55.5433 Z M117.975,30.964 L117.373,31.822 C117.324,31.8912 117.048,32.1921 116.875,32.2509 C116.404,32.4135 115.363,32.1091 115.328,32.1575 L114.484,33.3234 C114.346,33.524 114.069,33.569 113.872,33.4272 L109.97,30.5281 L109.928,30.5766 L107.216,28.6773 C107.015,28.5355 106.97,28.2622 107.115,28.065 L107.942,26.8854 C107.977,26.8369 107.354,25.9513 107.354,25.4531 C107.354,25.2698 107.551,24.91 107.6,24.8443 L108.216,23.9933 C108.389,23.7546 108.724,23.6992 108.966,23.8722 L110.955,25.2836 L113.1,26.8092 L113.726,27.2555 L115.868,28.788 L117.85,30.2099 C118.092,30.3828 118.148,30.7184 117.978,30.9606 L117.975,30.964 Z M114.878,24.9792 L110.609,21.9141 C110.796,21.8484 113.214,21.0251 113.342,21.1185 L116.193,23.1388 L119.033,25.1764 C119.161,25.2698 119.168,27.8229 119.168,28.02 L114.882,24.9792 L114.878,24.9792 Z M119.566,23.6404 C119.469,23.6058 119.372,23.5643 119.282,23.502 L117.058,21.9245 L114.844,20.3332 C114.757,20.2709 114.685,20.1913 114.619,20.1118 C114.415,19.8246 114.346,19.451 114.453,19.0982 L116.058,13.9574 C116.207,13.48 116.646,13.1514 117.148,13.1479 L122.534,13.0857 C122.783,13.0857 123.018,13.1618 123.212,13.2967 C123.402,13.4351 123.555,13.6322 123.631,13.8675 L125.326,18.9805 C125.482,19.4545 125.316,19.9769 124.914,20.2744 L120.576,23.4674 C120.279,23.6854 119.905,23.7407 119.566,23.6404 Z M125.72,26.017 C125.575,26.2142 125.374,26.3595 125.139,26.4322 L121.012,27.7502 C120.957,27.1932 120.766,25.256 120.86,25.1868 L126.502,20.987 C126.679,20.987 128.682,21.9799 128.682,21.9799 L125.717,26.0136 L125.72,26.017 Z M129.169,20.1706 C128.668,19.9907 127.094,19.4164 127.052,19.2919 L124.793,12.5979 C124.769,12.4491 126.035,10.9339 126.097,10.8543 L126.492,11.3698 L128.976,14.8258 C129.117,15.0229 129.194,15.2616 129.194,15.5073 L129.169,20.1671 L129.169,20.1706 Z" fill="#201B50"></path>
    <path d="M47.9381,117.869 L35.5533,134.339 L32.0662,138.587 C31.9901,138.587 32.4709,136.46 33.4811,134.121 C35.3111,129.89 39.1442,122.639 42.742,116.592 C43.0187,116.125 44.1984,113.814 45.3504,111.597 C44.9491,110.846 44.5063,110.085 44.0358,109.324 C42.4306,112.14 40.8116,114.963 40.5037,115.468 C37.6912,120.083 33.104,129.025 31.1909,133.467 C27.4859,142.074 27.2126,148.26 27.5412,148.495 C27.8699,148.73 32.6301,146.132 37.7985,141.375 C40.099,139.21 44.7381,134.668 48.6438,130.62 C49.353,126.375 49.1973,122.182 47.9346,117.869 L47.9381,117.869 Z" fill="#201B50"></path>
    <path d="M50.7194,134.671 C50.7194,134.671 57.5968,128.825 50.4012,114.437 C44.6204,102.875 38.428,98.4403 35.28,95.4929 C29.7449,90.3072 25.1542,84.9797 24.8601,84.2324 C23.0405,79.6452 26.7386,70.3047 27.9944,63.9394 C30.2741,52.3606 18.429,44.4627 13.1776,57.5567 C9.35492005,67.0909 -5.80778995,38.9933 2.40145005,22.388 C5.35235005,16.4205 15.8587,11.7122 25.9395,15.3273 C25.9395,15.3273 22.3832,16.3928 20.0688,20.2155 C14.25,29.8293 25.2683,41.453 26.9116,42.9025 C35.8508,50.7969 38.7913,54.1388 38.1963,60.8432 C37.8987,64.185 35.1589,69.7305 45.1221,79.3339 C50.8197,84.8274 62.0629,95.6832 66.2731,106.359 C69.1894,113.748 68.3902,122.331 65.6192,126.185 C62.8517,130.039 60.5062,132.253 58.0603,133.668 C52.2727,137.013 50.716,134.674 50.716,134.674 L50.7194,134.671 Z M59.7555,13.4246 C57.3615,12.0478 56.0573,11.3075 56.1369,10.235 C56.2476,8.75440001 59.7866,8.06597001 59.3888,6.32587001 C57.8597,-0.295488993 49.9895,0.0020227074 49.9895,0.0020227074 C49.9895,0.0020227074 52.2796,2.35444001 51.4667,3.48914001 C50.6537,4.62383001 46.6857,4.34362001 43.7452,3.96654001 C40.8047,3.58946001 38.8224,4.31594001 39.1303,6.32242001 C39.4382,8.32889001 42.2715,8.71635001 45.6341,12.1619 C48.9966,15.6075 44.9214,15.9985 41.2924,16.1749 C37.6635,16.3513 33.2354,16.2787 29.6134,19.8315 C27.0119,22.3846 23.4833,26.695 29.6653,37.229 C39.7738,54.4501 51.9683,53.8274 55.9535,64.6589 C56.6627,66.5824 56.6212,69.1908 54.2965,69.3049 C52.5737,69.3914 48.8202,65.1744 48.0868,61.0576 C46.3571,60.9815 42.1988,68.0076 46.665,73.0169 C52.5702,79.6383 62.2705,86.8962 68.1412,96.51 C76.0148,109.403 73.1124,116.35 73.1124,116.35 C75.7519,113.897 77.1668,111.773 78.4468,104.622 C79.2321,100.232 83.9473,98.0079 87.6074,97.6862 C87.7319,97.6758 87.6351,93.1508 93.274,89.6188 C96.0934,87.8544 99.3003,88.5048 101.21,89.003 C101.587,87.2041 100.833,84.7963 99.9265,83.9487 C98.3247,82.4543 94.8964,82.4854 93.0733,83.6893 C88.9047,86.4395 79.6369,89.7225 72.7249,84.4642 C68.1273,80.9667 68.4006,74.0651 68.3729,69.3326 C68.3003,56.6503 59.8074,55.2146 53.5216,52.1046 C48.1179,49.4305 40.3031,41.9269 42.1366,33.69 C42.652,31.3757 43.51,29.9192 44.6758,29.0198 C46.5231,27.598 48.5158,27.7087 58.8733,28.148 C62.1875,28.2898 65.0553,28.3763 67.5358,26.83 C68.1827,26.4252 69.601,25.5154 70.1788,23.7995 C70.2237,23.6646 70.6077,22.478 70.3344,21.2361 C69.8086,18.8525 67.176,17.697 59.7555,13.4246 Z" fill="url(#linearGradient-1)"></path>
  </g>
</svg>