<?xml version="1.0" encoding="UTF-8"?>
<svg width="154px" height="154px" viewBox="0 0 154 154" version="1.1" xmlns="http://www.w3.org/2000/svg" xmlns:xlink="http://www.w3.org/1999/xlink">
    <title>Shape</title>
    <g id="Page-1" stroke="none" stroke-width="1" fill="none" fill-rule="evenodd">
        <path d="M120.664123,36.9581184 C112.495266,33.2099317 103.874381,30.537118 95.0173838,29.0066189 C94.8523747,28.9758455 94.6862271,29.0543363 94.6052594,29.2013131 C93.4975109,31.1708206 92.2705876,33.7396293 91.4116888,35.7584663 C81.7270272,34.309018 72.0917156,34.309018 62.6060287,35.7584663 C61.7471299,33.6944981 60.4755817,31.1708206 59.3631082,29.2013131 C59.2787786,29.0580024 59.1152392,28.980952 58.9509838,29.0071437 C50.0930914,30.5340844 41.4716243,33.2066713 33.3037193,36.9575936 C33.2338429,36.9874391 33.1749583,37.0382313 33.1351945,37.1029583 C16.8003671,61.4969327 12.3252733,85.2910811 14.5208203,108.790302 C14.5333624,108.906534 14.592452,109.012738 14.68462,109.084705 C25.4618051,116.996321 35.9014157,121.799127 46.1473015,124.982456 C46.3104515,125.031119 46.4866789,124.973378 46.5893509,124.837616 C49.0127475,121.529389 51.1731195,118.040637 53.025842,114.37241 C53.0773526,114.27081 53.0829478,114.152043 53.0412168,114.046054 C52.9994858,113.940065 52.914411,113.856969 52.8074423,113.817715 C49.380247,112.518354 46.1173765,110.934037 42.9784059,109.135084 C42.8621588,109.066843 42.7875931,108.945169 42.7795841,108.810651 C42.771575,108.676134 42.8311767,108.546478 42.9385059,108.464937 C43.598955,107.970067 44.2599291,107.455781 44.8904532,106.935722 C45.0047645,106.841508 45.1626039,106.820159 45.2978527,106.88062 C65.9187741,116.291538 88.2427932,116.291538 108.620115,106.88062 C108.755579,106.816197 108.91606,106.83561 109.032239,106.930474 C109.663289,107.450008 110.323738,107.970067 110.989437,108.464937 C111.097043,108.545682 111.157405,108.674652 111.150454,108.808969 C111.143504,108.943286 111.070153,109.065342 110.954787,109.134559 C107.814676,110.967873 104.525234,112.53274 101.12155,113.812467 C101.014648,113.853327 100.930227,113.937782 100.889437,114.044673 C100.848648,114.151564 100.855354,114.270764 100.907876,114.37241 C102.799973,118.035389 104.960345,121.524141 107.339117,124.832368 C107.438753,124.972337 107.616857,125.032808 107.781166,124.982456 C118.076402,121.798602 128.516012,116.995796 139.293198,109.084705 C139.387081,109.016243 139.446948,108.910706 139.457522,108.795025 C142.084619,81.6270519 135.056978,58.0281225 120.827923,37.1076813 C120.792993,37.0397143 120.734893,36.9864783 120.664123,36.9575936 L120.664123,36.9581184 Z M56.1049627,94.4815912 C49.8968463,94.4815912 44.7812534,88.7840312 44.7812534,81.7871105 C44.7812534,74.7907146 49.7976214,69.0931546 56.1054877,69.0931546 C62.4621789,69.0931546 67.5278969,74.8405689 67.428672,81.7876353 C67.428672,88.7840312 62.412304,94.4815912 56.1049627,94.4815912 L56.1049627,94.4815912 Z M97.9726048,94.4815912 C91.7644883,94.4815912 86.6488954,88.7840312 86.6488954,81.7871105 C86.6488954,74.7907146 91.6647385,69.0931546 97.9726048,69.0931546 C104.329296,69.0931546 109.395014,74.8405689 109.295789,81.7876353 C109.295789,88.7840312 104.329296,94.4815912 97.9726048,94.4815912 L97.9726048,94.4815912 Z" id="Shape" fill="#000000" fill-rule="nonzero"></path>
    </g>
</svg>