<?xml version="1.0" encoding="UTF-8"?>
<svg viewBox="0 0 163 163" version="1.1" xmlns="http://www.w3.org/2000/svg" xmlns:xlink="http://www.w3.org/1999/xlink">
  <path d="M134.213802,31.7818539 C124.164811,27.1747077 113.559755,23.8893742 102.664242,22.0081358 C102.461255,21.9703101 102.256867,22.0667884 102.157264,22.2474474 C100.794557,24.6683004 99.2852467,27.8257944 98.2286649,30.3072815 C86.3149939,28.525668 74.4620312,28.525668 62.7931306,30.3072815 C61.7365487,27.7703206 60.1723426,24.6683004 58.8038236,22.2474474 C58.7000848,22.0712947 58.4989054,21.9765869 58.2968452,22.0087808 C47.4002315,23.8856454 36.7944585,27.1707002 26.7466388,31.7812088 C26.6606798,31.8178939 26.5882424,31.880326 26.5393266,31.9598863 C6.44489601,61.9441464 0.939820299,91.1911205 3.64069161,120.075579 C3.65612039,120.218448 3.72880997,120.34899 3.84219124,120.43745 C17.0998396,130.162144 29.9422177,136.065593 42.5462836,139.978435 C42.746984,140.03825 42.9637717,139.967277 43.0900745,139.800403 C46.071237,135.734041 48.7288375,131.445783 51.0079803,126.936921 C51.0713465,126.812037 51.0782295,126.666053 51.0268937,126.535775 C50.975558,126.405496 50.8709025,126.303358 50.739314,126.255108 C46.5233198,124.657977 42.5094711,122.710587 38.648039,120.499374 C38.5050366,120.415494 38.413309,120.265937 38.4034566,120.100592 C38.3936042,119.935248 38.4669237,119.775879 38.5989557,119.675652 C39.4114129,119.067374 40.224516,118.435231 41.0001607,117.795992 C41.1407817,117.680187 41.3349493,117.653945 41.5013268,117.728262 C66.8683333,129.295849 94.3304203,129.295849 119.397761,117.728262 C119.564403,117.649075 119.76182,117.672937 119.904739,117.789541 C120.68103,118.428135 121.493487,119.067374 122.312403,119.675652 C122.444775,119.774901 122.51903,119.933426 122.510479,120.098524 C122.50193,120.263622 122.411696,120.413649 122.269778,120.498729 C118.406943,122.752177 114.360407,124.675659 110.173335,126.248657 C110.041829,126.298881 109.937978,126.40269 109.8878,126.534077 C109.837623,126.665464 109.845872,126.811981 109.910482,126.936921 C112.238062,131.439332 114.895663,135.72759 117.82193,139.793952 C117.944498,139.965997 118.163594,140.040326 118.36572,139.978435 C131.030495,136.064948 143.872872,130.161499 157.130522,120.43745 C157.246013,120.353299 157.319658,120.223576 157.332666,120.081385 C160.564412,86.6874179 151.919298,57.6804006 134.415302,31.9656916 C134.372333,31.8821489 134.300861,31.8167129 134.213802,31.7812088 L134.213802,31.7818539 Z M54.9991141,102 C47.3242324,102 41,95.0431179 41,86.4996796 C41,77.9568821 47.201564,71 54.9997632,71 C62.8583229,71 69.1208966,78.0177556 68.9982283,86.5003204 C68.9982283,95.0431179 62.7966643,102 54.9991141,102 L54.9991141,102 Z M106.999439,102 C99.324379,102 93,95.0431179 93,86.4996796 C93,77.9568821 99.2010588,71 106.999439,71 C114.858181,71 121.1209,78.0177556 120.998228,86.5003204 C120.998228,95.0431179 114.858181,102 106.999439,102 L106.999439,102 Z"></path>
</svg>