<?xml version="1.0" encoding="UTF-8"?>
<svg viewBox="0 0 512 512" version="1.1" xmlns="http://www.w3.org/2000/svg" xmlns:xlink="http://www.w3.org/1999/xlink">
  <path d="M18,20.813 L18,144.875 C47.144,170.398 75.37,194.339 102.375,216.438 C107.398,214.544 117.337,208.638 128.063,200.25 C139.863,191.02 153.243,178.94 165.938,166.22 C178.631,153.496 190.668,140.105 199.844,128.344 C208.249,117.569 214.141,107.608 215.938,102.781 C194.504,76.504 171.325,49.075 146.625,20.813 L18,20.813 Z M229.03,118.968 C225.398,125.444 220.447,132.299 214.562,139.843 C204.75,152.421 192.304,166.228 179.156,179.405 C166.009,192.583 152.189,205.092 139.562,214.968 C131.988,220.891 125.082,225.896 118.532,229.561 C126.578,236.041 134.545,242.346 142.344,248.467 L141.874,246.717 C145.669,245.699 155.664,239.979 166.469,231.527 C177.273,223.077 189.545,211.977 201.187,200.309 C212.827,188.641 223.877,176.361 232.28,165.591 C240.335,155.266 245.86,145.731 247.156,141.778 C241.289,134.292 235.226,126.683 229.031,118.968 L229.03,118.968 Z M260.03,158.405 C256.7,164.245 252.253,170.359 247,177.093 C237.96,188.68 226.502,201.407 214.406,213.53 C202.311,225.655 189.601,237.152 177.969,246.25 C170.587,252.023 163.911,256.876 157.529,260.313 C164.879,265.975 172.126,271.478 179.219,276.781 C183.979,274.415 191.379,269.788 199.219,263.657 C209.731,255.435 221.666,244.641 232.999,233.282 C244.332,221.925 255.074,209.982 263.249,199.502 C269.299,191.747 273.869,184.43 276.219,179.752 C270.999,172.77 265.592,165.646 260.029,158.408 L260.03,158.405 Z M286.688,199.218 C284.152,202.961 281.226,206.862 278,210.998 C269.188,222.294 258.036,234.685 246.25,246.498 C234.464,258.311 222.058,269.504 210.72,278.373 C206.66,281.547 202.82,284.419 199.125,286.936 L293.405,428.216 C337.162,420.466 398.803,445.11 452,494.279 L466.438,479.843 L347.094,360.5 C336.06,365.984 322.319,364.163 313.124,354.97 C301.607,343.45 301.607,324.768 313.124,313.25 C324.644,301.732 343.326,301.732 354.844,313.25 C364.062,322.468 365.882,336.264 360.344,347.313 L479.656,466.625 L494.126,452.155 C444.956,398.959 420.279,337.349 428.031,293.595 L286.69,199.218 L286.688,199.218 Z"></path>
</svg>