<?xml version="1.0" encoding="UTF-8"?>
<svg width="512px" height="512px" viewBox="0 0 512 512" version="1.1" xmlns="http://www.w3.org/2000/svg" xmlns:xlink="http://www.w3.org/1999/xlink">
    <title>quill-ink</title>
    <g id="Page-1" stroke="none" stroke-width="1" fill="none" fill-rule="evenodd">
        <path d="M496.938,14.063 C401.798,17.559 324.641,38.143 265.656,69.875 L236.186,119.155 L231.219,91.062 C220.684,98.464 210.905,106.284 201.905,114.469 L187.218,159.529 L182.186,134.374 C141.536,179.881 121.776,234.238 123.248,290.28 C170.521,196.613 255.652,117.553 335.218,69.125 L344.935,85.095 C269.623,130.933 188.548,206.297 142.748,293.345 L154.904,293.345 C174.684,281.325 194.064,266.487 213.31,249.905 L183.03,251.5 L237.248,228.406 C284.123,184.769 330.713,133.432 380.561,90.126 L356.091,84.936 L412.591,63.906 C439.444,43.421 467.391,26.062 496.938,14.063 L496.938,14.063 Z M59.53,312.03 L59.53,342.438 L194,342.438 L194,312.03 L59.53,312.03 Z M79.906,361.125 L47.25,389.813 L24.97,474.78 L39.5,490.656 L216.72,490.656 L231.28,474.781 L209,389.814 L178.094,361.125 L79.906,361.125 L79.906,361.125 Z" id="Shape" fill="#FFFFFF" fill-rule="nonzero"></path>
    </g>
</svg>