<?xml version="1.0" encoding="UTF-8"?>
<svg viewBox="0 0 512 512" version="1.1" xmlns="http://www.w3.org/2000/svg" xmlns:xlink="http://www.w3.org/1999/xlink">
  <title>equipment</title>
  <path d="M122.1,17.52 L186.6,161 L291.1,116.1 L246.6,17.52 L195.5,17.52 L231.3,98.27 L214.9,105.5 L175.9,17.52 L122.1,17.52 Z M387.3,95.27 L110.4,215.2 L122.4,243.4 L400.5,123.6 L387.3,95.27 Z M317.6,193.8 L293.7,205.3 C306.5,210.7 319.7,219 332,220.9 C350.1,207.8 327.1,190.4 317.6,193.8 L317.6,193.8 Z M256.9,204.9 L220.7,221.6 C208.8,240 205.9,267.6 202.5,291.3 C223.1,321.4 233,353.7 242,385.3 C259.9,381.6 274.2,378.5 290.7,373.8 C266.3,335.1 248.5,295.4 237.1,254.9 C237.1,254.9 242.7,244.4 245.5,239.1 C257.4,246.4 270.4,251.5 282.1,249 C292.1,244.9 303.6,241.1 309.8,232.4 C292.2,225.5 272.7,214.9 256.9,204.9 L256.9,204.9 Z M349.5,231.5 C338.7,237.3 326.5,242.7 317.6,250.4 C312.3,255.1 305.5,259.2 297.1,262.7 C298.2,270 297,282.3 305.2,281.5 C325.7,275.3 345.7,266.5 364.9,253.1 C364.8,243.9 356.9,229 349.5,231.5 L349.5,231.5 Z M259.3,265.7 C270.6,300.5 286.9,334.7 308.6,368.3 C313.3,366.7 317.9,365 322.1,363.3 C314.8,357.1 310.4,347.4 310.1,338 C293.5,333.9 289.3,308.6 292.9,296.4 C283.4,289.4 279.3,278.3 278.7,267.7 C271.5,268.4 265.1,267.6 259.3,265.7 L259.3,265.7 Z M362.6,276.1 C349,284.2 335,290.4 321,295.3 L312,299.7 C307.6,304.3 307.5,315.3 313,320 C322.7,323.5 363.1,298.8 370.7,292.1 C372,286.3 367.2,277.2 362.6,276.1 L362.6,276.1 Z M184.5,297.3 L19.1,335.8 L19.1,495 C114.8,469.7 166,447.9 228.8,404.8 C218,366.8 208.3,330 184.5,297.3 L184.5,297.3 Z M372.3,314.2 C358.7,324.4 345.1,330.4 329.4,335.6 C329,342.3 331.9,353.7 341.5,351.6 C361.4,347.3 377.8,334.1 378.1,327 C378.3,323.3 376.1,316.5 372.3,314.2 L372.3,314.2 Z M364.8,362.8 C350.5,371 333.3,378.7 318.1,384.2 L336.8,416 L376.1,397.2 L364.8,362.8 Z M387,411.9 L342.9,433 L346,454.9 C361.1,455.4 392.6,443.6 401.4,428.8 L401.4,428.7 L387,411.9 Z"></path>
</svg>