<?xml version="1.0" encoding="UTF-8"?>
<svg viewBox="0 0 512 512" version="1.1" xmlns="http://www.w3.org/2000/svg" xmlns:xlink="http://www.w3.org/1999/xlink">
  <path d="M87,32 L87,103 L105,103 L105,32 L87,32 Z M247,32 L247,377 L265,377 L265,32 L247,32 Z M407,32 L407,199 L425,199 L425,32 L407,32 Z M50,121 C44.86,121 41,124.9 41,130 L41,158 C41,163.1 44.86,167 50,167 L142,167 C147.1,167 151,163.1 151,158 L151,130 C151,124.9 147.1,121 142,121 L50,121 Z M87,185 L87,480 L105,480 L105,185 L87,185 Z M370,217 C364.9,217 361,220.9 361,226 L361,254 C361,259.1 364.9,263 370,263 L462,263 C467.1,263 471,259.1 471,254 L471,226 C471,220.9 467.1,217 462,217 L370,217 Z M407,281 L407,480 L425,480 L425,281 L407,281 Z M210,395 C204.9,395 201,398.9 201,404 L201,432 C201,437.1 204.9,441 210,441 L302,441 C307.1,441 311,437.1 311,432 L311,404 C311,398.9 307.1,395 302,395 L210,395 Z M247,459 L247,480 L265,480 L265,459 L247,459 Z"></path>
</svg>