<?xml version="1.0" encoding="UTF-8"?>
<svg viewBox="0 0 512 512" version="1.1" xmlns="http://www.w3.org/2000/svg" xmlns:xlink="http://www.w3.org/1999/xlink">
  <path d="M29.018,18.874 C26.388,29.172 29.065,40.595 37.062,48.595 C47.097,58.629 62.522,60.291 74.352,53.595 C80.266,58.941 86.038,63.968 91.709,68.715 C91.371,70.533 91.187,72.402 91.187,74.312 C91.187,91.336 105.195,105.312 122.217,105.312 C127.134,105.312 131.793,104.142 135.937,102.072 C141.692,105.982 147.499,109.787 153.419,113.552 C152.945,115.694 152.687,117.912 152.687,120.187 C152.687,137.211 166.695,151.187 183.717,151.187 C191.294,151.187 198.267,148.415 203.681,143.842 L217.554,151.967 C217.291,153.502 217.14,155.08 217.14,156.699 L217.14,195.603 L114.07,255.27 L114.07,415.334 L252.354,495.387 L390.637,415.334 L390.637,255.27 L286.59,195.037 L286.59,156.7 C286.59,155.717 286.523,154.754 286.418,153.803 C291.811,150.733 297.073,147.723 302.115,144.809 C307.341,148.801 313.851,151.186 320.877,151.186 C337.9,151.186 351.877,137.21 351.877,120.186 C351.877,118.319 351.701,116.491 351.379,114.71 C357.426,110.723 363.391,106.652 369.357,102.412 C373.327,104.267 377.737,105.312 382.377,105.312 C399.4,105.312 413.407,91.336 413.407,74.312 C413.407,72.339 413.213,70.409 412.854,68.532 C418.127,64.082 423.551,59.392 429.172,54.416 C440.772,60.13 455.307,58.194 464.908,48.594 C472.906,40.596 475.583,29.174 472.953,18.874 L452.54,18.874 C456.558,23.762 456.276,30.79 451.69,35.374 C446.803,40.262 439.14,40.264 434.253,35.374 C429.668,30.789 429.386,23.76 433.403,18.874 L412.989,18.874 C411.074,26.374 411.989,34.466 415.709,41.402 C411.589,45.038 407.586,48.507 403.675,51.836 C398.1,46.548 390.592,43.281 382.378,43.281 C365.354,43.281 351.348,57.291 351.348,74.313 C351.348,79.763 352.786,84.896 355.296,89.363 C351.051,92.321 346.796,95.203 342.499,98.036 C336.899,92.556 329.259,89.156 320.879,89.156 C303.854,89.156 289.847,103.166 289.847,120.188 C289.847,123.354 290.331,126.413 291.23,129.298 C287,131.743 282.486,134.326 277.983,136.903 C276.955,135.909 275.871,134.993 274.737,134.187 C268.045,129.419 260.017,127.305 252.023,127.173 C244.027,127.041 235.873,128.891 229.053,133.677 C228.246,134.242 227.467,134.863 226.716,135.527 C222.349,132.954 217.952,130.363 213.769,127.905 C214.411,125.435 214.753,122.849 214.753,120.189 C214.753,103.165 200.746,89.157 183.723,89.157 C175.746,89.157 168.433,92.232 162.911,97.251 C158.441,94.413 154.017,91.561 149.663,88.655 C151.93,84.358 153.223,79.477 153.223,74.315 C153.223,57.29 139.246,43.282 122.223,43.282 C113.963,43.282 106.419,46.586 100.835,51.924 C96.32,48.097 91.735,44.091 87.045,39.857 C90.108,33.282 90.76,25.827 88.985,18.874 L68.568,18.874 C72.586,23.764 72.304,30.792 67.718,35.377 C62.831,40.264 55.168,40.265 50.281,35.377 C45.697,30.791 45.416,23.762 49.433,18.874 L29.018,18.874 L29.018,18.874 Z M122.218,61.969 C129.142,61.969 134.531,67.389 134.531,74.312 C134.531,81.235 129.144,86.624 122.221,86.624 C115.295,86.624 109.876,81.234 109.876,74.311 C109.876,67.388 115.296,61.968 122.22,61.968 L122.218,61.969 Z M382.375,61.969 C389.299,61.969 394.719,67.389 394.719,74.312 C394.719,81.235 389.299,86.624 382.374,86.624 C375.45,86.624 370.03,81.234 370.03,74.311 C370.03,67.388 375.45,61.968 382.375,61.968 L382.375,61.969 Z M183.72,107.843 C190.642,107.843 196.063,113.263 196.063,120.187 C196.063,127.11 190.643,132.499 183.719,132.499 C176.793,132.499 171.374,127.109 171.374,120.186 C171.374,113.263 176.794,107.843 183.718,107.843 L183.72,107.843 Z M320.875,107.843 C327.799,107.843 333.188,113.263 333.188,120.187 C333.188,127.11 327.798,132.499 320.875,132.499 C313.951,132.499 308.531,127.109 308.531,120.186 C308.531,113.263 313.951,107.843 320.876,107.843 L320.875,107.843 Z M251.711,145.856 C256.406,145.934 261.066,147.392 263.891,149.406 C266.717,151.418 267.901,153.211 267.901,156.698 L267.901,184.218 L252.355,175.218 L235.829,184.783 L235.829,156.7 C235.829,152.61 237.087,150.865 239.782,148.975 C242.478,147.085 247.019,145.78 251.712,145.857 L251.711,145.856 Z M243.589,201.886 L243.589,234.614 L169.407,277.824 L140.849,261.362 L243.589,201.886 Z M262.276,202.556 L364.436,261.694 L335.812,278.196 L262.279,235.366 L262.276,202.556 L262.276,202.556 Z M252.288,251.175 L324.544,293.261 L324.542,377.577 L252.289,419.663 L180.033,377.577 L180.036,293.263 L252.29,251.175 L252.288,251.175 Z M252.753,269.505 L195.87,367.656 L195.87,368.38 L252.436,401.357 L309,368.38 L309,302.295 L252.752,269.505 L252.753,269.505 Z M132.759,278.27 L161.345,294.75 L161.345,378.777 L132.759,395.257 L132.759,278.272 L132.759,278.27 Z M371.949,278.938 L371.946,394.586 L343.231,378.033 L343.231,295.493 L371.948,278.938 L371.949,278.938 Z M333.493,393.99 L361.907,410.37 L262.277,468.047 L262.277,435.473 L333.493,393.99 Z M171.723,394.365 L243.587,436.225 L243.587,468.719 L143.377,410.706 L171.722,394.364 L171.723,394.365 Z"></path>
</svg>