<?xml version="1.0" encoding="UTF-8"?>
<svg viewBox="0 0 359 350" version="1.1" xmlns="http://www.w3.org/2000/svg" xmlns:xlink="http://www.w3.org/1999/xlink">
  <title>grace</title>
  <path d="M314.812927,47 C317.360525,72.1752566 312.143142,94.802967 299.160779,114.883131 C288.418413,133.465494 269.475532,149.899639 242.332134,164.185567 C243.625818,164.289863 245.059789,164.316532 246.634048,164.265574 L247.506647,164.23008 L247.506647,164.23008 L248.407072,164.179189 L248.407072,164.179189 L249.335323,164.112901 L249.335323,164.112901 L250.291399,164.031216 L250.291399,164.031216 L251.275301,163.934134 L251.275301,163.934134 L252.287028,163.821654 C252.457968,163.801625 252.630067,163.780953 252.803326,163.759641 L253.856792,163.624066 L253.856792,163.624066 L254.938083,163.473094 L254.938083,163.473094 L256.0472,163.306725 C256.234371,163.277714 256.422702,163.248061 256.612193,163.217766 L257.763048,163.028302 L257.763048,163.028302 L258.941729,162.82344 L258.941729,162.82344 L260.148235,162.603181 L260.148235,162.603181 L261.382567,162.367525 L261.382567,162.367525 L262.644724,162.116472 C262.857403,162.073347 263.07124,162.02958 263.286237,161.985172 L264.590133,161.711023 C264.809768,161.664049 265.030562,161.616433 265.252516,161.568175 L266.59815,161.270931 L266.59815,161.270931 L267.97161,160.95829 L267.97161,160.95829 L269.372895,160.630251 L269.372895,160.630251 L270.802006,160.286816 C271.04251,160.228294 271.284173,160.16913 271.526996,160.109324 L272.997845,159.742793 L272.997845,159.742793 L275.256292,159.164127 L275.256292,159.164127 L276.796706,158.759103 C277.05576,158.690316 277.315974,158.620888 277.577347,158.550818 C271.134324,171.577632 257.481398,179.953075 236.618571,183.677147 L235.810724,183.177007 L235.810724,183.177007 L235.00581,182.699899 L235.00581,182.699899 L233.953688,182.099024 L233.953688,182.099024 L232.902068,181.520677 L232.902068,181.520677 L232.199824,181.145881 L232.199824,181.145881 L231.447088,180.75383 L231.447088,180.75383 L230.646285,180.347455 L230.646285,180.347455 L230.086908,180.070029 L230.086908,180.070029 L229.211378,179.646299 L229.211378,179.646299 L228.604427,179.360019 L228.604427,179.360019 L227.979704,179.071718 L227.979704,179.071718 L227.010866,178.637377 L227.010866,178.637377 L226.344852,178.347825 L226.344852,178.347825 L225.317445,177.91568 L225.317445,177.91568 L224.614629,177.630307 C224.496351,177.582987 224.377512,177.5358 224.258127,177.488764 L223.535385,177.208506 C223.413876,177.162147 223.291851,177.115975 223.169324,177.070008 L222.428271,176.79682 L222.428271,176.79682 L221.675908,176.529431 L221.675908,176.529431 L220.912953,176.268711 L220.912953,176.268711 L220.140125,176.015527 L220.140125,176.015527 L219.358142,175.77075 C219.227089,175.730703 219.095684,175.691042 218.963942,175.651786 L218.169573,175.421247 C218.036544,175.383682 217.903209,175.346557 217.769583,175.309891 L216.964443,175.095546 C216.829709,175.060788 216.694714,175.026525 216.559472,174.992776 L215.745177,174.79658 C213.838804,174.353835 211.889918,174.018772 209.939575,173.841065 C224.860356,181.011378 237.531748,193.149503 246.728649,204.52672 L247.651902,205.680879 L247.651902,205.680879 L248.550913,206.828453 C250.028905,208.734845 251.404698,210.608221 252.672327,212.420687 L253.419877,213.500634 C253.542289,213.679333 253.663608,213.857366 253.783828,214.034707 L254.491902,215.090217 C254.723496,215.439133 254.950645,215.785056 255.1733,216.127761 L255.827737,217.146 L255.827737,217.146 L256.454927,218.143596 L256.454927,218.143596 L257.054582,219.11921 C257.152214,219.279906 257.248687,219.439631 257.343995,219.598355 L257.901812,220.538486 L257.901812,220.538486 L258.431379,221.453287 C258.51727,221.603568 258.601972,221.752739 258.685479,221.90077 L259.172135,222.775067 L259.172135,222.775067 L259.629824,223.620686 C259.703676,223.759159 259.776309,223.896381 259.847717,224.032324 L260.261421,224.832419 L260.261421,224.832419 L260.846163,226.00318 L260.846163,226.00318 L261.244208,226.814948 L261.244208,226.814948 L261.649951,227.656004 L261.649951,227.656004 L262.062049,228.526504 L262.062049,228.526504 L262.479157,229.426606 L262.479157,229.426606 L262.899932,230.356466 L262.899932,230.356466 L263.32303,231.316243 C263.393665,231.478707 263.464341,231.642425 263.53503,231.807399 L263.959093,232.812344 C269.821226,246.92337 275.385877,269.73445 264.645799,303.119254 C257.878643,286.243242 246.646939,271.983265 235.32184,259.832925 L233.96266,258.384978 L233.96266,258.384978 L232.604262,256.95709 C232.37802,256.720769 232.151881,256.485276 231.92588,256.250606 L230.571802,254.85244 L230.571802,254.85244 L229.222702,253.473845 L229.222702,253.473845 L227.880259,252.114628 L227.880259,252.114628 L225.882747,250.11171 L225.882747,250.11171 L223.909655,248.151298 L223.909655,248.151298 L216.975454,241.316171 L216.975454,241.316171 L215.191224,239.545439 L215.191224,239.545439 L213.463514,237.813495 L213.463514,237.813495 L212.345906,236.680089 L212.345906,236.680089 L211.257614,235.563435 L211.257614,235.563435 L210.200318,234.46334 C208.46492,232.643537 206.865663,230.891916 205.437517,229.204424 C197.542429,219.875621 191.819687,209.294113 188.269288,197.459898 C186.144267,216.808203 182.616446,237.071796 177.686384,258.249744 C172.840032,237.438924 169.34948,217.511033 167.212974,198.46607 C163.645011,209.895052 158.025011,220.140966 150.354489,229.204424 C148.783528,231.060665 147.005523,232.994503 145.067018,235.01133 L143.994015,236.11968 C143.812621,236.305788 143.629971,236.492589 143.4461,236.680089 L142.328491,237.813495 L142.328491,237.813495 L140.600782,239.545439 L140.600782,239.545439 L138.210226,241.915147 L138.210226,241.915147 L133.181382,246.867646 L133.181382,246.867646 L130.569949,249.453549 L130.569949,249.453549 L129.245855,250.774595 L129.245855,250.774595 L127.241462,252.791827 L127.241462,252.791827 L125.895481,254.160708 L125.895481,254.160708 L124.543682,255.549064 C124.31799,255.782091 124.092127,256.015937 123.866125,256.250606 L122.508747,257.668539 C122.282336,257.906519 122.055857,258.145331 121.829345,258.384978 L120.470165,259.832925 C120.243663,260.075932 120.017198,260.319783 119.790806,260.564481 L118.4336,262.04288 C107.813335,273.70388 97.5073332,287.255803 91.1462062,303.119254 C81.4413166,272.952262 85.0495496,251.418918 90.1604626,237.136794 L90.5723174,236.009667 C90.98693,234.897957 91.4091441,233.832418 91.8329127,232.812344 L92.2569756,231.807399 L92.2569756,231.807399 L92.6807311,230.832605 C92.7512567,230.672643 92.8217136,230.513931 92.8920736,230.356466 L93.3128484,229.426606 L93.3128484,229.426606 L93.7299565,228.526504 L93.7299565,228.526504 L94.1420539,227.656004 L94.1420539,227.656004 L94.547797,226.814948 L94.547797,226.814948 L95.1415578,225.608229 L95.1415578,225.608229 L95.5305844,224.832419 L95.5305844,224.832419 L95.9442883,224.032324 C96.0871048,223.760438 96.2348204,223.483437 96.3873875,223.201545 L96.8595957,222.341419 C97.0218181,222.049969 97.1888443,221.75385 97.3606265,221.453287 L97.8901936,220.538486 C97.9808169,220.383871 98.0726173,220.228201 98.1655888,220.071503 L98.7374234,219.11921 L98.7374234,219.11921 L99.3370786,218.143596 L99.3370786,218.143596 L99.964268,217.146 L99.964268,217.146 L100.618705,216.127761 C100.84136,215.785056 101.068509,215.439133 101.300104,215.090217 L102.008178,214.034707 C102.128397,213.857366 102.249716,213.679333 102.372128,213.500634 L103.119678,212.420687 C103.246441,212.23944 103.374286,212.057584 103.503206,211.875147 L104.289587,210.773775 L104.289587,210.773775 L105.101499,209.659792 C105.238929,209.473152 105.377411,209.286042 105.516939,209.09849 L106.366608,207.968103 L106.366608,207.968103 L107.241092,206.828453 C107.53669,206.447175 107.836377,206.064576 108.140103,205.680879 L109.063356,204.52672 C109.375115,204.141052 109.690867,203.754509 110.010564,203.367315 L110.981441,202.204003 C119.988751,191.52649 131.943228,180.525255 145.852431,173.841065 C143.902087,174.018772 141.953202,174.353835 140.046828,174.79658 L139.232533,174.992776 C139.097291,175.026525 138.962296,175.060788 138.827563,175.095546 L138.022422,175.309891 L138.022422,175.309891 L137.224283,175.535249 C136.959483,175.612107 136.69597,175.690656 136.433863,175.77075 L135.65188,176.015527 L135.65188,176.015527 L134.879052,176.268711 L134.879052,176.268711 L134.116098,176.529431 L134.116098,176.529431 L133.363735,176.79682 L133.363735,176.79682 L132.622681,177.070008 L132.622681,177.070008 L131.533878,177.488764 L131.533878,177.488764 L130.824241,177.772649 L130.824241,177.772649 L130.128426,178.059292 L130.128426,178.059292 L129.447153,178.347825 L129.447153,178.347825 L128.78114,178.637377 L128.78114,178.637377 L127.812302,179.071718 L127.812302,179.071718 L127.187578,179.360019 L127.187578,179.360019 L126.284042,179.78841 L126.284042,179.78841 L125.705097,180.070029 L125.705097,180.070029 L124.873595,180.484324 L124.873595,180.484324 L123.837603,181.01697 L123.837603,181.01697 L123.118259,181.397843 L123.118259,181.397843 L121.838318,182.099024 L121.838318,182.099024 L120.786195,182.699899 L120.786195,182.699899 L119.872525,183.242844 L119.872525,183.242844 L119.173435,183.677147 L119.173435,183.677147 C98.3106071,179.953075 84.6576818,171.577632 78.2146587,158.550818 L78.9952999,158.759103 L78.9952999,158.759103 L80.5357131,159.164127 L80.5357131,159.164127 L82.0483008,159.553754 L82.0483008,159.553754 L83.5330629,159.927983 C83.7782044,159.989072 84.0221866,160.049519 84.2650093,160.109324 L85.708033,160.460458 L85.708033,160.460458 L87.1232312,160.796195 L87.1232312,160.796195 L88.5106037,161.116535 L88.5106037,161.116535 L89.8701507,161.421478 C90.0944231,161.471018 90.317536,161.519918 90.5394896,161.568175 L91.8572982,161.850022 C92.0746142,161.895714 92.2907708,161.940764 92.5057679,161.985172 L93.7818382,162.243923 L93.7818382,162.243923 L95.0300828,162.487278 L95.0300828,162.487278 L96.2505019,162.715235 L96.2505019,162.715235 L97.4430954,162.927795 C97.6395422,162.961939 97.8348296,162.995441 98.0289576,163.028302 L99.1798127,163.217766 C99.3693031,163.248061 99.5576341,163.277714 99.7448057,163.306725 L100.853922,163.473094 L100.853922,163.473094 L101.935214,163.624066 L101.935214,163.624066 L102.988679,163.759641 C103.161938,163.780953 103.334038,163.801625 103.504978,163.821654 L104.516705,163.934134 L104.516705,163.934134 L105.500606,164.031216 L105.500606,164.031216 L106.456683,164.112901 L106.456683,164.112901 L107.384933,164.179189 L107.384933,164.179189 L108.285358,164.23008 L108.285358,164.23008 L109.157957,164.265574 C110.732216,164.316532 112.166187,164.289863 113.459872,164.185567 C86.3164739,149.899639 67.373592,133.465494 56.631226,114.883131 C43.6488633,94.802967 38.4314809,72.1752566 40.9790787,47 C55.3219788,63.3460391 69.5762561,74.9839357 83.7419108,81.9136896 L85.0546071,82.674125 L85.0546071,82.674125 L87.8764455,84.2951554 L87.8764455,84.2951554 L93.3744399,87.4454592 L93.3744399,87.4454592 L95.0596753,88.416998 L95.0596753,88.416998 L97.6701703,89.9324391 L97.6701703,89.9324391 L99.4606657,90.9809398 L99.4606657,90.9809398 L101.28735,92.0595669 L101.28735,92.0595669 L103.146844,93.1679444 L103.146844,93.1679444 L105.035767,94.305696 L105.035767,94.305696 L106.95074,95.4724455 C130.073185,109.645923 158.092226,130.001715 164.725527,153.61481 C164.959972,149.176173 166.298246,145.175057 168.349726,142.16354 L168.096555,141.81836 L168.096555,141.81836 L167.582237,141.097267 C167.409026,140.850072 167.234043,140.596048 167.057288,140.335195 L166.521705,139.532148 C166.251256,139.12038 165.976821,138.693247 165.698398,138.250749 L165.136238,137.345267 C164.852501,136.882283 164.564777,136.403935 164.273067,135.910224 L163.684332,134.902318 L163.684332,134.902318 L163.084969,133.853444 C162.984189,133.675218 162.882967,133.495285 162.781302,133.313645 L162.165996,132.203324 L162.165996,132.203324 L161.540063,131.052039 L161.540063,131.052039 L160.903504,129.859792 L160.903504,129.859792 L160.256318,128.626585 L160.256318,128.626585 L159.598506,127.352419 L159.598506,127.352419 L158.93007,126.037296 L158.93007,126.037296 C153.326777,114.749611 146.481039,108.026455 138.392858,105.86783 C147.214794,104.298178 154.594769,106.873772 160.532783,113.594615 C165.274889,118.961889 169.345532,127.070571 172.744712,137.92066 C174.268162,137.030297 175.936081,136.539032 177.684629,136.539032 C179.178913,136.539032 180.614313,136.897812 181.950612,137.558139 C185.326265,126.890534 189.359018,118.902192 194.04838,113.594615 C199.986394,106.873772 207.36637,104.298178 216.188306,105.86783 C208.237212,107.989869 201.486803,114.523018 195.937078,125.46728 L195.310765,126.709386 L195.310765,126.709386 L194.638305,128.021964 L194.638305,128.021964 L193.976777,129.292405 L193.976777,129.292405 L193.326179,130.52071 C193.218656,130.721916 193.11159,130.921367 193.004979,131.119062 L192.370777,132.284162 L192.370777,132.284162 L191.747506,133.407126 C191.644538,133.590775 191.542026,133.772669 191.439969,133.952807 L190.833095,135.012566 C190.53239,135.531912 190.235784,136.035456 189.943278,136.5232 L189.36373,137.477618 L189.36373,137.477618 L188.795114,138.389901 C188.701255,138.538436 188.607852,138.685216 188.514904,138.830241 L187.962684,139.679318 C187.507055,140.369326 187.062812,141.015442 186.629955,141.617666 C189.046909,144.878319 190.583188,149.44813 190.679788,154.529246 L190.686384,155.039032 L190.683318,155.081023 C196.265245,131.985971 222.58907,111.914903 245.476116,97.5587072 L247.457043,96.3248121 C247.785557,96.1215855 248.113203,95.9195756 248.439905,95.7187906 L250.388221,94.5288453 L250.388221,94.5288453 L252.31038,93.3686915 C252.628364,93.1778369 252.945111,92.9882401 253.260547,92.7999092 L255.136846,91.6851796 L255.136846,91.6851796 L256.978157,90.6012243 C257.28193,90.4231515 257.584098,90.2463773 257.884587,90.0709099 L259.66679,89.0338534 L259.66679,89.0338534 L262.256826,87.5379363 L262.256826,87.5379363 L270.025096,83.0846393 L270.025096,83.0846393 L272.050095,81.9136896 L272.050095,81.9136896 C286.215749,74.9839357 300.470027,63.3460391 314.812927,47 Z M155.636687,187.94347 C143.461987,190.324353 131.879579,197.864394 120.889463,210.563593 L120.354314,211.248609 L120.354314,211.248609 L119.307528,212.602837 L119.307528,212.602837 L118.291594,213.936908 L118.291594,213.936908 L117.305912,215.251923 C116.982326,215.687208 116.663683,216.1195 116.349882,216.548984 L115.422905,217.829192 C114.814472,218.67729 114.225008,219.514887 113.653714,220.343451 L112.8103,221.579705 C106.585407,230.803549 102.609592,238.977008 99.7450349,248.190438 L99.3695794,249.425241 C99.3080677,249.63213 99.2470798,249.839578 99.1866032,250.047609 L98.8297796,251.302966 L98.8297796,251.302966 L98.4846281,252.573401 C97.7490118,255.34314 97.0913662,258.226809 96.4842588,261.274806 L96.207544,262.693425 L96.207544,262.693425 L95.9374069,264.136483 C95.8928989,264.37909 95.84864,264.622761 95.8046177,264.867519 L95.5432234,266.349298 L95.5432234,266.349298 C95.6279532,266.175916 95.7250253,265.992009 95.8339691,265.797998 L96.0675462,265.396627 L96.0675462,265.396627 L96.3319444,264.96906 C96.3785327,264.895657 96.4263704,264.821194 96.47544,264.745686 L96.7845013,264.280228 L96.7845013,264.280228 L97.122292,263.790444 L97.122292,263.790444 L97.4879757,263.277084 L97.4879757,263.277084 L97.8807155,262.740896 L97.8807155,262.740896 L98.2996748,262.182629 L98.2996748,262.182629 L98.7440171,261.603031 L98.7440171,261.603031 L99.2129055,261.002852 L99.2129055,261.002852 L99.7055035,260.38284 L99.7055035,260.38284 L100.220974,259.743743 L100.220974,259.743743 L101.035237,258.750952 L101.035237,258.750952 L101.896258,257.719432 L101.896258,257.719432 L102.801213,256.651711 L102.801213,256.651711 L103.427529,255.921032 L103.427529,255.921032 L104.399432,254.798589 L104.399432,254.798589 L105.751444,253.256601 L105.751444,253.256601 L106.449628,252.467836 L106.449628,252.467836 L107.886167,250.858508 L107.886167,250.858508 L109.748536,248.794945 L109.748536,248.794945 L112.063942,246.257987 L112.063942,246.257987 L114.4459,243.673922 L114.4459,243.673922 L116.036856,241.95957 L118.41037,239.415683 L118.41037,239.415683 L123.083307,234.441701 L123.083307,234.441701 L133.054329,223.872111 L133.054329,223.872111 L135.507419,221.250481 L135.507419,221.250481 L137.356642,219.255272 L137.356642,219.255272 L138.689762,217.79978 C138.795025,217.68407 138.898784,217.569795 139.001005,217.456988 C146.314395,209.386209 151.859622,199.54837 155.636687,187.94347 Z M200.155319,187.94347 C203.932384,199.54837 209.477611,209.386209 216.791,217.456988 L217.422508,218.15119 L217.422508,218.15119 L218.435363,219.255272 L218.435363,219.255272 L220.284586,221.250481 L220.284586,221.250481 L223.16845,224.330575 L223.16845,224.330575 L233.724728,235.520276 L233.724728,235.520276 L237.381635,239.415683 C238.439569,240.546407 239.495499,241.67882 240.541234,242.805592 L242.540686,244.966994 L242.540686,244.966994 L244.929349,247.57071 L244.929349,247.57071 L246.859262,249.696023 L246.859262,249.696023 L248.719422,251.767842 L248.719422,251.767842 L249.440885,252.578842 L249.440885,252.578842 L250.49612,253.773897 L250.49612,253.773897 L251.516373,254.94086 L251.516373,254.94086 L252.175644,255.70192 L252.175644,255.70192 L253.440085,257.179911 L253.440085,257.179911 L254.337622,258.246699 L254.337622,258.246699 L255.18833,259.274796 L255.18833,259.274796 L255.727991,259.93739 L255.727991,259.93739 L256.244645,260.580825 L256.244645,260.580825 L256.737416,261.204315 L256.737416,261.204315 L257.42987,262.100437 L257.42987,262.100437 L257.859092,262.670631 C257.928407,262.763795 257.996599,262.856012 258.06365,262.947268 L258.45211,263.483129 C258.514522,263.570472 258.575756,263.65682 258.635794,263.742157 L258.981519,264.241918 L258.981519,264.241918 L259.297656,264.716631 L259.297656,264.716631 L259.583329,265.16551 C259.853476,265.601212 260.07661,265.996985 260.248782,266.349298 L260.118757,265.605079 L260.118757,265.605079 L259.854598,264.136483 C259.81009,263.893875 259.765333,263.652332 259.720315,263.41183 L259.446964,261.98113 C256.726181,248.031821 253.007895,237.547132 245.727672,225.815783 L244.974931,224.618284 C244.592321,224.017201 244.200278,223.412483 243.798463,222.80351 L242.981705,221.579705 L242.981705,221.579705 L242.138292,220.343451 C241.566998,219.514887 240.977533,218.67729 240.3691,217.829192 L239.442123,216.548984 C238.814521,215.690017 238.16755,214.819814 237.500411,213.936908 L236.484477,212.602837 L236.484477,212.602837 L235.437692,211.248609 C235.260623,211.021164 235.082244,210.792833 234.902543,210.563593 C223.912427,197.864394 212.330019,190.324353 200.155319,187.94347 Z M73.9178703,109.290815 L77.5010897,115.442185 L77.5010897,115.442185 L78.6151958,117.33822 L78.6151958,117.33822 L79.648859,119.076307 L79.648859,119.076307 L80.3790266,120.285273 L80.3790266,120.285273 L81.0765626,121.420207 L81.0765626,121.420207 L81.7468745,122.487458 L81.7468745,122.487458 L82.1812949,123.164492 L82.1812949,123.164492 L82.6076213,123.816148 L82.6076213,123.816148 L83.0274558,124.444306 L83.0274558,124.444306 L83.4424007,125.050848 C83.5112397,125.150241 83.5799418,125.248813 83.6485402,125.346601 L84.0591549,125.924245 L84.0591549,125.924245 L84.4688854,126.484975 L84.4688854,126.484975 L84.8793341,127.030673 L84.8793341,127.030673 L85.2921031,127.56322 L85.2921031,127.56322 L85.7087947,128.084496 L85.7087947,128.084496 L86.1310111,128.596383 L86.1310111,128.596383 L86.5603544,129.100762 L86.5603544,129.100762 L86.998427,129.599513 C87.0722556,129.682274 87.1465146,129.764879 87.2212375,129.847367 L87.6754081,130.341205 L87.6754081,130.341205 L88.1423134,130.834118 L88.1423134,130.834118 L88.6235557,131.327989 L88.6235557,131.327989 L89.1207372,131.824697 L89.1207372,131.824697 L89.6354602,132.326124 L89.6354602,132.326124 L90.1693267,132.834151 L90.1693267,132.834151 L90.7239391,133.35066 L90.7239391,133.35066 L91.3008996,133.87753 L91.3008996,133.87753 L91.9018104,134.416644 L91.9018104,134.416644 L92.8515881,135.252386 L92.8515881,135.252386 L93.8642665,136.126256 L93.8642665,136.126256 L94.945253,137.044604 L94.945253,137.044604 L96.5021716,138.349227 L96.5021716,138.349227 L99.1113068,140.508501 L99.1113068,140.508501 L103.726582,144.303196 L103.726582,144.303196 C118.266147,155.842517 133.51419,160.997802 149.470711,159.769051 C146.541016,150.74669 142.547041,143.009742 137.488786,136.558205 C136.645743,135.482949 135.790652,134.36397 134.923511,133.201268 L133.877159,131.785039 C130.720752,127.473389 127.408189,122.59509 123.939472,117.150141 L122.777449,115.31417 L122.777449,115.31417 L121.603859,113.436226 C121.407297,113.119738 121.210253,112.8015 121.012727,112.481514 C121.290571,123.859239 123.889503,133.401876 128.809523,141.109426 L127.150548,140.212381 L127.150548,140.212381 L124.095499,138.543056 L124.095499,138.543056 L120.926789,136.786248 L120.926789,136.786248 L118.501392,135.424038 L118.501392,135.424038 L110.613123,130.943929 L110.613123,130.943929 L108.596833,129.821583 L108.596833,129.821583 L107.680282,129.320644 C105.996356,128.406513 104.287227,127.514292 102.373963,126.570504 L96.8065881,123.82716 L96.8065881,123.82716 L95.406888,123.128317 L93.5349775,122.182781 C92.5858074,121.699702 91.619815,121.20212 90.6504996,120.694373 L89.327914,119.996098 L89.327914,119.996098 L88.0362102,119.302513 L88.0362102,119.302513 L86.8092027,118.631438 L86.8092027,118.631438 L85.5980743,117.955554 L85.5980743,117.955554 L84.8025724,117.503288 L84.8025724,117.503288 L84.0187706,117.050378 L84.0187706,117.050378 L83.2485262,116.597419 C83.1213851,116.521955 82.9948862,116.446514 82.8690683,116.371108 L82.1226419,115.919196 L82.1226419,115.919196 L81.3944156,115.468728 L81.3944156,115.468728 L80.6862465,115.0203 C80.569993,114.945766 80.4546525,114.871341 80.3402638,114.797038 L79.6656626,114.352791 L79.6656626,114.352791 L79.0157614,113.912077 L79.0157614,113.912077 L78.3924174,113.475492 L78.3924174,113.475492 L77.7974875,113.043634 C75.9604925,111.684196 74.5788288,110.404828 73.9178703,109.290815 Z M281.874135,109.290815 C281.352326,110.170299 280.381323,111.152843 279.091706,112.196483 L278.559176,112.617099 C278.467692,112.687711 278.37487,112.75857 278.280747,112.829663 L277.700721,113.258935 L277.700721,113.258935 L277.091352,113.693231 C276.987448,113.765999 276.882399,113.838952 276.776244,113.912077 L276.126343,114.352791 L276.126343,114.352791 L275.451742,114.797038 L275.451742,114.797038 L274.754298,115.244222 L274.754298,115.244222 L274.035868,115.693744 C273.914484,115.768826 273.792303,115.843981 273.669363,115.919196 L272.922937,116.371108 L272.922937,116.371108 L271.773235,117.050378 L271.773235,117.050378 L270.989433,117.503288 L270.989433,117.503288 L270.193931,117.955554 L270.193931,117.955554 L268.982803,118.631438 L268.982803,118.631438 L267.755795,119.302513 L267.755795,119.302513 L266.464091,119.996098 L265.141506,120.694373 C264.17219,121.20212 263.206198,121.699702 262.257028,122.182781 L260.385117,123.128317 L258.465307,124.085368 L258.465307,124.085368 L253.418043,126.570504 L253.418043,126.570504 C251.778102,127.379465 250.288138,128.15054 248.835471,128.930001 L247.195173,129.821583 L247.195173,129.821583 L246.335812,130.296897 L246.335812,130.296897 L245.166467,130.95091 L245.166467,130.95091 L237.076999,135.544586 L237.076999,135.544586 L234.573983,136.948815 L234.573983,136.948815 L232.751212,137.96123 L232.751212,137.96123 L230.275923,139.322182 L230.275923,139.322182 L227.557605,140.799164 C227.367703,140.901735 227.176007,141.005151 226.982483,141.109426 C231.902502,133.401876 234.501434,123.859239 234.779279,112.481514 C234.384227,113.121487 233.991102,113.754464 233.599906,114.380445 L232.432099,116.237402 L232.432099,116.237402 L231.27586,118.052385 C230.317147,119.547382 229.370483,120.998656 228.435868,122.406207 L227.320113,124.07428 L227.320113,124.07428 L226.215926,125.70038 C223.836051,129.178125 221.537627,132.360302 219.320654,135.246911 L218.303219,136.558205 C213.244964,143.009742 209.250989,150.74669 206.321294,159.769051 C222.277815,160.997802 237.525858,155.842517 252.065423,144.303196 L258.028433,139.396044 L258.028433,139.396044 L259.289834,138.349227 L259.289834,138.349227 L260.846752,137.044604 L260.846752,137.044604 L261.927739,136.126256 L261.927739,136.126256 L262.610114,135.539126 L262.610114,135.539126 L263.580258,134.69138 L263.580258,134.69138 L264.193744,134.145439 L264.193744,134.145439 L265.068066,133.35066 L265.068066,133.35066 L265.622679,132.834151 L265.622679,132.834151 L266.156545,132.326124 L266.156545,132.326124 L266.671268,131.824697 L266.671268,131.824697 L267.16845,131.327989 L267.16845,131.327989 L267.649692,130.834118 L267.649692,130.834118 L268.116597,130.341205 L268.116597,130.341205 L268.570768,129.847367 L268.570768,129.847367 L269.013806,129.350723 C269.086807,129.267611 269.159411,129.184304 269.231651,129.100762 L269.660994,128.596383 L269.660994,128.596383 L270.083211,128.084496 L270.083211,128.084496 L270.499902,127.56322 L270.499902,127.56322 L270.912671,127.030673 L270.912671,127.030673 L271.32312,126.484975 L271.32312,126.484975 L271.732851,125.924245 L271.732851,125.924245 L272.143465,125.346601 L272.143465,125.346601 L272.556566,124.750162 L272.556566,124.750162 L272.973756,124.133047 L272.973756,124.133047 L273.396636,123.493375 L273.396636,123.493375 L273.826809,122.829265 L273.826809,122.829265 L274.265877,122.138836 L274.265877,122.138836 L274.944663,121.04973 L274.944663,121.04973 L275.412979,120.285273 L275.412979,120.285273 L276.394722,118.65577 L276.394722,118.65577 L277.17681,117.33822 L277.17681,117.33822 L278.290916,115.442185 L278.290916,115.442185 L281.874135,109.290815 L281.874135,109.290815 Z"></path>
</svg>