<?xml version="1.0" encoding="UTF-8"?>
<svg viewBox="0 0 512 512" version="1.1" xmlns="http://www.w3.org/2000/svg" xmlns:xlink="http://www.w3.org/1999/xlink">
  <title>Path</title>
  <path d="M366.688,30.027 C365.678,30.017 364.666,30.017 363.654,30.031 L363.656,30.031 C322.161,30.594 280.022,52.186 252.812,99.313 C210.9,-18.457 16.322,23.023 20.812,163.813 C21.452,183.881 25.944,202.8 33.266,220.73 L109.716,220.73 L130.936,146.604 L157.311,236.738 L175.771,172.426 L193.009,220.729 L328.1,220.729 L349.322,146.603 L375.697,236.733 L394.157,172.425 L411.395,220.728 L483.912,220.728 C491.009,202.545 494.839,183.592 494.219,163.811 C491.609,80.771 430.345,30.729 366.686,30.025 L366.688,30.027 Z M131.125,211.338 L123.283,238.73 L41.703,238.73 C96.213,341.736 239.44,411.32 257.875,480.125 C274.657,417.505 422.945,340.643 475.73,238.729 L398.707,238.729 L396.017,231.187 L375.863,301.395 L349.51,211.341 L341.67,238.728 L180.32,238.728 L177.63,231.188 L157.48,301.394 L131.125,211.338 L131.125,211.338 Z"></path>
</svg>