<?xml version="1.0" encoding="UTF-8"?>
<svg viewBox="0 0 512 512" version="1.1" xmlns="http://www.w3.org/2000/svg" xmlns:xlink="http://www.w3.org/1999/xlink">
  <title>inventory</title>
  <path d="M363.783,23.545 C354.001,23.602 347.2,26.592 343.039,33.765 C325.529,63.945 304.607,95.41 294.487,131.01 C297.323,131.84 300.122,132.797 302.86,133.863 C310.213,136.726 317.24,140.345 323.402,144.721 C350.936,119.179 381.567,99.511 410.852,79.259 C422.208,71.405 423.125,65.675 421.035,58.429 C418.945,51.183 411.167,42.064 400.51,35.253 C389.852,28.443 376.64,23.923 365.78,23.573 C365.1,23.551 364.435,23.543 363.783,23.545 L363.783,23.545 Z M294.785,24.291 C284.765,24.109 276.993,30.684 270.861,44.531 C261.921,64.725 260.649,97.967 269.415,127.716 C269.571,127.708 269.725,127.693 269.882,127.686 C271.872,127.599 273.872,127.614 275.882,127.716 C285.318,92.894 303.848,62.996 319.895,36.188 C309.585,27.692 301.021,24.406 294.787,24.292 L294.785,24.291 Z M197.5,82.5 L187,97.97 C201.82,108.01 216.056,117.695 226.813,129.344 C230.729,133.584 234.183,138.066 237.123,142.951 C240.893,138.221 245.633,134.573 250.813,132.159 C251.22,131.971 251.633,131.804 252.041,131.629 C248.618,126.189 244.737,121.211 240.531,116.657 C227.765,102.83 212.29,92.52 197.5,82.5 Z M421.27,94.77 C392.015,114.998 362.695,133.922 336.922,157.55 C337.36,158.126 337.77,158.718 338.18,159.31 C358.86,152.56 387.666,143.977 412.096,139.9 C423.58,137.984 427.756,133.348 429.67,126.672 C431.584,119.996 430.117,109.962 424.354,99.689 C423.43,98.042 422.394,96.399 421.271,94.769 L421.27,94.77 Z M197.332,142.64 C182.382,142.84 167.6,146.94 153.375,155.406 L162.938,171.436 C184.595,158.546 205.564,157.303 228.17,166.873 C228.69,161.281 229.935,156.213 231.898,151.663 C232.248,150.857 232.628,150.077 233.021,149.309 C221.151,144.789 209.191,142.482 197.333,142.639 L197.332,142.64 Z M273.132,146.574 C267.554,146.491 262.535,147.316 258.705,149.1 C254.328,151.138 251.239,154.014 249.057,159.07 C248.173,161.117 247.485,163.61 247.072,166.564 C247.528,166.557 247.982,166.534 248.437,166.531 C264.49,166.447 281.024,169.301 297.75,175.721 C305.464,178.681 312.812,183.174 319.797,188.905 C323.014,186.46 324.787,184.185 325.57,182.37 C326.78,179.572 326.665,177.186 324.936,173.55 C321.476,166.275 309.729,156.595 296.08,151.28 C289.256,148.622 282.1,147.056 275.557,146.666 C274.739,146.616 273.93,146.586 273.133,146.574 L273.132,146.574 Z M248.375,185.030445 C225.393,185.106 203.653,192.417 183.375,204.813 C150.93,224.648 122.81,257.937 103.031,294.845 C83.254,331.753 71.898,372.255 71.8447968,405.375 C71.792,438.435 82.105,462.645 104.657,473.157 C104.7,473.177 104.739,473.2 104.782,473.22 L104.814,473.22 C129.686,484.73 170.43,492.557 213.221,493.312 C256.011,494.068 301.011,487.855 335.095,473.125 C357.055,463.635 369.64,444.673 375.595,418.969 C381.549,393.264 380.113,361.312 373.22,329.655 C366.326,297.998 354.02,266.595 339.125,241.78 C324.231,216.966 306.511,199.116 291.062,193.187 C276.398,187.56 262.164,184.987 248.375,185.030445 Z"></path>
</svg>