<?xml version="1.0" encoding="UTF-8"?>
<svg width="80px" height="82px" viewBox="0 0 80 82" version="1.1" xmlns="http://www.w3.org/2000/svg" xmlns:xlink="http://www.w3.org/1999/xlink">
    <title>Shape</title>
    <g id="Page-1" stroke="none" stroke-width="1" fill="none" fill-rule="evenodd">
        <path d="M37.9361872,5.2348947 L38.2042619,5.15997254 L39.3729656,4.8480522 L39.9048609,4.71509577 L40.4040169,4.5978505 L40.984472,4.4738166 L40.984472,4.4738166 L41.5196561,4.37532105 L41.9174052,4.3152817 C41.9815496,4.30668215 42.0446437,4.29879001 42.1067223,4.29161115 L42.4672879,4.25714425 L42.8051566,4.24007754 C44.1679826,4.20560758 44.9833331,4.63159819 45.7960502,5.60968445 L45.9913307,5.8550723 L46.1881839,6.12194213 L46.4581558,6.5155349 L46.6180022,6.76659344 L46.7730522,7.0274029 L46.9912085,7.42384038 L47.1099319,7.65200065 L47.3060105,8.04301014 L47.7890677,9.05050336 L48.56985,10.7282054 C48.7206466,11.0542609 48.8593532,11.3752148 49.0011547,11.7259146 L49.2180763,12.2786296 L49.451029,12.9020988 L50.1285486,14.7682561 L50.3265951,15.2837215 L52.0605717,19.5978801 L54.5944132,25.8374624 L59.1696909,37.026158 L59.9779057,35.7012703 L60.5980132,34.6582977 L60.7487355,34.3945334 L60.8620696,34.187243 C61.0500748,33.8302292 61.2134937,33.4911493 61.3558958,33.1604088 L61.4914245,32.8320927 C62.9492051,29.1392444 65.4496703,28.499868 68.9717244,30.2668672 L69.4590962,30.5178687 C72.761981,32.2671912 73.782691,33.8857445 72.578284,37.3064831 L72.1361308,38.5158107 L71.909456,39.1564879 L71.6876416,39.801987 L71.4692175,40.4568444 L71.0366599,41.8127796 L70.8195865,42.5229301 L70.4888487,43.6411432 L70.1475475,44.8365503 L69.6674724,46.576968 L69.0106513,49.0390379 L67.8236225,53.5754629 L67.5582413,54.5681667 L67.1698055,55.973636 L67.1698055,55.973636 L66.8523715,57.0722133 L66.8523715,57.0722133 L66.5381377,58.1086014 L66.4128168,58.506553 L66.4128168,58.506553 L66.161991,59.2752643 L65.9099228,60.0092612 L65.7830489,60.3638199 L65.7830489,60.3638199 L65.5268737,61.0492136 C64.322441,64.1760688 62.9797053,66.3199835 60.9514396,68.326898 L60.6946909,68.575158 L60.7478771,68.7737202 C61.610207,72.1293826 61.0463902,73.6618226 58.3618637,74.5006989 L57.4912931,74.75426 L54.0396953,75.7412006 L50.3322559,76.7873282 L32.9041105,81.6273475 C32.0039759,81.8779573 31.1211175,81.1778274 31.1600595,80.244269 C31.2411017,78.3014376 30.5965663,77.1098125 28.6247214,75.4160361 L28.1458447,75.0156802 L27.6182012,74.5940735 L26.6394046,73.8354055 L26.1665278,73.4609389 L25.8933936,73.2376848 L25.6336976,73.0187847 C21.8864101,69.8109867 19.7265362,67.1852006 18.4018506,63.6745134 C14.2066294,52.5563033 11.6159323,40.5457313 10.1253491,26.624367 L10.0963817,26.3398309 L10.0495333,25.7884337 L10.0178837,25.2602599 C9.81544742,20.8806906 11.3048261,18.959406 15.8566985,18.3675478 C15.5854198,17.1849645 15.5087606,15.8914763 15.5601328,14.2332983 L15.5916861,13.4613287 C15.6049387,13.1952208 15.6208521,12.9200419 15.6392041,12.6349331 C15.8589722,9.22074099 17.3582145,7.92787879 20.7861959,7.08774178 L21.3149398,6.96490809 L22.7169988,6.67333907 L23.1637136,6.57090689 L23.4146228,6.50619819 L23.643972,6.44021429 L23.8045666,6.38824118 C24.0211634,3.78858564 25.6844418,2.17461298 28.9963535,1.29806816 C32.7540878,0.303530848 36.2784487,1.86225486 37.8310847,5.01253734 L37.9361872,5.2348947 Z M29.7005413,3.95875218 C26.590707,4.78181433 25.9654854,5.93325415 26.9031002,9.35559321 L28.4899056,14.9836362 L30.122005,20.9320812 L33.8871131,34.8351284 C34.0870889,35.5683729 33.6547891,36.3248975 32.9215446,36.5248733 C32.1883001,36.724849 31.4317756,36.2925493 31.2317998,35.5593048 L26.6938354,18.8239293 L25.2159255,13.4945499 L24.3249435,10.3552339 C24.2096167,9.95219632 24.1122788,9.56363451 24.0332374,9.18917034 L23.8711209,9.23178863 L23.5386831,9.31052755 L22.711774,9.48620442 L22.1455831,9.60104395 L21.6433359,9.71017696 C21.5634708,9.72838172 21.4854984,9.74662357 21.4093754,9.76494619 L20.9744852,9.87620078 C19.1142395,10.3843542 18.53927,11.0150956 18.3995858,12.6283868 L18.3620969,13.2001587 L18.325642,13.9333978 L18.3045874,14.6123078 C18.2697892,16.3543839 18.4090239,17.5660083 18.8003964,18.6396514 L19.1048692,19.4934878 L19.2979721,20.0571356 L19.5767696,20.9072177 L19.7577076,21.4845813 L20.0256858,22.3795651 L20.2043629,23.0030818 L20.3849088,23.6541422 L20.662698,24.6937303 L20.8548486,25.4363559 L21.2629795,27.0639229 L22.4846843,32.108924 L22.9044135,33.7875707 L23.2077781,34.9499575 L23.4962031,36.0013529 L23.7104235,36.744537 L24.0035272,37.7116003 L24.2359675,38.4439891 C24.4695576,39.1672273 24.0726194,39.9428899 23.3493812,40.17648 C22.626143,40.4100701 21.8504804,40.0131319 21.6168903,39.2898937 L21.4546198,38.7817598 L21.2225453,38.0320401 L20.9256349,37.0250485 L20.7051525,36.2387276 L20.4035625,35.1113855 L20.0812175,33.8510238 L19.6290665,32.0173293 L18.5977828,27.7516269 L18.1987886,26.1595596 L17.9199953,25.0874782 L17.6529878,24.1010087 L17.4789774,23.4825099 L17.2201236,22.600861 L17.0467616,22.0364651 L16.8709782,21.4848749 L16.721,21.033 L16.3585393,21.0674494 L15.9509657,21.1137388 L15.5724592,21.1665604 C13.4475695,21.4955542 12.7613221,22.2056132 12.7263838,24.1305383 L12.7263838,24.4725818 L12.7387504,24.8393602 L12.7618706,25.231807 L12.7951068,25.6508556 L12.8375776,26.0974396 L12.8620005,26.3313491 C14.3294046,40.0362317 16.8720757,51.8241536 20.9769262,62.7028623 C22.0648043,65.5859614 23.8573623,67.8229951 27.0490132,70.6045134 L27.5384989,71.0255817 L27.9044281,71.3266158 L28.5159213,71.8082382 L29.3236938,72.4339659 L29.9039556,72.8985444 C32.2322357,74.8029234 33.4487881,76.3400736 33.8062289,78.4410769 L33.8176909,78.516158 L48.0091379,74.5796697 L51.844738,73.5022919 L56.0553778,72.3033905 L57.6051674,71.8552533 L57.7885112,71.7955375 C58.3026086,71.6156165 58.4950412,71.4133182 58.412818,70.7723995 L58.3753023,70.5419437 L58.3178286,70.2755716 L58.2407839,69.9698574 L58.0893673,69.4300255 L57.822591,68.5405773 C57.6659861,68.0265441 57.822908,67.4683761 58.2244276,67.1112526 C58.4350508,66.923918 58.6380221,66.7359232 58.8339705,66.5462284 L59.2166903,66.1642639 C60.5247416,64.8172976 61.5092334,63.3530577 62.3859985,61.4148532 L62.633758,60.8478754 C62.7563585,60.5576298 62.8771799,60.2570183 62.9968517,59.9450008 L63.2348486,59.3054497 L63.4708982,58.6336341 L63.7061191,57.9277051 L63.8237684,57.5613704 L63.8237684,57.5613704 L64.0598438,56.8008051 L64.2978872,56.0015047 L64.5390173,55.1616203 L64.908947,53.8216548 L66.6274636,47.2855207 L67.1443988,45.3671407 L67.3885757,44.4822523 L67.7412187,43.2347663 L67.969432,42.4495834 L68.3051986,41.3299381 L68.6376256,40.2661483 L68.9718026,39.2425775 L69.1980729,38.574819 L69.5464768,37.5835317 L69.9751473,36.4138723 L70.0884708,36.0835979 C70.5470864,34.6645869 70.2978015,34.1232889 68.7408431,33.2523545 L68.3730831,33.0528967 L67.737523,32.7269214 L67.3553869,32.5412814 C65.5237524,31.6846716 64.8508633,31.9116947 64.1243434,33.6625087 L64.0514678,33.8426857 C63.8409981,34.3758515 63.5923318,34.9094773 63.297334,35.4696653 L63.1461897,35.7454301 L62.827957,36.2959815 L62.1332968,37.4555 L60.1135508,40.7582513 C59.5384255,41.744173 58.0821641,41.6416929 57.6507858,40.5849415 L50.4675743,22.9973653 L48.5956209,18.3629771 L47.7141749,16.1609214 L47.439144,15.4313111 L46.781715,13.6186471 L46.5941181,13.1235533 L46.4182747,12.6810289 L46.2466684,12.2735351 L46.0717831,11.8835327 L45.2109445,10.0372737 L44.7710282,9.1287339 L44.5428371,8.68580677 L44.3934003,8.41480677 L44.2090313,8.10770053 L43.9759435,7.76052146 L43.8303444,7.56688383 L43.7332947,7.45348977 L43.633658,7.35278106 L43.633658,7.35278106 L43.5292056,7.26486675 C43.493338,7.2377065 43.4562963,7.21269682 43.4177091,7.18985588 L43.2969397,7.12785748 C43.1497662,7.06315903 42.9791105,7.02525033 42.7690474,7.01491057 L42.578971,7.01281765 L42.4759982,7.01686895 L42.4759982,7.01686895 L42.1931895,7.04197498 L42.1931895,7.04197498 L41.8706459,7.0886482 L41.5810769,7.14165827 L41.2610631,7.20871668 L40.9083761,7.28993247 L40.3132079,7.43853977 L39.6319887,7.61961452 L38.68,7.885 L38.8273137,8.56540994 L39.0432872,9.5199388 L39.2699272,10.4714961 L39.5095929,11.4288032 L39.7646438,12.4005816 L40.0374393,13.3955527 L40.3303387,14.4224379 L40.7562221,15.8563364 L41.2276331,17.3831488 L41.6144331,18.601669 L42.3294083,20.7982076 L43.4963723,24.289105 L45.5298239,30.3019618 L45.7929192,31.0963258 C46.0310456,31.8180831 45.6389853,32.5962227 44.917228,32.8343491 C44.1954707,33.0724755 43.4173311,32.6804152 43.1792047,31.9586579 L41.9117669,28.1830381 L40.5250094,24.0903786 L39.8586908,22.0935832 L39.2564951,20.2574679 L38.8435202,18.97317 L38.3399043,17.3676141 L38.1066528,16.6047074 L37.7779789,15.5027891 L37.4726241,14.4439103 L37.1881976,13.4191944 L36.9223089,12.4197644 L36.6725673,11.4367436 L36.3605641,10.1362319 L36.3605641,10.1362319 L36.2119627,9.48442222 C36.0654737,8.83077953 35.9249682,8.17032267 35.7872585,7.49121593 C35.2148366,4.66834871 32.6627668,3.17475748 29.7005413,3.95875218 Z" id="Shape" fill="#000000" fill-rule="nonzero"></path>
    </g>
</svg>