<?xml version="1.0" encoding="UTF-8"?>
<svg viewBox="0 0 512 512" version="1.1" xmlns="http://www.w3.org/2000/svg" xmlns:xlink="http://www.w3.org/1999/xlink">
  <title>meat</title>
  <path d="M440.156,98.063 C436.106,97.953 432.112,99.18 428.5,102.063 C426.958,103.293 425.4,104.947 424.03,106.813 C401.13,138.033 375.752,164.143 348.844,187.813 C340.084,202.505 359.539,232.219 374.438,232.219 C408.582,219.291 444.055,209.703 481.188,205.905 C523.816,201.547 498.876,137.771 454.938,160.435 C485.238,137.769 462.032,98.645 440.156,98.061 L440.156,98.063 Z M310.47,108.156 C304.303,108.048 298.255,109.328 292.875,112.436 C291.299,113.348 289.833,114.384 288.469,115.531 C288.431,115.475 288.379,115.401 288.343,115.345 C208.431,181.747 172.009,188.813 130.123,202.189 C123.237,204.389 117.853,209.369 113.623,217.689 C109.393,226.009 106.731,237.532 106.28,250.814 C105.38,277.377 113.215,310.741 130,339.844 C146.72,368.834 173.37,393.79 197.656,406.97 C209.799,413.56 221.338,417.137 230.031,417.406 C238.725,417.676 243.946,415.456 247.813,410.031 C278.799,366.581 337.156,340.979 403.97,317.781 C403.965,317.775 403.973,317.758 403.97,317.751 C405.982,317.088 407.937,316.241 409.812,315.157 C418.012,310.419 423.347,302.26 426.094,293.032 C428.841,283.805 429.314,273.282 428.124,261.782 C427.171,252.549 425.091,242.655 421.969,232.408 C416.053,233.774 410.341,235.565 404.061,237.878 C406.896,247.128 408.751,255.856 409.561,263.688 C410.568,273.428 409.964,281.748 408.186,287.721 C406.409,293.693 403.774,297.059 400.468,298.971 C397.16,300.881 392.925,301.476 386.873,300.031 C380.821,298.588 373.323,294.961 365.403,289.221 C349.565,277.739 332.069,257.998 317.779,233.221 C303.489,208.441 295.169,183.383 293.155,163.907 C292.149,154.169 292.752,145.88 294.53,139.907 C296.31,133.934 298.944,130.537 302.25,128.627 C303.903,127.67 305.77,127.047 308,126.845 C308.557,126.795 309.147,126.778 309.75,126.782 C311.56,126.796 313.574,127.054 315.844,127.596 C321.894,129.04 329.362,132.636 337.281,138.376 C345.499,144.333 354.165,152.542 362.595,162.502 C367.665,158.447 371.935,154.252 376.001,149.314 C367.031,138.854 357.635,130.054 348.251,123.252 C338.897,116.472 329.518,111.642 320.157,109.408 C317.817,108.85 315.483,108.473 313.127,108.283 C312.242,108.213 311.351,108.175 310.47,108.159 L310.47,108.156 Z M318.437,142.344 C317.999,142.368 317.577,142.407 317.157,142.469 C299.83,145.009 302.187,178.504 322.187,217.029 C342.187,255.557 372.707,284.605 390.031,282.061 C396.026,281.181 399.294,276.374 400.689,269.186 C399.019,271.373 396.842,272.67 393.969,273.093 C378.653,275.341 351.653,250 333.969,215.937 C316.287,181.873 314.715,152.027 330.032,149.78 C333.67,149.25 337.722,150.197 342.377,152.562 C333.697,145.762 325.024,141.979 318.439,142.344 L318.437,142.344 Z M102,325.124 C85.445,326.968 66.696,328.384 44.937,329.5 C-4.191,332.023 19.382,401.076 75.031,381.72 C25.666,411.62 78.891,468.647 102.001,428.47 C112.363,410.454 123.881,394.68 136.376,380.656 C127.956,371.012 120.298,360.432 113.813,349.186 C109.293,341.351 105.351,333.288 102.001,325.126 L102,325.124 Z"></path>
</svg>