<?xml version="1.0" encoding="UTF-8"?>
<svg viewBox="0 0 359 350" version="1.1" xmlns="http://www.w3.org/2000/svg" xmlns:xlink="http://www.w3.org/1999/xlink">
  <title>midnight</title>
  <path d="M260.710346,78.8615107 C274.88722,96.761846 283.352201,119.392372 283.352201,144 C283.352201,190.810855 252.7199,230.467152 210.407102,244.017087 C211.38872,246.604402 212.367025,249.090586 213.342074,251.475394 C258.624283,236.746 291.352201,194.195007 291.352201,144 C291.352201,130.270201 288.903557,117.112314 284.41915,104.939219 L283.853949,103.435501 C292.475891,120.048386 297.352201,138.949946 297.352201,159 C297.352201,219.026514 253.645653,268.759034 196.573011,277.602144 C190.830004,285.023075 184.954228,293.701062 178.944767,303.631041 L178.360155,304.600031 L178.352201,304.622217 L178.349155,304.617031 L178.346978,304.622217 L178.338155,304.600031 L177.754413,303.631041 C171.744726,293.700689 165.868735,285.022423 160.126439,277.596245 C103.055686,268.755548 59.3522013,219.024411 59.3522013,159 C59.3522013,138.949946 64.2285118,120.048386 72.8504538,103.435501 C68.007292,116.026387 65.3522013,129.703129 65.3522013,144 C65.3522013,194.195007 98.0801198,236.746 143.360929,251.477949 C144.336475,249.091979 145.315268,246.604576 146.29731,244.015737 C103.98442,230.467045 73.3522013,190.810792 73.3522013,144 C73.3522013,119.392372 81.8171824,96.761846 95.9940565,78.8615107 C86.0974744,94.1712573 80.3522013,112.414688 80.3522013,132 C80.3522013,177.163714 110.903452,215.1918 152.466778,226.545083 L153.10318,224.608106 L153.10318,224.608106 L153.740462,222.643543 L153.740462,222.643543 L154.378626,220.651393 L154.378626,220.651393 L155.01767,218.631656 L155.01767,218.631656 L155.657596,216.584333 L155.657596,216.584333 L156.298403,214.509422 L156.298403,214.509422 L157.261266,211.345329 L157.261266,211.345329 L157.904277,209.20145 L157.904277,209.20145 L158.870446,205.933903 L158.870446,205.933903 L159.515662,203.721054 L159.515662,203.721054 L160.16176,201.480616 L160.16176,201.480616 L160.80874,199.21259 L160.80874,199.21259 L161.456602,196.916975 L161.456602,196.916975 L162.105347,194.59377 L162.105347,194.59377 L163.08012,191.057235 L163.08012,191.057235 L163.731072,188.665057 L163.731072,188.665057 L164.382907,186.24529 L164.382907,186.24529 L165.362316,182.563909 L165.362316,182.563909 L166.01636,180.075167 L166.01636,180.075167 L166.671287,177.558834 L166.671287,177.558834 L167.655335,173.732603 L167.655335,173.732603 L168.641371,169.844293 L168.641371,169.844293 L169.629397,165.893903 L169.629397,165.893903 L170.619413,161.881431 L170.619413,161.881431 L171.611419,157.806878 L171.611419,157.806878 L172.605415,153.670243 L172.605415,153.670243 L173.601403,149.471526 L173.601403,149.471526 L174.599383,145.210724 L174.599383,145.210724 L175.599355,140.887839 L175.599355,140.887839 L176.601319,136.502868 L176.601319,136.502868 L177.605277,132.055812 L177.605277,132.055812 L178.352201,128.714501 L178.353184,128.721828 L179.433917,133.545069 L179.433917,133.545069 L180.103001,136.50288 L180.103001,136.50288 L180.7712,139.433097 L180.7712,139.433097 L181.771837,143.776683 L181.771837,143.776683 L182.43782,146.637915 L182.43782,146.637915 L183.435133,150.878024 L183.435133,150.878024 L184.098901,153.67027 L184.098901,153.67027 L185.092892,157.806901 L185.092892,157.806901 L186.084888,161.881445 L186.084888,161.881445 L186.745112,164.563315 L186.745112,164.563315 L187.733786,168.534381 L187.733786,168.534381 L188.391794,171.147266 L188.391794,171.147266 L189.377144,175.014855 L189.377144,175.014855 L190.032937,177.558754 L190.032937,177.558754 L190.687844,180.07506 L190.687844,180.07506 L191.341864,182.563771 L191.341864,182.563771 L191.994999,185.024889 L191.994999,185.024889 L192.973039,188.664826 L192.973039,188.664826 L193.623958,191.056958 L193.623958,191.056958 L194.273991,193.421496 L194.273991,193.421496 L194.923137,195.75844 L194.923137,195.75844 L195.895196,199.212117 L195.895196,199.212117 L196.542127,201.480075 L196.542127,201.480075 L197.188173,203.72044 L197.188173,203.72044 L198.155579,207.029248 L198.155579,207.029248 L199.120992,210.275969 L199.120992,210.275969 L199.763493,212.405957 L199.763493,212.405957 L200.405107,214.508351 L200.405107,214.508351 L201.045836,216.583151 L201.045836,216.583151 L201.685678,218.630357 L201.685678,218.630357 L202.324634,220.649969 L202.324634,220.649969 L202.962705,222.641987 L202.962705,222.641987 L203.599889,224.60641 L203.599889,224.60641 L204.236186,226.54324 L204.236186,226.54324 C245.801019,215.191715 276.352201,177.163663 276.352201,132 C276.352201,112.810615 270.836867,94.9094059 261.30492,79.7950916 L260.710346,78.8615107 Z M178.34959,183.648111 L156.87492,254.961901 L157.64046,255.705611 C166.254392,264.110754 173.010697,271.963177 177.909373,279.26288 L178.34959,279.924966 L178.776776,279.281839 C183.672236,271.983093 190.425324,264.131627 199.03604,255.727441 L199.823949,254.961901 L178.34959,183.648111 Z M178.352201,45 C221.430412,45 256.352201,79.9217895 256.352201,123 C256.352201,147.247453 245.288169,168.910762 227.933184,183.21685 L227.406201,183.647503 L227.841034,183.142241 C237.51411,171.794084 243.352201,157.078822 243.352201,141 C243.352201,105.101491 214.25071,76 178.352201,76 C142.453693,76 113.352201,105.101491 113.352201,141 C113.352201,157.318804 119.365864,172.233042 129.297979,183.647503 C111.640878,169.348141 100.352201,147.492377 100.352201,123 C100.352201,79.9217895 135.273991,45 178.352201,45 Z"></path>
</svg>