<?xml version="1.0" encoding="UTF-8"?>
<svg width="512px" height="512px" viewBox="0 0 512 512" version="1.1" xmlns="http://www.w3.org/2000/svg" xmlns:xlink="http://www.w3.org/1999/xlink">
    <title>people</title>
    <g id="Page-1" stroke="none" stroke-width="1" fill="none" fill-rule="evenodd">
        <g id="human-pyramid" fill="#000000" fill-rule="nonzero">
            <path d="M256,20.17 C253.2,20.17 250.4,21.55 247.9,24.88 C245.3,28.2 243.4,33.35 243.4,39.22 C243.4,45.09 245.3,50.24 247.9,53.56 C250.4,56.89 253.2,58.27 256,58.27 C258.8,58.27 261.6,56.89 264.1,53.56 C266.7,50.24 268.6,45.09 268.6,39.22 C268.6,33.35 266.7,28.2 264.1,24.88 C261.6,21.55 258.8,20.17 256,20.17 Z M176,43.42 L176,59.52 L234,87.52 L234,133.5 L224.6,209.1 L201.6,209.1 C196.8,213.2 190.7,215.8 184,215.8 C177,215.8 170.6,212.9 165.6,208.5 L104,193.1 L104,209.2 L162,227.2 L162,273.2 L152.9,345.6 L129.9,345.6 C125,349.9 118.8,352.6 112,352.6 C105,352.6 98.7,349.7 93.8,345.3 L32,337.6 L32,353.8 L90,363.8 L90,409.8 L80,489.8 L96,489.8 L108,419.8 L116,419.8 L128,489.8 L144,489.8 L134,409.8 L134,363.8 L184,362.1 L234,363.8 L234,409.8 L224,489.8 L240,489.8 L252,419.8 L260,419.8 L272,489.8 L288,489.8 L278,409.8 L278,363.8 L328,362.1 L378,363.8 L378,409.8 L368,489.8 L384,489.8 L396,419.8 L404,419.8 L416,489.8 L432,489.8 L422,409.8 L422,363.8 L480,353.8 L480,337.6 L418.2,345.4 C413.2,349.8 406.9,352.6 400,352.6 C393.2,352.6 387,349.9 382.1,345.6 L359.1,345.6 L350,273.1 L350,227.1 L408,209.1 L408,193 L346.5,208.4 C341.5,213 335.1,215.9 328,215.9 C321.2,215.9 315,213.2 310.1,209 L287.4,209 L278,133.5 L278,87.52 L336,59.52 L336,43.42 L275,68.27 C270,73.08 263.3,76.27 256,76.27 C248.5,76.27 241.8,72.96 236.7,68 L176,43.42 Z M252,143.5 L260,143.5 L271.2,209 L248,209 L248,209.1 L240.8,209.1 L252,143.5 Z M184,159.7 C181.2,159.7 178.4,161.1 175.9,164.5 C173.3,167.8 171.4,172.9 171.4,178.8 C171.4,184.7 173.3,189.8 175.9,193.1 C178.4,196.5 181.2,197.8 184,197.8 C186.8,197.8 189.6,196.5 192.1,193.1 C194.7,189.8 196.6,184.7 196.6,178.8 C196.6,172.9 194.7,167.8 192.1,164.5 C189.6,161.1 186.8,159.7 184,159.7 Z M328,159.8 C325.2,159.8 322.4,161.2 319.9,164.6 C317.3,167.9 315.4,173 315.4,178.9 C315.4,184.8 317.3,189.9 319.9,193.2 C322.4,196.6 325.2,197.9 328,197.9 C330.8,197.9 333.6,196.6 336.1,193.2 C338.7,189.9 340.6,184.8 340.6,178.9 C340.6,173 338.7,167.9 336.1,164.6 C333.6,161.2 330.8,159.8 328,159.8 Z M257.4,225.4 L306,227.1 L306,273.1 L296.9,345.7 L273.8,345.7 C268.9,349.9 262.8,352.6 256,352.6 C249.2,352.6 243.1,349.9 238.2,345.7 L215.1,345.7 L206,273.2 L206,227.2 L257.4,225.4 Z M324,283.1 L332,283.1 L342.7,345.6 L320,345.6 L320,345.7 L313.3,345.7 L324,283.1 Z M180,283.2 L188,283.2 L198.7,345.7 L192,345.7 L192,345.6 L169.3,345.6 L180,283.2 Z M112,296.4 C109.2,296.4 106.4,297.8 103.9,301.2 C101.3,304.5 99.4,309.6 99.4,315.5 C99.4,321.4 101.3,326.5 103.9,329.8 C106.4,333.2 109.2,334.6 112,334.6 C114.8,334.6 117.6,333.2 120.1,329.8 C122.7,326.5 124.6,321.4 124.6,315.5 C124.6,309.6 122.7,304.5 120.1,301.2 C117.6,297.8 114.8,296.4 112,296.4 Z M400,296.4 C397.2,296.4 394.4,297.8 391.9,301.2 C389.3,304.5 387.4,309.6 387.4,315.5 C387.4,321.4 389.3,326.5 391.9,329.8 C394.4,333.2 397.2,334.6 400,334.6 C402.8,334.6 405.6,333.2 408.1,329.8 C410.7,326.5 412.6,321.4 412.6,315.5 C412.6,309.6 410.7,304.5 408.1,301.2 C405.6,297.8 402.8,296.4 400,296.4 Z M256,296.5 C253.2,296.5 250.4,297.9 247.9,301.2 C245.3,304.5 243.4,309.7 243.4,315.6 C243.4,321.4 245.3,326.6 247.9,329.9 C250.4,333.2 253.2,334.6 256,334.6 C258.8,334.6 261.6,333.2 264.1,329.9 C266.7,326.6 268.6,321.4 268.6,315.6 C268.6,309.7 266.7,304.5 264.1,301.2 C261.6,297.9 258.8,296.5 256,296.5 Z" id="Shape"></path>
        </g>
    </g>
</svg>