<?xml version="1.0" encoding="UTF-8"?>
<svg viewBox="0 0 512 512" version="1.1" xmlns="http://www.w3.org/2000/svg" xmlns:xlink="http://www.w3.org/1999/xlink">
  <title>Path</title>
  <path d="M196.38,16.289 L208.398,230.967 L139.016,17.217 L119.366,17.217 L189.886,234.467 C172.726,216.247 155.452,189.727 137.643,154.221 C156.507,216.279 173.216,293.288 178.195,346.261 L19.378,62.393 L19.378,100.67 L164.27,359.65 C130.777,338.334 96.41,303.275 66.352,266.78 C93.064,319.51 121.612,371.627 139.428,427.32 L19.378,289.453 L19.378,317.913 L127.375,441.939 C99,434.69 70.625,422.05 42.25,408.165 C80.28,434.772 104.286,459.062 126.484,493.987 L230.84,493.987 L224.055,402.903 L197.77,402.903 C197.77,358.058 200.64,294.175 238.537,287.043 C231.544,278.61 227.004,266.773 227.004,253.52 C227.004,229.59 241.232,209.762 259.454,207.393 L259.459,207.393 C259.762,207.355 260.069,207.337 260.382,207.33 C261.316,207.31 262.277,207.393 263.212,207.393 C283.169,207.393 299.417,227.995 299.417,253.521 C299.417,266.449 295.113,278.116 288.421,286.511 C329.821,292.931 328.917,357.935 328.917,402.905 L303.977,402.905 L297.974,493.987 L388.934,493.987 C408.352,463.217 449.798,437.26 485.458,418.753 C446.873,429.423 409.531,436.355 375.798,439.773 L493.77,352.803 L493.77,329.585 L367.988,422.313 C392.388,372.95 423.89,334.238 458.152,299.665 C417.592,326.988 384.902,337.365 351.125,343.45 L493.77,158.7 L493.77,128.12 L339.297,328.19 C340.487,276.95 356.243,213.763 378.453,157.143 C361.07,182.197 344.577,203.216 328.74,219.885 L385.146,17.217 L365.748,17.217 L312.336,209.123 L316.168,16.289 L196.378,16.289 L196.38,16.289 Z"></path>
</svg>