<?xml version="1.0" encoding="UTF-8"?>
<svg viewBox="0 0 512 512" version="1.1" xmlns="http://www.w3.org/2000/svg" xmlns:xlink="http://www.w3.org/1999/xlink">
  <path d="M381.7,27 L367.2,47.4 L416.7,82.5 L431.2,62.2 L381.7,27 Z M324.3,39.3 L310.2,60 L421.5,136.2 L435.6,115.5 L324.3,39.3 Z M317,92.7 L247.1,175.5 C236.8,173.4 226.2,172.3 215.3,172.3 C128.5,172.3 58.05,242.8 58.05,329.6 C58.05,416 128.5,487 215.3,487 C302.1,487 372.6,416 372.6,329.6 C372.6,291.8 359.2,257.1 337,230 L388.4,143.1 L317,92.7 Z M324.4,131.7 L353.9,151.2 L307.4,229.2 C333.5,253.1 349.9,287.4 349.9,325.6 C349.9,397.6 291.4,456 219.3,456 C147.3,456 88.75,397.6 88.75,325.6 C88.75,253.5 147.3,195 219.3,195 C241.9,195 263.2,200.8 281.8,210.9 L324.4,131.7 Z M292.9,312.2 C245.6,311.5 166.7,370.5 114.6,325.7 C114.7,383.4 161.6,430 219.3,430 C275.4,430 321.3,386 323.9,330.5 C316.9,317.3 306.1,312.4 292.9,312.2 Z M281.4,335.5 C286.5,335.4 291.1,337 294.1,340.5 C301,348.4 297.3,362.9 285.8,372.9 C274.4,382.9 259.5,384.6 252.6,376.7 C245.7,368.8 249.4,354.3 260.8,344.3 C267.3,338.7 274.8,335.7 281.4,335.5 Z M224.9,384.6 C226.1,384.6 227.3,384.7 228.6,384.9 C238.5,386.4 245.8,393.1 244.8,400 C243.8,407 235,411 225,410 C215.1,408 207.8,402 208.8,394.7 C209.7,388.7 216.5,384.6 224.9,384.6 L224.9,384.6 Z"></path>
</svg>