<?xml version="1.0" encoding="UTF-8"?>
<svg viewBox="0 0 512 512" version="1.1" xmlns="http://www.w3.org/2000/svg" xmlns:xlink="http://www.w3.org/1999/xlink">
  <path d="M255.9,19.77 C241.5,109.6 229.4,163 196.2,196.2 C163,229.4 109.6,241.5 19.77,255.9 C109.6,270.3 163,282.4 196.2,315.7 C229.4,348.9 241.5,402.3 255.9,492.2 C270.3,402.3 282.4,348.9 315.6,315.6 C348.9,282.4 402.3,270.3 492.2,255.9 C402.3,241.5 348.9,229.4 315.7,196.2 C282.4,163 270.3,109.6 255.9,19.77 Z M423,89 C377.2,122.1 342,145.9 310.6,159.2 C315.7,168.6 321.6,176.6 328.4,183.4 C335.2,190.2 343.2,196.1 352.7,201.3 C366.1,169.9 389.9,134.7 423,89 L423,89 Z M89.06,89.06 C122.2,134.8 145.9,169.9 159.2,201.2 C168.6,196.1 176.6,190.2 183.4,183.4 C190.2,176.6 196.1,168.6 201.2,159.2 C169.9,145.9 134.8,122.2 89.06,89.06 Z M352.7,310.5 C343.2,315.7 335.2,321.6 328.4,328.4 C321.6,335.2 315.7,343.2 310.5,352.7 C342,366 377.2,389.8 423,423 C389.8,377.2 366,342 352.7,310.5 Z M159.2,310.6 C145.9,342 122.1,377.2 89,423 C134.7,389.9 169.9,366.1 201.3,352.7 C196.1,343.2 190.2,335.2 183.4,328.4 C176.6,321.6 168.6,315.7 159.2,310.6 L159.2,310.6 Z"></path>
</svg>
