<?xml version="1.0" encoding="UTF-8"?>
<svg width="80px" height="82px" viewBox="0 0 80 82" version="1.1" xmlns="http://www.w3.org/2000/svg" xmlns:xlink="http://www.w3.org/1999/xlink">
    <title>Shape</title>
    <g id="Page-1" stroke="none" stroke-width="1" fill="none" fill-rule="evenodd">
        <path d="M34.9361872,5.2348947 L35.2042619,5.15997254 L36.3729656,4.8480522 L36.9048609,4.71509577 L37.4040169,4.5978505 L37.984472,4.4738166 L37.984472,4.4738166 L38.5196561,4.37532105 L38.9174052,4.3152817 C38.9815496,4.30668215 39.0446437,4.29879001 39.1067223,4.29161115 L39.4672879,4.25714425 L39.8051566,4.24007754 C41.1679826,4.20560758 41.9833331,4.63159819 42.7960502,5.60968445 L42.9913307,5.8550723 L43.1881839,6.12194213 L43.4581558,6.5155349 L43.6180022,6.76659344 L43.7730522,7.0274029 L43.9912085,7.42384038 L44.1099319,7.65200065 L44.3060105,8.04301014 L44.7890677,9.05050336 L45.56985,10.7282054 C45.7206466,11.0542609 45.8593532,11.3752148 46.0011547,11.7259146 L46.2180763,12.2786296 L46.451029,12.9020988 L47.1285486,14.7682561 L47.3265951,15.2837215 L49.0605717,19.5978801 L51.5944132,25.8374624 L56.1696909,37.026158 L56.9779057,35.7012703 L57.5980132,34.6582977 L57.7487355,34.3945334 L57.8620696,34.187243 C58.0500748,33.8302292 58.2134937,33.4911493 58.3558958,33.1604088 L58.4914245,32.8320927 C59.9492051,29.1392444 62.4496703,28.499868 65.9717244,30.2668672 L66.4590962,30.5178687 C69.761981,32.2671912 70.782691,33.8857445 69.578284,37.3064831 L69.1361308,38.5158107 L68.909456,39.1564879 L68.6876416,39.801987 L68.4692175,40.4568444 L68.0366599,41.8127796 L67.8195865,42.5229301 L67.4888487,43.6411432 L67.1475475,44.8365503 L66.6674724,46.576968 L66.0106513,49.0390379 L64.8236225,53.5754629 L64.5582413,54.5681667 L64.1698055,55.973636 L64.1698055,55.973636 L63.8523715,57.0722133 L63.8523715,57.0722133 L63.5381377,58.1086014 L63.4128168,58.506553 L63.4128168,58.506553 L63.161991,59.2752643 L62.9099228,60.0092612 L62.7830489,60.3638199 L62.7830489,60.3638199 L62.5268737,61.0492136 C61.322441,64.1760688 59.9797053,66.3199835 57.9514396,68.326898 L57.6946909,68.575158 L57.7478771,68.7737202 C58.610207,72.1293826 58.0463902,73.6618226 55.3618637,74.5006989 L54.4912931,74.75426 L51.0396953,75.7412006 L47.3322559,76.7873282 L29.9041105,81.6273475 C29.0039759,81.8779573 28.1211175,81.1778274 28.1600595,80.244269 C28.2411017,78.3014376 27.5965663,77.1098125 25.6247214,75.4160361 L25.1458447,75.0156802 L24.6182012,74.5940735 L23.6394046,73.8354055 L23.1665278,73.4609389 L22.8933936,73.2376848 L22.6336976,73.0187847 C18.8864101,69.8109867 16.7265362,67.1852006 15.4018506,63.6745134 C11.2066294,52.5563033 8.61593234,40.5457313 7.12534914,26.624367 L7.09638166,26.3398309 L7.04953325,25.7884337 L7.01788374,25.2602599 C6.81544742,20.8806906 8.30482613,18.959406 12.8566985,18.3675478 C12.5854198,17.1849645 12.5087606,15.8914763 12.5601328,14.2332983 L12.5916861,13.4613287 C12.6049387,13.1952208 12.6208521,12.9200419 12.6392041,12.6349331 C12.8589722,9.22074099 14.3582145,7.92787879 17.7861959,7.08774178 L18.3149398,6.96490809 L19.7169988,6.67333907 L20.1637136,6.57090689 L20.4146228,6.50619819 L20.643972,6.44021429 L20.8045666,6.38824118 C21.0211634,3.78858564 22.6844418,2.17461298 25.9963535,1.29806816 C29.7540878,0.303530848 33.2784487,1.86225486 34.8310847,5.01253734 L34.9361872,5.2348947 Z M26.7005413,3.95875218 C23.590707,4.78181433 22.9654854,5.93325415 23.9031002,9.35559321 L25.4899056,14.9836362 L27.122005,20.9320812 L30.8871131,34.8351284 C31.0870889,35.5683729 30.6547891,36.3248975 29.9215446,36.5248733 C29.1883001,36.724849 28.4317756,36.2925493 28.2317998,35.5593048 L23.6938354,18.8239293 L22.2159255,13.4945499 L21.3249435,10.3552339 C21.2096167,9.95219632 21.1122788,9.56363451 21.0332374,9.18917034 L20.8711209,9.23178863 L20.5386831,9.31052755 L19.711774,9.48620442 L19.1455831,9.60104395 L18.6433359,9.71017696 C18.5634708,9.72838172 18.4854984,9.74662357 18.4093754,9.76494619 L17.9744852,9.87620078 C16.1142395,10.3843542 15.53927,11.0150956 15.3995858,12.6283868 L15.3620969,13.2001587 L15.325642,13.9333978 L15.3045874,14.6123078 C15.2697892,16.3543839 15.4090239,17.5660083 15.8003964,18.6396514 L16.1048692,19.4934878 L16.2979721,20.0571356 L16.5767696,20.9072177 L16.7577076,21.4845813 L17.0256858,22.3795651 L17.2043629,23.0030818 L17.3849088,23.6541422 L17.662698,24.6937303 L17.8548486,25.4363559 L18.2629795,27.0639229 L19.4846843,32.108924 L19.9044135,33.7875707 L20.2077781,34.9499575 L20.4962031,36.0013529 L20.7104235,36.744537 L21.0035272,37.7116003 L21.2359675,38.4439891 C21.4695576,39.1672273 21.0726194,39.9428899 20.3493812,40.17648 C19.626143,40.4100701 18.8504804,40.0131319 18.6168903,39.2898937 L18.4546198,38.7817598 L18.2225453,38.0320401 L17.9256349,37.0250485 L17.7051525,36.2387276 L17.4035625,35.1113855 L17.0812175,33.8510238 L16.6290665,32.0173293 L15.5977828,27.7516269 L15.1987886,26.1595596 L14.9199953,25.0874782 L14.6529878,24.1010087 L14.4789774,23.4825099 L14.2201236,22.600861 L14.0467616,22.0364651 L13.8709782,21.4848749 L13.721,21.033 L13.3585393,21.0674494 L12.9509657,21.1137388 L12.5724592,21.1665604 C10.4475695,21.4955542 9.7613221,22.2056132 9.72638383,24.1305383 L9.72638383,24.4725818 L9.73875041,24.8393602 L9.76187061,25.231807 L9.79510681,25.6508556 L9.83757757,26.0974396 L9.86200046,26.3313491 C11.3294046,40.0362317 13.8720757,51.8241536 17.9769262,62.7028623 C19.0648043,65.5859614 20.8573623,67.8229951 24.0490132,70.6045134 L24.5384989,71.0255817 L24.9044281,71.3266158 L25.5159213,71.8082382 L26.3236938,72.4339659 L26.9039556,72.8985444 C29.2322357,74.8029234 30.4487881,76.3400736 30.8062289,78.4410769 L30.8176909,78.516158 L45.0091379,74.5796697 L48.844738,73.5022919 L53.0553778,72.3033905 L54.6051674,71.8552533 L54.7885112,71.7955375 C55.3026086,71.6156165 55.4950412,71.4133182 55.412818,70.7723995 L55.3753023,70.5419437 L55.3178286,70.2755716 L55.2407839,69.9698574 L55.0893673,69.4300255 L54.822591,68.5405773 C54.6659861,68.0265441 54.822908,67.4683761 55.2244276,67.1112526 C55.4350508,66.923918 55.6380221,66.7359232 55.8339705,66.5462284 L56.2166903,66.1642639 C57.5247416,64.8172976 58.5092334,63.3530577 59.3859985,61.4148532 L59.633758,60.8478754 C59.7563585,60.5576298 59.8771799,60.2570183 59.9968517,59.9450008 L60.2348486,59.3054497 L60.4708982,58.6336341 L60.7061191,57.9277051 L60.8237684,57.5613704 L60.8237684,57.5613704 L61.0598438,56.8008051 L61.2978872,56.0015047 L61.5390173,55.1616203 L61.908947,53.8216548 L63.6274636,47.2855207 L64.1443988,45.3671407 L64.3885757,44.4822523 L64.7412187,43.2347663 L64.969432,42.4495834 L65.3051986,41.3299381 L65.6376256,40.2661483 L65.9718026,39.2425775 L66.1980729,38.574819 L66.5464768,37.5835317 L66.9751473,36.4138723 L67.0884708,36.0835979 C67.5470864,34.6645869 67.2978015,34.1232889 65.7408431,33.2523545 L65.3730831,33.0528967 L64.737523,32.7269214 L64.3553869,32.5412814 C62.5237524,31.6846716 61.8508633,31.9116947 61.1243434,33.6625087 L61.0514678,33.8426857 C60.8409981,34.3758515 60.5923318,34.9094773 60.297334,35.4696653 L60.1461897,35.7454301 L59.827957,36.2959815 L59.1332968,37.4555 L57.1135508,40.7582513 C56.5384255,41.744173 55.0821641,41.6416929 54.6507858,40.5849415 L47.4675743,22.9973653 L45.5956209,18.3629771 L44.7141749,16.1609214 L44.439144,15.4313111 L43.781715,13.6186471 L43.5941181,13.1235533 L43.4182747,12.6810289 L43.2466684,12.2735351 L43.0717831,11.8835327 L42.2109445,10.0372737 L41.7710282,9.1287339 L41.5428371,8.68580677 L41.3934003,8.41480677 L41.2090313,8.10770053 L40.9759435,7.76052146 L40.8303444,7.56688383 L40.7332947,7.45348977 L40.633658,7.35278106 L40.633658,7.35278106 L40.5292056,7.26486675 C40.493338,7.2377065 40.4562963,7.21269682 40.4177091,7.18985588 L40.2969397,7.12785748 C40.1497662,7.06315903 39.9791105,7.02525033 39.7690474,7.01491057 L39.578971,7.01281765 L39.4759982,7.01686895 L39.4759982,7.01686895 L39.1931895,7.04197498 L39.1931895,7.04197498 L38.8706459,7.0886482 L38.5810769,7.14165827 L38.2610631,7.20871668 L37.9083761,7.28993247 L37.3132079,7.43853977 L36.6319887,7.61961452 L35.68,7.885 L35.8273137,8.56540994 L36.0432872,9.5199388 L36.2699272,10.4714961 L36.5095929,11.4288032 L36.7646438,12.4005816 L37.0374393,13.3955527 L37.3303387,14.4224379 L37.7562221,15.8563364 L38.2276331,17.3831488 L38.6144331,18.601669 L39.3294083,20.7982076 L40.4963723,24.289105 L42.5298239,30.3019618 L42.7929192,31.0963258 C43.0310456,31.8180831 42.6389853,32.5962227 41.917228,32.8343491 C41.1954707,33.0724755 40.4173311,32.6804152 40.1792047,31.9586579 L38.9117669,28.1830381 L37.5250094,24.0903786 L36.8586908,22.0935832 L36.2564951,20.2574679 L35.8435202,18.97317 L35.3399043,17.3676141 L35.1066528,16.6047074 L34.7779789,15.5027891 L34.4726241,14.4439103 L34.1881976,13.4191944 L33.9223089,12.4197644 L33.6725673,11.4367436 L33.3605641,10.1362319 L33.3605641,10.1362319 L33.2119627,9.48442222 C33.0654737,8.83077953 32.9249682,8.17032267 32.7872585,7.49121593 C32.2148366,4.66834871 29.6627668,3.17475748 26.7005413,3.95875218 Z" id="Shape" fill="#000000" fill-rule="nonzero" transform="translate(38.533049, 41.339335) scale(-1, 1) translate(-38.533049, -41.339335) "></path>
    </g>
</svg>