<?xml version="1.0" encoding="UTF-8"?>
<svg viewBox="0 0 359 350" version="1.1" xmlns="http://www.w3.org/2000/svg" xmlns:xlink="http://www.w3.org/1999/xlink">
  <title>sage</title>
  <path d="M139.564508,177.502582 C114.858737,168.485776 103.267906,152.5062 96.905228,139.765305 L96.4198783,138.779241 L96.4198783,138.779241 L95.9548624,137.80736 L95.9548624,137.80736 L95.509351,136.850734 L95.509351,136.850734 L95.0825151,135.910436 L95.0825151,135.910436 L94.6735254,134.987538 L94.6735254,134.987538 L94.2815526,134.083113 L94.2815526,134.083113 L93.9057675,133.198233 L93.9057675,133.198233 L93.545341,132.333971 L93.545341,132.333971 L93.1994437,131.491399 L93.1994437,131.491399 L92.3928245,129.486906 L92.3928245,129.486906 C78.8129969,135.871526 63.6027477,132.29303 56.304287,123.932207 C49.0058264,115.571384 46.7751791,104.381854 49.4314596,93.2184333 C51.2023133,85.7761528 58.0601476,79.0010379 70.0049623,72.8930885 C59.1430529,82.1972703 54.2789631,91.1231499 55.4126928,99.6707272 C57.1132875,112.492093 63.4012834,119.142117 72.9673811,119.142117 C82.4092437,119.142117 86.9274389,114.353979 88.4168855,104.129224 L88.6153551,102.713243 L88.6153551,102.713243 L88.7848038,101.580076 C88.8053577,101.447562 88.8265134,101.312888 88.8482977,101.176099 L88.986758,100.330327 L88.986758,100.330327 L89.1415768,99.4358674 C89.168814,99.2828494 89.1967859,99.1278895 89.225519,98.9710314 L89.4072653,98.0074499 C89.4391497,97.8431721 89.4718485,97.6770829 89.5053881,97.5092256 L89.7169295,96.4812133 C89.8279581,95.9569464 89.9470329,95.4175491 90.0748707,94.864194 L90.3424428,93.7392212 C90.3890563,93.5487398 90.4366965,93.3567944 90.4853901,93.1634285 L90.790404,91.986534 C94.7663873,77.0709562 104.966034,54.6534133 132.590688,43.0579066 C169.423561,27.5972311 202.941377,45.2174323 214.311295,57.1273787 L216.955172,59.9051779 L216.955172,59.9051779 L218.238318,61.2678537 L218.238318,61.2678537 L219.493785,62.6183886 L219.493785,62.6183886 L220.314713,63.5139786 L220.314713,63.5139786 L221.122331,64.4071401 C221.255802,64.555864 221.388702,64.7045361 221.521022,64.8531812 L222.307916,65.7449258 C222.437882,65.8935619 222.567253,66.0422204 222.696018,66.1909261 L223.46128,67.0839246 L223.46128,67.0839246 L224.211616,67.9792428 C230.648682,75.752148 235.358602,83.9201429 237.158657,95.9604189 C221.298664,66.9714822 198.707981,49.4334737 166.715819,51.2270415 C177.075446,64.0801204 177.627028,74.6930462 174.242999,84.7850032 L173.997667,85.4965337 L173.997667,85.4965337 L173.73972,86.2064681 L173.73972,86.2064681 L173.469617,86.9149406 L173.469617,86.9149406 L173.187818,87.6220858 L173.187818,87.6220858 L172.894782,88.3280378 L172.894782,88.3280378 L172.590968,89.0329312 L172.590968,89.0329312 L172.276834,89.7369002 C172.223644,89.8541588 172.170043,89.9713845 172.116041,90.0885801 C166.715819,101.808138 155.381526,108.059277 146.040059,109.134819 C136.698592,110.210361 126.510888,106.450094 120.465611,101.823099 C121.154678,101.97015 121.829477,102.109211 122.490433,102.240372 L123.794016,102.492186 C124.222476,102.57263 124.64491,102.64959 125.061445,102.723092 L126.293476,102.933249 C141.4758,105.431201 148.539606,103.103605 154.144948,97.3527524 L154.590391,96.8854079 C154.664154,96.8063089 154.737691,96.7266079 154.811015,96.6463083 L155.248544,96.1573541 C155.466163,95.9093119 155.682159,95.6559421 155.896958,95.3973344 L156.325087,94.8731618 L156.325087,94.8731618 L156.750782,94.335181 L156.750782,94.335181 L157.174801,93.7835517 L157.174801,93.7835517 L157.597901,93.2184333 L157.597901,93.2184333 C164.646129,83.6882708 164.150061,71.5153553 156.669979,64.9327924 C149.189896,58.3502296 133.47341,60.1815648 126.393655,70.4488657 L125.746031,71.3988013 L125.746031,71.3988013 L125.080327,72.3996048 L125.080327,72.3996048 L124.400763,73.4499421 L124.400763,73.4499421 L123.942103,74.1770271 L123.942103,74.1770271 L123.480408,74.925139 L123.480408,74.925139 L123.016928,75.6938826 L123.016928,75.6938826 L122.552913,76.4828627 C122.475602,76.6160238 122.39832,76.7500116 122.321095,76.8848179 L121.858621,77.7034116 C121.781724,77.8414589 121.704934,77.9803082 121.628278,78.1199513 L121.170158,78.9672694 L121.170158,78.9672694 L120.716504,79.8332429 L120.716504,79.8332429 L120.268564,80.7174767 C114.858477,91.5851348 110.995005,106.41957 118.809371,122.017535 C129.406935,143.17094 149.845592,152.51044 163.239733,152.695114 L164.739072,152.704727 L164.739072,152.704727 L165.487303,152.715868 L165.487303,152.715868 L167.417059,152.759982 L167.417059,152.759982 L171.507123,152.868129 L171.507123,152.868129 L172.787736,152.892052 L172.787736,152.892052 L174.090481,152.906422 L174.090481,152.906422 L174.970549,152.909133 L174.970549,152.909133 L175.859369,152.905256 L175.859369,152.905256 L177.208056,152.885039 L177.208056,152.885039 L178.116853,152.860594 L178.116853,152.860594 L179.032882,152.826282 C179.339382,152.813096 179.647015,152.79811 179.955708,152.781166 L180.884897,152.724311 C181.040269,152.713805 181.195887,152.70277 181.351743,152.691188 L182.289663,152.614966 C182.603207,152.587263 182.917631,152.557214 183.232862,152.524661 L184.180904,152.419338 C192.417009,151.438748 201.149957,148.660481 209.10811,141.340406 C209.579226,140.487052 209.914188,139.648048 210.113771,138.821501 C197.216596,145.577995 184.395474,146.52064 171.650408,141.649435 C193.978997,124.238285 217.663865,119.132161 242.70501,126.331063 C242.70501,111.012691 256.416903,97.196105 274.137296,97.196105 C291.85769,97.196105 312.955929,111.386402 306.367113,141.649435 C306.367113,129.751984 301.803349,119.749423 292.493084,113.042789 C287.043173,109.116954 281.355288,108.844084 276.559618,109.844816 L275.964888,109.976369 C275.866568,109.999342 275.768655,110.022826 275.671161,110.046797 L275.091292,110.196314 L275.091292,110.196314 L274.521942,110.356515 C274.427955,110.384048 274.334426,110.411983 274.241366,110.4403 L273.688717,110.614592 C273.415288,110.70385 273.146264,110.796146 272.881921,110.890901 L272.359558,111.083515 C272.273565,111.116106 272.188113,111.148927 272.103211,111.181957 L271.600491,111.382465 L271.600491,111.382465 L271.11148,111.586946 L271.11148,111.586946 L270.40474,111.898856 L270.40474,111.898856 L269.952147,112.10875 L269.952147,112.10875 L269.302334,112.423938 L269.302334,112.423938 L268.889224,112.63279 L268.889224,112.63279 L268.300936,112.941575 C268.237713,112.975477 268.175215,113.009222 268.113452,113.042789 L267.804479,113.218511 C267.542956,113.373718 267.271823,113.55075 266.994862,113.748831 L266.659953,113.996581 C266.603749,114.03954 266.547373,114.083328 266.490854,114.12794 L266.150274,114.405441 C265.865438,114.644842 265.578555,114.904515 265.293406,115.183682 L264.952302,115.527992 L264.952302,115.527992 L264.614316,115.890718 C260.247049,120.724577 257.038144,130.151536 269.343825,141.222812 L269.824801,141.649435 C286.114353,155.896811 306.18472,197.548747 278.723324,237.246092 C260.415727,263.710989 234.019355,273.976989 199.534208,268.044092 C229.312299,267.333987 252.172047,254.666931 268.113452,230.042922 C244.138279,233.368519 229.966027,214.929523 227.838388,199.836859 C226.419962,189.775083 229.904025,179.866938 238.290578,170.112425 C238.151017,170.485611 238.014875,170.856664 237.882154,171.225583 L237.49425,172.32594 C237.179546,173.237571 236.886217,174.135868 236.614263,175.020831 L236.298178,176.076386 C236.247207,176.251245 236.197091,176.42557 236.14783,176.599363 L235.862525,177.635717 C231.966047,192.226725 234.246876,202.964188 242.70501,209.848106 C252.556249,217.865847 261.59618,217.865847 269.824801,209.848106 C279.933895,199.475768 277.343916,185.015701 262.054863,166.467908 C239.865106,146.466701 220.626666,149.821136 205.409148,157.012718 L204.432962,157.481821 L204.432962,157.481821 L203.467998,157.960407 C203.308109,158.040896 203.148691,158.121733 202.989744,158.202891 L202.041731,158.693517 L202.041731,158.693517 C186.336185,166.928611 174.361556,198.090824 174.361556,209.848106 C174.361556,217.474452 175.863776,223.513974 178.868217,227.966673 L179.122065,228.334058 C177.061125,212.918313 181.487863,199.804686 192.40228,188.993177 C199.456806,227.48725 184.637966,245.664616 168.955023,259.377183 L167.896675,260.295042 L167.896675,260.295042 L166.83714,261.200452 L166.83714,261.200452 L165.777847,262.094492 L165.777847,262.094492 L164.720228,262.978243 L164.720228,262.978243 L163.140065,264.286936 L163.140065,264.286936 C173.324321,278.342413 171.293754,295.5603 158.764519,306.309558 C150.411696,313.47573 139.515666,314.948278 126.076429,310.727203 C120.097758,307.948419 116.010933,304.862162 113.815955,301.468434 C124.424549,307.320537 133.398842,308.212888 139.766744,307.153475 L140.39481,307.041139 C140.807681,306.96206 141.208823,306.874752 141.59795,306.780106 L142.172593,306.632746 C142.738151,306.480105 143.276349,306.311957 143.786215,306.13131 L144.286601,305.946609 C144.613848,305.820845 144.928358,305.689972 145.229845,305.554881 L145.67227,305.349192 C145.744368,305.31442 145.815643,305.279413 145.88609,305.244183 L146.298806,305.030257 C146.433044,304.958135 146.563936,304.885236 146.691446,304.811674 L147.063794,304.589103 L147.063794,304.589103 L147.415634,304.363213 C147.529472,304.287437 147.639856,304.21122 147.746749,304.134672 L148.056925,303.904148 C148.25668,303.749954 148.442331,303.594883 148.61359,303.439828 L150.206702,301.938271 L150.206702,301.938271 L150.632208,301.529175 L150.632208,301.529175 L151.26958,300.901545 L151.26958,300.901545 L151.69153,300.472673 L151.69153,300.472673 L152.109212,300.034537 L152.109212,300.034537 L152.520999,299.586363 C155.379073,296.412208 157.684243,292.443406 156.925497,286.485816 C155.841575,277.974974 149.712554,273.472218 145.347032,273.472218 L144.888041,273.48074 L144.888041,273.48074 L143.840885,273.527548 L143.840885,273.527548 L140.036257,273.738901 L140.036257,273.738901 L138.411515,273.818259 L138.411515,273.818259 L137.090408,273.874122 L137.090408,273.874122 L136.164093,273.908139 L136.164093,273.908139 L134.710596,273.952351 L134.710596,273.952351 L133.701449,273.976128 L133.701449,273.976128 L132.662207,273.994424 L132.662207,273.994424 L131.594609,274.006448 L131.594609,274.006448 L130.500391,274.011408 C130.315899,274.011602 130.130371,274.011469 129.943842,274.010992 L128.812949,274.003873 L128.812949,274.003873 L127.659779,273.987712 C127.465824,273.984221 127.271013,273.98032 127.075382,273.975993 L125.89205,273.944786 C125.693285,273.938688 125.493773,273.932132 125.29355,273.925099 L124.083965,273.877065 C123.881041,273.868064 123.677479,273.858554 123.473314,273.848519 L122.241384,273.781877 C122.034953,273.769676 121.827992,273.756917 121.620538,273.743583 L120.370169,273.656553 C120.160882,273.640855 119.951174,273.624549 119.741081,273.607619 L118.476182,273.498421 L118.476182,273.498421 L117.203767,273.373455 C109.125005,272.530397 100.698528,270.691016 93.9097298,266.950703 C76.0444712,257.107776 58.6879236,233.223445 56.7896936,213.143727 C56.7327467,212.541335 56.6805996,211.936126 56.633365,211.328476 L56.5454786,210.110035 C55.2587046,190.77008 58.9730483,169.235331 71.2584299,157.488128 L70.728692,159.009379 C70.642304,159.260192 70.5568613,159.509649 70.4723558,159.757763 L69.9765038,161.230437 L69.9765038,161.230437 L69.502752,162.671509 C69.4256132,162.909089 69.349379,163.145379 69.274041,163.38039 L68.8327039,164.775233 L68.8327039,164.775233 L68.4124862,166.140039 L68.4124862,166.140039 L68.0129956,167.475433 C67.9481193,167.695583 67.8840903,167.914533 67.8209004,168.132297 L67.4517649,169.424748 L67.4517649,169.424748 L67.1023756,170.689353 L67.1023756,170.689353 L66.7723404,171.926737 C66.6655108,172.334732 66.5618414,172.738294 66.4612669,173.137527 L66.1687628,174.322349 C66.0743127,174.713031 65.9828922,175.099489 65.8944358,175.481828 L65.6378935,176.616591 C65.5965967,176.803693 65.5560246,176.989791 65.516169,177.174899 L65.2855682,178.273761 L65.2855682,178.273761 L65.0717714,179.34947 C65.0032629,179.704251 64.9374897,180.055278 64.8743863,180.402655 L64.6930205,181.433939 C64.6062771,181.944211 64.5253938,182.446504 64.4501499,182.941173 L64.3071162,183.920446 C64.2845086,184.081999 64.2625113,184.24273 64.2411161,184.402653 L64.1199046,185.352598 L64.1199046,185.352598 L64.0127508,186.283773 C63.9960416,186.43744 63.9799017,186.59035 63.964323,186.742518 L63.8775203,187.646712 L63.8775203,187.646712 L63.8037947,188.5337 L63.8037947,188.5337 L63.7427537,189.40411 L63.7427537,189.40411 L63.694005,190.258566 L63.694005,190.258566 L63.6571565,191.097696 C63.6519849,191.236308 63.6472928,191.374308 63.6430721,191.511708 L63.623338,192.329021 L63.623338,192.329021 L63.6145232,193.132571 L63.6145232,193.132571 L63.6162354,193.922984 L63.6162354,193.922984 L63.6280822,194.700887 L63.6280822,194.700887 L63.6496713,195.466906 C63.6540596,195.59362 63.6588374,195.719865 63.6639967,195.845654 L63.6994637,196.59502 C63.7061159,196.719037 63.7131332,196.842624 63.7205073,196.965794 L63.7689696,197.699916 C63.7777386,197.82147 63.7868482,197.942634 63.7962901,198.063419 L63.8568649,198.783704 L63.8568649,198.783704 L63.9250243,199.495548 L63.9250243,199.495548 L64.0003759,200.199576 L64.0003759,200.199576 L64.0825276,200.896414 L64.0825276,200.896414 L64.1710869,201.586688 L64.1710869,201.586688 L64.3150821,202.611162 L64.3150821,202.611162 L64.4712878,203.624388 L64.4712878,203.624388 L64.6383799,204.628479 L64.6383799,204.628479 L64.8150344,205.625548 C64.8351448,205.736021 64.8554079,205.846404 64.8758153,205.956708 C65.9889479,211.973331 69.1125305,219.217812 72.5784582,225.54293 L73.1589966,226.588235 C73.5477541,227.27894 73.939594,227.956821 74.3322281,228.618934 L74.9214887,229.599909 L74.9214887,229.599909 L75.5102245,230.555023 C75.7061916,230.868839 75.9017852,231.177976 76.0967192,231.482066 L76.6792567,232.378829 C76.9692502,232.819273 77.2571161,233.247533 77.5418891,233.662368 L78.1070254,234.473767 C78.3872456,234.870148 78.6637294,235.252274 78.9355114,235.618904 L79.4725205,236.331133 C80.0026885,237.021962 80.5114753,237.647491 80.9911581,238.197777 C82.6632762,217.853189 95.1181525,208.793355 107.573715,205.956708 C115.72365,204.100631 123.864071,205.795007 129.880704,208.467748 L130.552646,208.774363 C131.657049,209.291895 132.683006,209.840801 133.616314,210.403804 L134.165068,210.74316 C134.254636,210.799955 134.343249,210.856857 134.430893,210.913847 L134.945015,211.256723 C135.112437,211.37128 135.275869,211.486054 135.435197,211.600909 L135.900758,211.945576 C136.429285,212.347646 136.906151,212.749005 137.326485,213.143727 L137.630749,213.430565 L137.630749,213.430565 L138.240273,214.012767 L138.240273,214.012767 L138.849722,214.607012 C138.951197,214.707102 139.052598,214.807728 139.153891,214.908906 L139.760064,215.522741 C143.788785,219.660996 147.531388,224.737647 148.739331,231.836419 C140.101964,219.307837 130.729459,213.724119 120.131324,214.64401 C109.533188,215.563902 97.8046997,222.413036 97.8046997,235.281181 C97.8046997,248.149325 110.183541,253.638713 126.076429,252.460657 C141.969317,251.2826 163.140065,240.16726 163.140065,212.082823 C163.140065,183.998387 146.08906,154.288931 111.735382,149.390732 C123.657008,152.433158 132.933383,161.803775 139.564508,177.502582 Z"></path>
</svg>