<?xml version="1.0" encoding="UTF-8"?>
<svg viewBox="0 0 171 174" version="1.1" xmlns="http://www.w3.org/2000/svg" xmlns:xlink="http://www.w3.org/1999/xlink">
    <!-- Generator: Sketch 53.2 (72643) - https://sketchapp.com -->
    <title>Search</title>
    <desc>Created with Sketch.</desc>
    <path d="M65.5,130.5 C29.6014913,130.5 0.5,101.398509 0.5,65.5 C0.5,29.6014913 29.6014913,0.5 65.5,0.5 C101.398509,0.5 130.5,29.6014913 130.5,65.5 C130.5,101.398509 101.398509,130.5 65.5,130.5 Z M65,117.5 C93.9949494,117.5 117.5,93.9949494 117.5,65 C117.5,36.0050506 93.9949494,12.5 65,12.5 C36.0050506,12.5 12.5,36.0050506 12.5,65 C12.5,93.9949494 36.0050506,117.5 65,117.5 Z M37.25973,46.0855884 L28.2294914,40.442869 C28.3006596,40.3265522 28.3724525,40.210445 28.4448708,40.0945514 C40.9096691,20.1467043 67.1853098,14.0804947 87.1331569,26.545293 C87.2490505,26.6177113 87.3644755,26.6905958 87.4794311,26.7639426 L81.8367117,35.7941812 C81.7220269,35.7204988 81.6067153,35.6474314 81.4907784,35.574986 C66.5298931,26.2263873 46.8231626,30.7760445 37.4745639,45.7369298 C37.4021185,45.8528667 37.3305078,45.9690885 37.25973,46.0855884 Z M118.925273,109.710026 L171,161.307126 L158.18963,174 L105.751042,122.042375 C110.594403,118.432682 115.014855,114.293038 118.925273,109.710026 L118.925273,109.710026 Z"></path>
</svg>