<?xml version="1.0" encoding="UTF-8"?>
<svg viewBox="0 0 512 512" version="1.1" xmlns="http://www.w3.org/2000/svg" xmlns:xlink="http://www.w3.org/1999/xlink">
  <title>skull</title>
  <path d="M258.045797,23 C246.892535,22.9829955 235.619599,23.7052292 224.239587,25.1198003 C175.110435,31.2092222 131.213853,50.8401337 94.2268456,87.2885492 C64.9540595,116.11968 45.5228502,151.460356 41.0035981,194.71728 C35.6356084,246.626848 52.0025444,290.952175 85.2796713,327.191316 C95.9747096,338.813142 100.70339,350.136005 100.408931,366.575871 C99.9412588,392.425231 101.942642,418.315501 103.007107,445.735208 C136.117321,426.190839 167.904826,407.36713 200.122212,388.334146 C219.295179,421.972302 238.000473,454.845739 257.563953,489 C276.692829,455.143129 295.188695,422.441203 313.977446,389.485944 C345.081553,408.053173 375.766802,426.400114 407.469277,445.434671 C408.278648,418.779682 410.198149,393.82564 409.431294,368.962861 C408.875441,351.544283 412.286138,338.002793 425.580928,327.701128 C429.796272,324.42354 432.992816,319.273494 436.359423,314.628539 C468.746871,269.617169 479.996187,219.671322 463.380456,164.363007 C447.996103,113.221304 414.92683,78.3007514 372.524593,53.6488205 C336.203663,32.5561331 297.881351,23.0600967 258.047372,23 L258.045797,23 Z M388.38434,189.001865 C416.582554,188.791604 429.504509,206.371921 423.595174,236.818947 C416.753862,271.934078 387.573378,297.579625 356.527368,295.924213 C322.925885,294.136996 295.713084,266.49554 292.051183,230.191023 C291.758859,227.349364 292.734843,222.976252 294.565793,221.487166 C311.316243,207.984967 366.395643,189.174467 388.38434,189.001865 L388.38434,189.001865 Z M128.464925,189.008036 C150.0805,190.366374 174.942273,200.860911 199.509367,212.421704 C203.129035,214.160063 206.455599,216.795082 210.166664,217.861338 C219.380506,220.453958 219.76028,227.460785 218.439739,235.621806 C212.514642,270.509899 182.189487,297.624842 151.018116,295.924171 C115.667659,294.011505 88.6280976,265.665421 86.1540541,227.848657 C84.4474369,201.796829 96.8160783,188.665703 128.464925,189.006466 L128.464925,189.008036 Z M255.917336,278 C267.631973,306.561534 278.622317,333.252314 290,361 L222,361 C233.24857,333.420102 244.283002,306.685415 255.915762,278 L255.917336,278 Z"></path>
</svg>