<?xml version="1.0" encoding="UTF-8"?>
<svg viewBox="0 0 359 350" version="1.1" xmlns="http://www.w3.org/2000/svg" xmlns:xlink="http://www.w3.org/1999/xlink">
  <title>splendor</title>
  <path d="M302.754122,35.0018274 C302.754122,54.7728642 298.423684,73.4969463 290.69106,90.2132188 L334.141352,133.481626 L282.73882,104.847703 C275.367297,116.543985 266.197925,126.915538 255.636633,135.542173 L283.940965,206.059995 L238.022541,147.562533 C225.745752,154.463346 212.21371,159.274845 197.871741,161.536064 L179.597602,316.001827 L161.340882,161.69199 C146.43149,159.472673 132.381454,154.500133 119.687121,147.288147 L73.5525883,206.059995 L102.0312,135.109002 C91.6053693,126.497704 82.5546768,116.177764 75.2748404,104.558801 L23.3522013,133.481626 L67.2835439,89.7337648 C59.6892064,73.1392325 55.4410829,54.5840569 55.4410829,35.0018274 L55.4482013,34 L114.127762,34 C115.029892,63.862763 136.073172,88.6603523 164.135161,95.2713693 L179.097602,200.001827 L194.059699,95.2714504 C222.121858,88.6605557 243.165306,63.8628895 244.067443,34 L302.750413,34 L302.754122,35.0018274 L302.754122,35.0018274 Z M220.317458,165.487819 L235.365859,184.321421 L241.528653,235.517732 L218.51362,190.344832 L220.317458,165.487819 Z M137.679891,165.487819 L139.48373,190.344832 L116.468696,235.517732 L122.631491,184.321421 L137.679891,165.487819 Z M275.097602,128.386874 L293.093456,136.37598 L316.48373,170.352922 L281.76621,145.86072 L275.097602,128.386874 Z M82.8997474,128.386874 L76.2311392,145.86072 L41.51362,170.352922 L64.9038936,136.37598 L82.8997474,128.386874 Z M149.988523,108.684927 L125.889016,139.386004 C136.429029,145.154642 147.94799,149.262878 160.120828,151.374222 L155.284484,110.490625 C153.492447,109.947647 151.726356,109.344976 149.988523,108.684927 Z M207.665046,108.888447 C206.439513,109.343977 205.200138,109.771045 203.947727,110.168846 L199.095639,151.192127 C210.703456,149.065928 221.704739,145.121481 231.815038,139.653229 L207.665046,108.888447 Z M243.37708,82.9202226 C241.470452,85.3239134 239.431853,87.6181809 237.272234,89.792075 L251.771853,125.917456 C260.41386,118.507243 267.981914,109.802034 274.198411,100.089185 L243.37708,82.9202226 Z M114.60381,82.6488676 L83.8133236,99.8016159 C89.9391812,109.433732 97.3914875,118.0817 105.901156,125.466982 L120.42438,89.2858484 C118.368581,87.1805085 116.425159,84.9649494 114.60381,82.6488676 Z M179.097602,88.0018274 C148.838751,88.0018274 124.18516,64.002856 123.132611,34.000695 L235.062593,34.000695 C234.010045,64.002856 209.356453,88.0018274 179.097602,88.0018274 Z M260.225703,44.0025394 C259.576487,48.4296313 258.573504,52.7417585 257.246384,56.9092924 L283.321489,82.8748681 C288.486701,70.843839 291.764776,57.7525018 292.76671,44.0035269 L260.225703,44.0025394 Z M97.9695011,44.0025394 L65.4284943,44.0035269 C66.4168634,57.5663602 69.6201601,70.4892422 74.664965,82.3856369 L100.781557,56.3777495 C99.5371803,52.3754324 98.5911572,48.2416913 97.9695011,44.0025394 Z"></path>
</svg>