<?xml version="1.0" encoding="UTF-8"?>
<svg viewBox="0 0 512 512" version="1.1" xmlns="http://www.w3.org/2000/svg" xmlns:xlink="http://www.w3.org/1999/xlink">
  <path d="M187.177778,24 L187.177778,84.625 L93,84.625 L93,121 L419,121 L419,84.625 L324.822222,84.625 L324.822222,24 L187.177778,24 Z M209,46 L303,46 L303,85 L209,85 L209,46 Z M114,142 L150.356206,488 L362.646209,488 L399,142 L114,142 Z M188.91061,159 L189.691563,169.854016 L209.215386,440.600072 L210,451.449254 L188.08939,453 L187.308437,442.145984 L167.784614,171.399928 L167,160.550746 L188.91061,159 Z M323.09061,159 L345,160.551942 L344.215386,171.402243 L324.691563,442.146073 L323.91061,453 L302,451.448058 L302.784614,440.597757 L322.308437,169.853927 L323.08939,159 L323.09061,159 Z M245,160 L267,160 L267,452 L245,452 L245,160 Z"></path>
</svg>