<?xml version="1.0" encoding="UTF-8"?>
<svg width="512px" height="512px" viewBox="0 0 512 512" version="1.1" xmlns="http://www.w3.org/2000/svg" xmlns:xlink="http://www.w3.org/1999/xlink">
    <title>anticlockwise-rotation</title>
    <g id="Page-1" stroke="none" stroke-width="1" fill="none" fill-rule="evenodd">
        <path d="M248.91,49.9999738 C260.792,49.994 272.785,51.018 284.767,53.13 C369.974,68.155 436.844,135.025 451.869,220.232 C466.892,305.44 426.925,391.149 351.995,434.41 C319.213,453.337 282.741,462.406 246.532,461.963 C199.977,461.393 153.857,445.098 116.575,413.813 L147.43,377.045 C198.38,419.795 270.398,426.095 327.996,392.842 C385.593,359.588 416.148,294.065 404.599,228.568 C393.049,163.071 341.927,111.948 276.429,100.4 C224.773,91.292 173.106,108.38 137.259,144.262 L185,192 L57,192 L57,64 L103.34,110.342 C141.758,71.962 194.17,50.03 248.91,49.9999738 Z" id="Path" fill="#FFFFFF" fill-rule="nonzero"></path>
    </g>
</svg>