<?xml version="1.0" encoding="UTF-8"?>
<svg width="359px" height="350px" viewBox="0 0 359 350" version="1.1" xmlns="http://www.w3.org/2000/svg" xmlns:xlink="http://www.w3.org/1999/xlink">
    <title>valor</title>
    <g id="Page-1" stroke="none" stroke-width="1" fill="none" fill-rule="evenodd">
        <g id="Valor" transform="translate(0.647799, 0.000000)" fill="#FFFFFF">
            <path d="M54.3522013,41 L56.9639491,41.4847268 L56.9639491,41.4847268 L59.6165395,41.983879 L59.6165395,41.983879 L63.6681616,42.7559828 L63.6681616,42.7559828 L77.7325687,45.4640548 L77.7325687,45.4640548 L82.0967488,46.2949716 L82.0967488,46.2949716 L85.0378544,46.8484127 L85.0378544,46.8484127 L88.0022318,47.3994926 L88.0022318,47.3994926 L90.9881239,47.9465327 C91.4874678,48.0372761 91.987635,48.1277813 92.4885888,48.2180132 L95.5034585,48.755846 L95.5034585,48.755846 L98.5354502,49.2854423 L98.5354502,49.2854423 L101.582807,49.8051235 L101.582807,49.8051235 L104.643771,50.3132109 C120.490882,52.9054875 136.812516,54.966313 152.518147,55.4538359 C150.05226,64.0770078 147.090659,73.396401 143.071194,82.4451334 C131.300761,81.4213133 120.082863,79.8869469 109.605257,77.9101729 C115.459155,84.838906 121.325901,92.7718569 127.072873,101.560894 L128.260149,103.391482 C130.800264,107.339828 133.315042,111.454412 135.792928,115.722327 C148.689115,95.6699275 158.020902,75.1607611 163.562689,55.7089341 C167.24202,55.7672564 170.943778,55.7960009 174.664143,55.7960009 C181.112731,55.7960009 187.505412,55.7096409 193.833785,55.5399517 C199.198969,74.4479091 208.149807,94.3601958 220.476777,113.884748 L221.205201,115.032 L221.79584,114.022258 C224.381277,109.62027 227.004995,105.38594 229.654015,101.333785 L230.847738,99.5226614 C233.437648,95.6254152 236.049761,91.9034191 238.672047,88.3701277 L239.883012,86.752826 C242.306211,83.5452168 244.736501,80.5001612 247.164423,77.6282417 C236.796206,79.6387092 225.684007,81.2134628 214.01549,82.2847106 C210.864962,75.2564919 208.511233,67.8960576 206.476945,60.9407113 L205.8446,58.7586117 L204.819085,55.159469 C218.935129,54.5594673 234.225514,52.8163174 249.259827,50.5999133 L252.166112,50.1652022 L252.166112,50.1652022 L255.063698,49.7197514 C255.545776,49.6446746 256.027395,49.5691953 256.508508,49.493336 L259.388722,49.0337994 L259.388722,49.0337994 L262.254475,48.5662216 L262.254475,48.5662216 L265.103461,48.0916818 L265.103461,48.0916818 L267.933377,47.6112594 L267.933377,47.6112594 L270.741916,47.1260337 L270.741916,47.1260337 L273.526775,46.6370841 L273.526775,46.6370841 L277.654621,45.8990384 L277.654621,45.8990384 L280.370196,45.4055012 L280.370196,45.4055012 L283.054023,44.9120178 L283.054023,44.9120178 L287.015197,44.1742546 L287.015197,44.1742546 L293.425768,42.9602092 L293.425768,42.9602092 L299.565898,41.7802297 L299.565898,41.7802297 L303.105183,41.0956095 L303.105183,41.0956095 C302.288132,42.0608614 301.468669,43.037359 300.647034,44.0249711 L299.000939,46.0149755 C297.901706,47.3514729 296.798895,48.7075739 295.693075,50.0829675 L294.03216,52.1604885 C287.657209,60.1794873 281.192159,68.831209 274.745039,78.0565407 L273.063659,80.4761221 C269.982135,84.935734 266.906861,89.5253739 263.849655,94.2385754 L262.18395,96.8216277 C253.865098,109.797771 245.696614,123.684221 237.918228,138.349801 C245.728846,148.120233 253.981407,157.07773 262.492756,165.146737 C272.473808,138.708319 277.691931,112.453293 278.430194,88.5774933 L278.462891,87.4052016 L301.650119,56.7643513 C302.958353,92.2681494 294.700503,135.252525 276.346613,178.491581 C254.659984,229.582078 223.437606,270.286158 191.861458,292.952234 L190.904506,293.633555 L199.097835,260.451978 C219.632107,242.505866 238.697747,217.191128 253.258437,186.76902 C244.118202,179.079415 235.180326,170.374148 226.656783,160.740679 C221.923568,170.685753 217.401848,180.930205 213.15683,191.436992 C211.031868,196.696458 208.910214,202.350305 206.814881,208.26784 L205.918559,210.819689 C205.471271,212.103305 205.025343,213.398172 204.581,214.703003 L203.694497,217.325571 C203.399745,218.203936 203.105766,219.086348 202.812625,219.972427 L201.935788,222.641283 L201.935788,222.641283 L201.064387,225.329853 C200.774871,226.229075 200.486328,227.131201 200.198826,228.035852 L199.339506,230.756993 L199.339506,230.756993 L198.486831,233.49099 C198.345295,233.9476 198.204052,234.404651 198.063111,234.862095 L197.221158,237.611089 C197.081458,238.069913 196.942078,238.529035 196.803025,238.988407 L195.972698,241.747255 L195.972698,241.747255 L195.150626,244.509815 C195.014324,244.970424 194.878383,245.431092 194.742811,245.891772 L193.933875,248.655612 C193.799813,249.116148 193.666137,249.576601 193.532855,250.036923 L192.737961,252.7969 L192.737961,252.7969 L191.952932,255.551444 L191.952932,255.551444 L190.794765,259.668071 C190.667414,260.124224 190.540515,260.579911 190.414078,261.035087 L189.661058,263.759614 L189.661058,263.759614 L188.919513,266.469564 L188.919513,266.469564 L188.189845,269.162649 L188.189845,269.162649 L187.472457,271.836584 L187.472457,271.836584 L186.767751,274.489083 L186.767751,274.489083 L186.07613,277.11786 L186.07613,277.11786 L185.397997,279.720628 L185.397997,279.720628 L184.406966,283.571012 L184.406966,283.571012 L183.448545,287.350018 L183.448545,287.350018 L182.524095,291.049929 L182.524095,291.049929 L181.634972,294.66303 L181.634972,294.66303 L180.782535,298.181605 L180.782535,298.181605 L180.235297,300.470996 L180.235297,300.470996 L179.447024,303.81488 L179.447024,303.81488 L178.69906,307.043663 L178.69906,307.043663 L178.223482,309.12843 L178.223482,309.12843 C170.163652,268.495326 158.929449,229.895273 144.965058,195.332194 C140.344232,183.895248 135.343729,172.59715 130.066553,161.54798 C121.591921,171.049802 112.715829,179.635515 103.64569,187.219974 C118.178915,217.440552 137.157766,242.59434 157.590805,260.451978 L165.784133,293.633555 C133.882761,271.107403 102.247713,230.098143 80.3420267,178.491581 C61.9881365,135.252525 53.7302871,92.2681494 55.0385203,56.7643513 L78.2257485,87.4052016 C78.8308177,111.750036 84.1194483,138.622534 94.3938287,165.671431 C102.85565,157.698462 111.066455,148.847715 118.846661,139.193905 L117.417349,136.493439 C115.744793,133.3512 114.0549,130.238299 112.350353,127.157604 L110.885787,124.524961 C107.949728,119.275717 104.972859,114.123522 101.968696,109.082816 L100.464402,106.57182 C99.711181,105.321035 98.9563946,104.077368 98.2002543,102.841045 L96.6862312,100.378259 L96.6862312,100.378259 L95.1689732,97.9354577 C94.9158482,97.5300119 94.662604,97.1254156 94.4092485,96.721677 L92.8878424,94.3096062 C92.6340729,93.9093322 92.3802078,93.5099328 92.1262548,93.1114163 L90.6015452,90.7309782 C90.3472721,90.3360265 90.0929267,89.9419745 89.838517,89.5488303 L88.3113488,87.2009275 C88.0567129,86.8114485 87.8020282,86.4228942 87.5473026,86.0352729 L86.0185205,83.7208079 L86.0185205,83.7208079 L84.4891319,81.4291361 C83.9792763,80.669089 83.4693822,79.9129076 82.9595122,79.1606587 L81.4300369,76.9157768 C80.6653979,75.7993016 79.9009539,74.6918251 79.1369159,73.5935729 L77.6094442,71.4094345 C77.1005092,70.6855327 76.5918173,69.9657974 76.083431,69.2502956 L74.5592518,67.1165571 L74.5592518,67.1165571 L73.037282,65.0086203 C72.7838254,64.6594699 72.5304764,64.3114113 72.277243,63.9644528 L70.7592914,61.8959704 C70.5065514,61.5534459 70.2539425,61.2120383 70.0014726,60.8717558 L68.488384,58.8436305 C68.2365014,58.5078823 67.9847734,58.173276 67.7332079,57.83982 L66.225827,55.8529542 C65.7240583,55.1953113 65.223002,54.5423363 64.7227206,53.8940961 L63.2242642,51.9636469 L63.2242642,51.9636469 L61.7308332,50.0620077 L61.7308332,50.0620077 L60.2428032,48.1895795 L60.2428032,48.1895795 L58.7605495,46.3467635 C57.2813091,44.5188874 55.8112965,42.7360312 54.3522013,41 Z M178.720236,82.4124193 C171.760294,101.079639 161.508816,120.346621 148.154298,138.960848 L149.286493,141.304675 C150.359242,143.544063 151.41923,145.811568 152.465281,148.105881 L153.506642,150.40908 C155.579901,155.033154 157.595847,159.762705 159.545084,164.587237 C167.928746,185.337528 174.204208,205.681158 178.326533,224.497397 C182.452733,205.672602 188.724274,185.324252 197.099039,164.569685 C198.890097,160.131049 200.737463,155.772686 202.633849,151.502748 L203.673059,149.182509 L204.72173,146.880102 C206.059519,143.967317 207.419563,141.098391 208.799438,138.276036 C195.682952,119.875761 185.59632,100.851494 178.720236,82.4124193 Z"></path>
        </g>
    </g>
</svg>